<?xml version="1.0" encoding="utf-8"?>
<!-- Generator: Adobe Illustrator 14.0.0, SVG Export Plug-In . SVG Version: 6.00 Build 43363)  -->
<!DOCTYPE svg PUBLIC "-//W3C//DTD SVG 1.1//EN" "http://www.w3.org/Graphics/SVG/1.1/DTD/svg11.dtd">
<svg version="1.1" id="Layer_1" xmlns="http://www.w3.org/2000/svg" xmlns:xlink="http://www.w3.org/1999/xlink" x="0px" y="0px"
	 width="74px" height="135.521px" viewBox="55.152 101.732 74 135.521" enable-background="new 55.152 101.732 74 135.521"
	 xml:space="preserve">
<g>
	<path fill="#19171C" d="M81.616,138.013c0.489-0.075,0.302-1.23,0.062-1.496c-0.324-0.357-1.081-0.11-1.418,0.097
		c-0.196-0.366-0.266-0.896-0.579-1.194c-0.423-0.402-0.948-0.124-1.42-0.054c-0.244,0.036-0.51,0.052-0.773,0.034
		c-0.413-0.028-0.248-0.012-0.573,0.213c-0.587,0.408-0.643-0.205-0.978-0.531l0.082-0.245c-0.217,0.074-0.431-0.032-0.493,0.242
		c-0.032,0.143,0.164,0.403,0.217,0.532c0.192,0.466,0.131,0.869,0.651,0.827c0.434-0.035,0.753-0.425,1.165-0.328
		c0.354,0.083,0.664,0.436,0.98,0.515c0.137-0.253-0.02-0.662,0.161-0.861c0.225-0.245,0.479-0.079,0.632,0.123
		c0.399,0.523,0.126,1.24-0.203,1.732c-0.122,0.182-0.554,0.534-0.544,0.766c0.014,0.31,0.453,0.305,0.693,0.244
		c0.777-0.196,0.809-0.982,1.029-1.583c0.286-0.047,0.743-0.27,0.972-0.088C81.508,137.139,81.512,137.754,81.616,138.013"/>
	<path fill="#19171C" d="M82.139,131.646c0.462,0.38,0.759,0.916,0.946,1.479c0.203,0.61,0.284,1.243,0.316,1.875
		c0.029,0.573,0.129,1.448-0.092,1.957c-0.162,0.373-1.156,1.197-1.417,1.103l-0.164,0.122c0.055,0.143,0.026,0.318-0.035,0.441
		c0.509,0.048,0.943-0.542,1.34-0.812c0.452,0.23,0.303,0.549,0.244,0.981c-0.063,0.457-0.027,0.849,0.171,1.259
		c0.052,0.004,0.099,0.002,0.15,0.001c0.091-0.298-0.057-0.588-0.076-0.892c-0.023-0.383,0.039-0.717,0.204-1.062
		c0.292-0.612,0.507-1.015,0.54-1.702c0.056-1.167-0.315-2.407-0.734-3.484c-0.283-0.729-0.679-1.314-1.326-1.817
		c-0.27-0.209-0.705-0.506-1.049-0.497c-0.365,0.009-0.774,0.539-0.81,0.93C81.041,131.75,81.507,131.126,82.139,131.646"/>
	<path fill="#19171C" d="M74.602,129.949c0.63,0.474,0.48,0.059,0.97-0.256c0.572,0.761,1.6-0.918,1.916-1.223
		c0.389,0.382,0.409,1.436,0.138,1.883c0.931,0.113,0.368-1.098,0.88-1.19c0.373-0.067,0.75,1.094,0.252,1.319
		c0.361,0.438,0.638,0.512,0.921,0.005c0.264,0.162,0.402,0.477,0.593,0.705c0.056-0.065,0.151-0.191,0.197-0.271
		c-0.39-0.428-0.807-0.961-0.952-1.517c-0.08-0.306-0.045-0.674-0.328-0.878c-0.288-0.209-0.601-0.096-0.517,0.301
		c-0.195-0.386-0.671-0.609-0.816-1.007c-0.159-0.437,0.172-1.216-0.206-1.552c-1.049,0.465-0.562,2.322-1.666,2.896
		c0.044-0.38,0.757-1.983-0.081-2.07c-0.224,0.479-0.376,2.249-1.143,2.271c0.035-0.377,0.188-0.868,0.108-1.255
		c-0.685,0.884-1.064,2.018-1.338,3.056h0.164C74.341,130.976,74.191,130.311,74.602,129.949"/>
	<path fill="#19171C" d="M71.973,141.538c0.129,0.125,0.627,0.011,0.786-0.012c0.439-0.064,0.941-0.275,1.42-0.198
		c-0.033,0.392,0.453,0.619,0.69,0.269c0.207-0.305-0.036-0.729-0.326-0.878c-0.622-0.317-1.693-0.05-2.271,0.165
		c0.015,0.067,0.036-0.005,0.077-0.01l-0.164,0.163C71.998,141.096,71.785,141.355,71.973,141.538"/>
	<path fill="#19171C" d="M80.179,141.086c-0.261-0.083-1.316-0.209-1.387-0.009l-0.122,0.082c-0.211,0.011-0.744,0.321-0.656,0.613
		c0.114,0.375,0.718,0.075,0.94,0.039c0.703-0.115,1.509-0.219,2.156,0.038C80.991,141.464,80.54,141.2,80.179,141.086"/>
	<path fill="#19171C" d="M73.828,143.656c0.21-0.101,0.261-0.309,0.448-0.417c0.185-0.106,0.432,0.008,0.676-0.089
		c0.209-1.1-3.061-0.988-2.842,0.082c0.364,0.085,0.51-0.477,0.81-0.32l-0.041,0.123C72.547,143.577,73.434,143.844,73.828,143.656"
		/>
	<path fill="#19171C" d="M79.773,144.085c0.19-0.099,0.301-0.396,0.488-0.441c0.19-0.044,0.481,0.188,0.728,0.159
		c-0.049-0.541-0.777-0.99-1.258-1.054c-0.675-0.089-1.279,0.273-1.794,0.652l0.163,0.041c-0.025,0.019-0.078,0.023-0.108,0.041
		c0.261,0.103,0.541-0.071,0.795-0.116C78.819,143.975,79.051,144.46,79.773,144.085"/>
	<path fill="#19171C" d="M75.396,145.676c0.183-0.336-0.069-0.43-0.355-0.439c-0.857-0.027-0.706,0.684-0.214,1.111
		c0.492,0.428,0.896,0.675,1.56,0.642c0.437-0.021,1.249-0.118,1.5-0.58c0.129-0.238,0.021-0.64-0.112-0.849
		c-0.21-0.33-0.32-0.3-0.612-0.121v0.203c0.03,0.298,0.269,0.425-0.043,0.653c-0.199,0.146-0.577,0.189-0.813,0.246
		c-0.435,0.105-1.228-0.175-1.453-0.645C75.084,145.783,75.239,145.967,75.396,145.676"/>
	<path fill="#19171C" d="M74.063,149.06c0.496,0.362,1.187,0.478,1.792,0.5c0.697,0.025,1.371-0.194,1.959-0.561
		c0.284-0.177,0.588-0.346,0.611-0.704c0.021-0.314-0.188-0.548-0.169-0.891c-0.577,0.074-1.445,0.653-1.743,1.168
		c0.243-0.012,0.497-0.107,0.766-0.066c-0.14,0.824-1.737,0.438-2.187,0.187c-0.714-0.399-0.571-1.266-1.397-1.54l-0.122,0.123
		c-0.05,0.056-0.118,0.143-0.153,0.212C73.139,148.04,73.617,148.735,74.063,149.06"/>
	<path fill="#19171C" d="M86.366,116.726c0.185,0.944,0.249,1.84,0.556,2.779c0.251,0.77,0.531,1.694,0.993,2.387
		c0.456,0.684,1.096,1.289,1.604,1.919c0.844,1.047,1.764,2.32,2.853,3.129c0.624,0.463,1.442,0.925,2.176,1.194
		c0.707,0.26,1.677,0.221,2.162,0.884l0.034,0.011c-0.206,0.642-0.778,1.359-1,1.904c-0.276,0.678-0.891,1.536-0.874,2.264
		c0.396,0.058,0.779-0.094,1.188-0.101c0.24-0.004,0.46,0.021,0.684,0.04c0.12,1.288-0.07,2.683-0.135,3.984
		c-0.069,1.387,0.012,2.715,0.13,4.078c0.119,1.362,0.123,2.779,0.123,4.16c0,1.533-0.199,3.078-0.122,4.608
		c0.039,0.773,0.013,1.594,0.05,2.386c0.024,0.514,0.025,1.104,0.083,1.656c-0.249-0.104-0.593-0.053-0.812,0.092
		c-0.252,0.167-0.256,0.505-0.279,0.78c-0.025,0.285-0.093,0.727,0,0.999c0.067,0.197,0.198,0.221-0.021,0.383
		c-0.118,0.087-0.276,0.136-0.407,0.193c-0.219,0.098-0.599,0.282-0.688,0.53c-0.091,0.248,0.169,0.585,0.326,0.765
		c0.17,0.194,0.569,0.265,0.265,0.5c-0.275,0.212-0.392,0.343-0.376,0.734c0.011,0.281,0.222,0.532,0.513,0.587
		c0.172,0.032,0.342-0.064,0.272,0.167c-0.034,0.115-0.175,0.209-0.255,0.295c-0.228,0.242-0.321,0.48-0.012,0.694
		c0.314,0.217,0.465,0.2,0.465,0.637c0,0.317,0.037,0.582,0.22,0.84c0.414,0.588,1.288,0.238,1.819,0.098l0.041-0.143
		c-0.56-0.228-1.286,0.169-1.637-0.525c-0.196-0.388,0.084-0.519,0.434-0.535c0.321-0.015,0.654-0.042,0.957-0.124
		c0.099-0.026,0.413-0.103,0.246-0.224c-0.086-0.063-0.383,0.023-0.469,0.041c-0.325,0.066-0.628,0.012-0.943-0.036
		c-0.261-0.04-0.582-0.08-0.774-0.305c-0.216-0.252,0.031-0.557,0.269-0.704c0.234-0.146,0.576-0.247,0.835-0.302
		c0.289-0.062,0.702-0.015,0.962-0.161c0.415-0.234-0.434-0.157-0.552-0.144c-0.314,0.035-0.657,0.028-0.979,0
		c-0.252-0.021-0.632-0.078-0.83-0.25c-0.112-0.098-0.182-0.267-0.066-0.362c0.102-0.083,0.334-0.038,0.453-0.076
		c0.309-0.099,0.567-0.265,0.893-0.331c0.24-0.049,0.758-0.012,0.938-0.185c0.292-0.279-0.515-0.254-0.694-0.245
		c-0.312,0.016-0.631,0.125-0.941,0.046c-0.272-0.068-0.538-0.243-0.628-0.514c-0.123-0.373,0.114-0.549,0.448-0.652
		c0.434-0.133,1.248,0.118,1.547-0.323c-0.272-0.091-0.681,0.001-0.977,0.017c-0.066,0.003-0.155,0.046-0.225,0.02
		c-0.143-0.053-0.06-0.019-0.035-0.137c0.012-0.06,0.085-0.072,0.092-0.144c0.004-0.037-0.067-0.146-0.077-0.188
		c-0.072-0.291-0.052-0.656,0.036-0.923c0.088-0.266,0.199-0.735,0.5-0.342c0.12,0.157,0.155,0.318,0.157,0.509
		c0.003,0.189-0.051,0.326,0.163,0.347c0.289,0.028,0.383-0.126,0.385-0.315c0.03-0.034,0.06-0.082,0.086-0.153
		c0.081-0.223-0.131-0.667-0.165-0.897c-0.104-0.697-0.01-1.398,0.092-2.08c0.106-0.716,0.202-1.416,0.194-2.162
		c-0.008-0.734-0.174-1.44-0.243-2.161c-0.139-1.419-0.009-2.875-0.083-4.323c-0.073-1.444-0.049-2.932-0.122-4.404
		c-0.065-1.309-0.294-2.684-0.123-4.038c0.068-0.537,0.266-1.16,0.208-1.728c0.621-0.034,1.562-0.193,1.823-0.858
		c-0.536-0.523-0.912-0.898-1.022-1.642c-0.04-0.271-0.058-1.198-0.296-1.691c0.56-0.268,1.105-0.789,1.504-1.123
		c0.717-0.602,1.543-1.035,2.256-1.659c2.428-2.126,4.507-5.324,5.113-8.427c0.174-0.887,0.162-1.833,0.34-2.706
		c0.175-0.864,0.437-1.742,0.38-2.667c-0.091-1.494-0.628-3.464-1.317-4.838c-1.473-2.931-4.243-5.021-7.438-5.667
		c-1.804-0.365-3.646,0.022-5.317,0.678c-1.477,0.58-2.97,1.142-4.104,2.364c-1.114,1.2-1.638,2.732-2.285,4.19
		c-0.767,1.728-1.063,3.184-0.964,5.124C85.99,115.128,86.202,115.885,86.366,116.726 M98.075,132.499
		c-0.285,0.265-0.768,0.187-1.138,0.282c-0.02,0.075-0.055,0.127-0.076,0.201c-0.324-0.191-1.113-0.201-1.172-0.483
		c-0.059-0.287,0.495-0.95,0.627-1.209c0.379-0.747,0.484-1.438,0.63-2.192l0.082,0.028
		C96.978,130.077,97.885,132.14,98.075,132.499 M87.237,110.911c0.929-3.07,2.424-5.974,5.396-7.572
		c2.889-1.553,7.01-1.191,9.733,0.598c2.816,1.85,3.637,5.277,4.241,8.279c0.179,0.891,0.113,1.63-0.097,2.501
		c-0.196,0.813-0.189,1.667-0.351,2.489c-0.157,0.8-0.551,1.653-0.856,2.404c-0.328,0.804-0.566,1.718-0.939,2.49
		c-0.633,1.308-2.129,2.188-3.14,3.218c-0.601,0.612-1.19,1.16-1.891,1.646c-0.571,0.396-1.146,1.241-1.754,1.456l-0.163-0.108
		c-0.663-0.073-1.508-0.371-2.188-0.693c-1.453-0.688-2.689-1.45-3.778-2.637c-1.191-1.297-2.339-2.237-3.06-3.848
		c-0.344-0.768-0.667-1.461-0.874-2.284c-0.203-0.809-0.164-1.724-0.321-2.557C86.904,114.751,86.774,112.44,87.237,110.911"/>
	<path fill="#19171C" d="M66.83,164.011c0.18-0.008,0.458-0.207,0.626-0.278c0.438-0.188,0.783-0.328,1.25-0.375
		c0.433-0.044,0.924-0.099,1.338-0.033c0.458,0.072,0.921,0.207,1.381,0.306c0.944,0.203,1.958,0.168,2.936,0.217
		c0.942,0.046,1.897,0.009,2.828,0.054c0.254,0.013,0.512,0,0.767,0c0.295,0,0.351-0.006,0.545,0.184
		c0.34,0.332,0.564,0.444,1,0.611c0.393,0.151,0.775,0.289,1.163,0.463c0.195,0.088,0.87,0.525,1.067,0.456
		c0.155-0.056,0.204-0.397,0.109-0.519c-0.063-0.081-0.417-0.17-0.523-0.21c-0.395-0.15-0.779-0.328-1.165-0.516
		c-0.381-0.187-0.783-0.287-1.167-0.449c-0.447-0.189-0.727-0.487-1.225-0.536c-0.915-0.091-1.887-0.113-2.8-0.158
		c-1.004-0.049-2.04-0.038-3.045-0.061c-0.868-0.019-1.536-0.64-2.441-0.456c-0.437,0.09-0.902,0.168-1.367,0.239
		c-0.507,0.077-0.768,0.256-1.195,0.511c-0.085,0.051-0.156,0.1-0.245,0.142l-0.136,0.027
		C66.584,163.812,66.55,164.023,66.83,164.011"/>
	<path fill="#19171C" d="M75.532,188.102c0.792-0.339,1.788-0.25,2.642-0.377c0.461-0.067,0.868-0.273,1.305-0.436
		c0.438-0.161,0.865-0.244,1.299-0.405c0.751-0.278,1.61-0.777,2.168-1.347c0.31-0.315,0.281-0.821-0.271-0.599
		c-0.335,0.136-0.614,0.464-0.951,0.625c-0.78,0.372-1.404,0.89-2.251,1.095c-0.879,0.213-1.753,0.257-2.637,0.436
		c-0.419,0.084-0.868,0.202-1.305,0.245c-0.47,0.047-0.948-0.086-1.414-0.109c-0.458-0.023-0.874,0.14-1.332,0.163
		c-0.445,0.023-0.896-0.062-1.332,0c-0.346,0.05-0.729,0.134-1.087,0.109l-0.299,0.054c-0.306,0.842,1.646,0.707,2.148,0.707
		c0.481,0,0.988-0.045,1.468,0c0.549,0.052,0.568,0.422,0.68,0.87c0.105,0.42,0.339,0.76,0.516,1.141
		c0.182,0.389,0.25,0.874,0.272,1.307c0.034,0.678-0.193,2.471,1.008,1.637c0.688-0.478,1.059-1.519,1.167-2.301
		c0.069-0.501-0.233-0.763-0.272-1.212c-0.021-0.226,0.129-0.47,0.11-0.679c-0.021-0.226-0.281-0.387-0.485-0.186
		c-0.167,0.164-0.182,0.905-0.141,1.136c0.07,0.393,0.309,0.692,0.299,1.115c-0.01,0.407-0.259,0.7-0.461,1.031
		c-0.169,0.275-0.335,0.65-0.648,0.786c-0.053-0.909,0.133-1.74-0.243-2.585C75.194,189.673,74.608,188.495,75.532,188.102"/>
	<path fill="#19171C" d="M77.528,218.101c0.291-0.103,2.703,0.325,2.053-0.447c-1.002-0.235-2.321,0.066-3.002,0.912
		c-0.696,0.864-1.133,2.165,0.441,1.872c-0.179,0.423,0.188,1.118,0.552,0.59c0.105-0.152-0.021-0.581,0.05-0.765
		c0.093-0.24,0.226-0.307,0.397-0.474c0.133-0.13,0.727-0.552,0.696-0.774c-0.065-0.469-0.66,0.149-0.807,0.283
		c-0.375,0.343-1.619,1.571-1.523,0.434C76.429,219.209,76.97,218.296,77.528,218.101"/>
	<path fill="#19171C" d="M96.515,221.003c-0.183-0.074-0.445-0.032-0.647-0.032c-0.801,0-1.768,0.037-2.346-0.592
		c-0.273-0.298-0.535-0.605-0.897-0.788c-0.373-0.189-0.712-0.369-0.965-0.715c-0.176-0.24-0.517-0.844-0.279-1.087
		c0.121-0.124,1.092-0.457,0.463-0.626c-0.387-0.104-0.878,0.097-1.251,0.137c-0.44,0.048-0.918,0.099-1.36,0.163
		c-0.211,0.031-0.39,0.116-0.598,0.157s-0.43,0.026-0.625,0.088c-0.381,0.119-0.805,0.577-1.062,0.869
		c-0.129,0.146-0.196,0.311-0.381,0.402c-0.182,0.091-0.401,0.099-0.591,0.148c-0.373,0.098-0.766,0.216-1.154,0.313
		c-0.436,0.11-0.846,0.184-1.271,0.326c-0.424,0.143-0.845,0.188-1.246,0.394c-0.693,0.357-1.215,0.992-1.909,1.333
		c-0.307,0.15-1.003,0.194-1.257-0.087c-0.404-0.446,0.438-0.692,0.28-1.146c-0.177-0.507-0.662,0.233-0.755,0.415
		c-0.191,0.37-0.361,0.802-0.063,1.163l0.028,0.081c0.274,0.122,0.403,0.263,0.733,0.245c0.063-0.004,0.122-0.009,0.182-0.015
		c-0.235,0.35-0.339,1.153-0.388,1.386c-0.119,0.572-0.309,1.124-0.62,1.623c-0.453,0.727-0.979,0.394-1.662,0.53
		c-0.661,0.132-1.113-0.029-1.457-0.654c-0.307-0.558-0.348-1.15-0.419-1.783c-0.069-0.613-0.282-1.201-0.376-1.825
		c-0.089-0.59-0.287-1.195-0.317-1.804c-0.032-0.646,0.1-1.236,0.04-1.875c-0.047-0.493,0.019-1.036-0.096-1.513
		c0.361-0.375,0.714-0.76,1.065-1.149c0.815-0.906,1.238-2.212,1.347-3.375c0.063-0.666,0.121-1.347,0.05-2.039
		c-0.021-0.203,0.021-0.817-0.236-0.807c-0.308,0.014-0.284,0.575-0.295,0.766c-0.035,0.671,0.107,1.278,0.041,1.958
		c-0.06,0.606-0.173,1.209-0.417,1.785c-0.483,1.139-1.339,1.945-2.243,2.771c-0.849,0.776-1.615,1.819-2.284,2.734
		c-0.666,0.909-2.433,0.88-3.345,0.306c-0.4-0.252-0.913-0.731-1.211-1.11c-0.453-0.576-0.117-1.202,0.04-1.796
		c0.333-1.259,0.926-2.363,1.508-3.552c0.406-0.826,0.543-1.628,0.327-2.485l-0.041-0.081c-0.11-0.388-0.494-0.188-0.571,0.081
		c-0.095,0.33,0.124,0.625,0.123,0.938c-0.001,0.499-0.3,1.199-0.519,1.643c-0.525,1.063-0.911,2.117-1.317,3.211
		c-0.174,0.469-0.484,1.091-0.415,1.628c-0.095,0.113-0.058,0.324-0.074,0.492c-0.055,0.54-0.099,1.065-0.204,1.591
		c-0.107,0.531-0.292,1.04-0.512,1.538c-0.017-0.014-0.035-0.027-0.051-0.04c-0.482-0.375-1.349-0.819-1.966-0.805l-0.408,0.041
		c-0.071,0.104-0.106,0.242-0.117,0.359c0.242,0.196,0.608,0.125,0.892,0.18c0.283,0.056,0.518,0.17,0.766,0.328
		c0.214,0.137,0.441,0.27,0.667,0.405c-0.235,0.487-0.491,0.971-0.729,1.462c-0.526,1.093-1.238,2.1-1.601,3.262
		c-0.206,0.658-0.093,1.201,0.151,1.835c0.218,0.563,0.367,1.146,0.622,1.671c0.48,0.988,1.42,1.715,2.416,2.151
		c1.097,0.481,2.701,0.356,3.785-0.102c0.514-0.218,0.967-0.429,1.396-0.816c0.213-0.192,0.902-1.379,0.323-1.389
		c-0.375,0.677-0.776,1.145-1.465,1.512c-1.051,0.561-2.312,0.783-3.477,0.389c-1.069-0.362-2.173-1.274-2.537-2.348
		c-0.171-0.504-0.542-0.991-0.643-1.517c-0.043-0.224-0.185-0.883,0.173-0.705c0.209,0.104,0.277,0.566,0.345,0.754
		c0.225,0.615,0.391,1.262,0.899,1.715c0.421,0.375,1.051,0.72,1.313,0.029c0.213-0.563,0.326-1.169,0.826-1.621
		c0.461-0.417,1.074-0.427,1.662-0.459c0.603-0.032,1.287,0.05,1.794,0.327c0.454,0.247,0.719,1.125,1.258,1.013
		c0.024-1.211-0.996-1.386-1.942-1.634c-0.475-0.125-0.962-0.212-1.468-0.104c-0.426,0.091-1.057,0.142-1.439,0.389
		c-0.179,0.116-0.323,0.268-0.445,0.436c0.049-0.426-0.444-1.162-0.538-1.431c-0.24-0.683-0.505-1.388-0.713-2.066l-0.136-0.081
		c-0.166,0.285,0.1,0.623,0.212,0.897c0.131,0.322,0.262,0.688,0.331,1.032c0.11,0.554,0.203,1.524,0.681,1.905
		c0,0,0-0.001,0.001-0.001c-0.121,0.211-0.221,0.432-0.317,0.634c-0.366,0.769-0.83,0.479-1.039-0.205
		c-0.183-0.601-0.223-1.235-0.592-1.802c-0.399-0.611-0.677-0.794-0.327-1.5c0.247-0.496,0.543-0.932,0.836-1.408
		c0.327-0.531,0.335-1.15,0.673-1.659c0.06-0.091,0.132-0.173,0.211-0.251c0.121,0.081,0.238,0.163,0.35,0.25
		c0.183,0.143,0.4,0.519,0.579,0.603c0.418,0.192,0.191-0.32,0.03-0.514c-0.171-0.206-0.388-0.413-0.616-0.61
		c0.732-0.471,1.823-0.657,2.534-0.703c1.417-0.09,2.005,1.28,1.726,2.512c-0.253,0.01-0.501,0.029-0.707,0.018
		c-0.491-0.03-0.486-0.05-0.406-0.447c0.056-0.281,0.137-0.611,0.04-0.9c-0.542-1.627-1.86,0.881-2.162,1.103l0.163,0.245
		c0.5-0.028,0.515-0.481,0.786-0.848c0.174-0.235,0.626-0.762,0.847-0.378c0.313,0.543-0.266,0.779-0.563,0.951
		c-0.167,0.096-0.287,0.308-0.457,0.357c-0.219,0.063-0.466-0.089-0.688-0.076c-0.226,0.388,0.49,0.543,0.727,0.564
		c0.47,0.044,0.719-0.165,1.134-0.255c0.253-0.055,0.718,0.02,1.177,0.068c-0.153,0.497-0.33,0.967-0.312,1.531
		c0.008,0.251,0.355,1.615,0.809,1.173c-0.12-0.185-0.283-0.417-0.33-0.642c-0.123-0.59,0.161-1.247,0.306-1.785
		c0.021-0.079,0.036-0.16,0.049-0.243c0.326,0.004,0.6-0.044,0.72-0.216c-0.172-0.149-0.418-0.205-0.685-0.221
		c0.01-0.401-0.02-0.822,0.02-1.215c0.063-0.61,0.156-1.221,0.416-1.787c0.148-0.321,0.544-0.785,0.665-1.178
		c0.096-0.136,0.179-0.318,0.274-0.572c0.222-0.593,0.633-0.902,1.1-1.306c0.337-0.29,0.658-0.592,0.97-0.9
		c0.134,0.401-0.001,1.376,0.009,1.592c0.037,0.683,0.107,1.341,0.206,1.999c0.19,1.271,0.426,2.551,0.57,3.833
		c0.049,0.443,0.152,1.205,0.47,1.571c-0.146,0.253-0.416,0.526-0.546,0.72c-0.238,0.354-0.343,0.738-0.359,1.162
		c-0.018,0.471-0.031,0.921-0.055,1.386c-0.025,0.508-0.16,0.815-0.327,1.279c-0.3,0.834-0.431,1.744-0.516,2.609
		c-0.043,0.437-0.163,0.846-0.163,1.278c0,0.47,0.273,0.669,0.563,1.012c0.28,0.329,0.485,0.61,0.872,0.789
		c0.344,0.159,0.747,0.297,1.126,0.409c0.832,0.246,1.735,0.329,2.579,0.563c0.8,0.222,1.641,0.486,2.5,0.379
		c0.77-0.095,1.67-0.351,2.373-0.725c0.376-0.2,0.82-0.394,0.863-0.851c0.04-0.424-0.01-0.912-0.156-1.285
		c-0.269-0.681-0.765-1.232-1.366-1.658c-0.364-0.258-0.74-0.299-1.144-0.427c-0.166-0.054-0.401-0.103-0.461-0.273
		c-0.061-0.175,0.055-0.444,0.055-0.625c0-0.23-0.084-0.329-0.157-0.522c-0.057-0.151-0.044-0.443-0.175-0.565
		c-0.017-0.016-0.032-0.025-0.047-0.036c0.069-0.049,0.135-0.098,0.195-0.147c0.309-0.249,0.712-0.35,1.08-0.441
		c0.196-0.048,0.459-0.038,0.308-0.279c-0.124-0.196-0.413-0.156-0.606-0.156c-0.476,0-0.839,0.141-1.225,0.43
		c-0.005,0.005-0.011,0.009-0.017,0.013c0.146-0.48,0.059-1.07,0.431-1.501c0.28-0.324,0.623-0.606,0.98-0.837
		c0.227-0.147,1.146-0.445,0.482-0.709c-0.756-0.299-1.789,0.934-2.127,1.457c-0.285,0.439-0.651,0.098-0.971-0.156
		c-0.323-0.258-0.78-0.454-1.197-0.308c-0.345,0.121-0.595,0.442-0.923,0.599c-0.4,0.189-0.85,0.145-1.225,0.387
		c-0.247,0.161-0.378,0.444-0.544,0.671c0.001-0.022,0.006-0.051,0.001-0.072l-0.027,0.244c0.056,0.148,0.36,0.23,0.496,0.17
		c0.172-0.076,0.215-0.29,0.292-0.441c0.214-0.415,0.623-0.416,1.033-0.49c0.378-0.067,0.635-0.392,1.005-0.483
		c0.528-0.13,0.9,0.099,1.232,0.478c0.251,0.287,0.375,0.815,0.216,1.181c-0.163,0.376-0.662,0.333-1.039,0.314
		c-0.358-0.018-1.065-0.196-1.387,0.014c-0.525,0.341,0.007,0.807,0.36,0.964c0.36,0.162,0.895,0.303,1.278,0.15
		c0.203-0.08,0.357-0.267,0.544-0.354c0.208-0.097,0.415-0.136,0.62-0.245c0.164-0.089,0.336-0.188,0.5-0.293
		c-0.036,0.237,0.013,0.608,0.037,0.7c0.083,0.313,0.094,1-0.178,1.169c-0.157,0.097-0.429,0.079-0.605,0.136
		c-0.175,0.057-0.359,0.192-0.542,0.213c-0.233,0.024-0.345-0.096-0.545-0.172c-0.211-0.08-0.453-0.089-0.68-0.102
		c-0.239-0.014-0.426,0.043-0.652-0.021c-0.184-0.052-0.363-0.16-0.542-0.226c-0.344-0.125-0.672-0.242-1-0.413
		c-0.147-0.076-0.373-0.143-0.489-0.272c-0.125-0.138-0.161-0.333-0.286-0.481c-0.105-0.126-0.336-0.231-0.409-0.375
		c-0.084-0.168-0.013-0.506,0.069-0.658c0.215-0.4,0.425-0.602,0.374-1.116c-0.059-0.591-0.366-1.191-0.034-1.766
		c0.135-0.234,0.29-0.471,0.435-0.688c0.107-0.16,0.266-0.25,0.41-0.358c0.424,0.143,0.939,0.181,1.31,0.161
		c0.589-0.03,1.379,0.054,1.796-0.408c0.054-0.059,0.102-0.12,0.146-0.181c0.237,0.261,0.213,0.909,0.239,1.173
		c0.023,0.238,0.157,1.155,0.564,1.109c0.345-0.038-0.118-0.855-0.161-1.055c-0.095-0.443-0.05-0.936-0.139-1.378
		c-0.038-0.189-0.056-0.428-0.142-0.611c0.076-0.237,0.141-0.48,0.235-0.728c0.25-0.659,0.339-1.239,0.313-1.967
		c0.129-0.027,0.257-0.065,0.39-0.122c0.705-0.3,1.258-0.822,1.953-1.141c0.688-0.315,1.366-0.571,2.07-0.817
		c0.744-0.26,1.513-0.523,2.278-0.741c0.779-0.222,1.248-1.073,2.006-1.283c0.59-0.163,1.866-0.606,2.229,0.149
		c0.167,0.35,0.327,0.651,0.598,0.951c0.264,0.292,0.586,0.395,0.882,0.611c0.633,0.463,0.979,1.256,1.816,1.42
		c0.427,0.084,0.854,0.082,1.306,0.082C95.606,221.215,96.613,221.349,96.515,221.003 M70.393,220.564
		c-0.071,0.184-0.245,0.704-0.482,0.686c-0.093-0.008-0.536-0.396-0.692-0.451c-0.613-0.209-1.051-0.33-1.753-0.186
		c-0.496,0.103-1.083,0.575-1.594,0.556c0.125-0.516,0.04-1.135,0.118-1.665c0.046-0.313,0.267-0.677,0.392-1.007
		c0.212,0.207,0.444,0.402,0.598,0.547c1.043,0.991,2.177,0.911,3.495,0.785c0.104-0.011,0.198-0.021,0.283-0.034
		C70.614,220.021,70.508,220.265,70.393,220.564 M78.167,230.896c-0.352,0.052-0.721-0.108-0.839-0.485
		c0.452-0.025,0.844,0.178,1.3,0.186c0.157,0.002,0.313-0.013,0.465-0.043C78.807,230.718,78.504,230.845,78.167,230.896
		 M78.501,233.942c0.233-0.314,0.422-0.71,0.76-0.947c0.286-0.201,0.819-0.308,1.163-0.359c0.071-0.011,0.23-0.027,0.245-0.027
		l0.245,0.027c0.223-0.02,0.353,0.096,0.544,0.162c0.191,0.065,0.361,0.056,0.55,0.157c0.33,0.176,0.548,0.487,0.727,0.795
		c0.352,0.606,1.041,1.664,0.108,2.06c-0.38,0.161-0.785,0.229-1.147,0.435c-0.368,0.21-0.669,0.529-1.083,0.604
		c-0.434,0.077-0.793,0.012-1.174-0.182c-0.377-0.193-0.771-0.231-1.034-0.578c-0.257-0.338-0.462-0.574-0.402-1.034
		C78.065,234.593,78.232,234.305,78.501,233.942 M75.095,231.948c0.311,0.162,0.653,0.267,0.972,0.421
		c0.329,0.159,0.622,0.435,0.958,0.536c0.385,0.116,0.66-0.109,1.056-0.076c0.089,0.188-0.05,0.453-0.076,0.622
		c-0.022,0.146,0.044,0.408-0.13,0.512c-0.191-0.313-0.426,0.01-0.599,0.147c-0.205,0.162-0.449,0.207-0.712,0.209
		c-0.506,0.006-1.065-0.231-1.496-0.495c-0.138-0.084-0.999-0.727-0.844-0.211c0.066,0.219,0.816,0.443,1.036,0.564
		c0.393,0.217,0.811,0.357,1.223,0.558c0.222,0.107,0.343,0.199,0.596,0.129c0.199-0.057,0.371-0.214,0.568-0.241
		c0.007,0.317-0.077,0.624-0.049,0.947c0.031,0.352,0.116,0.485,0.306,0.785c-0.854-0.369-1.902-0.35-2.803-0.683
		c-0.431-0.159-0.801-0.303-1.115-0.675c-0.308-0.365-0.273-0.73-0.251-1.195c0.022-0.46,0.135-0.864,0.218-1.305
		c0.076-0.404,0.053-0.844,0.299-1.196l0.109,0.027C74.634,231.443,74.811,231.8,75.095,231.948"/>
	<path fill="#19171C" d="M110.049,231.315c-0.284-0.188-0.588-0.207-0.526-0.659c0.037-0.279,0.313-0.543,0.49-0.754
		c0.271-0.323,0.57-0.309,0.959-0.346c0.627-0.062,1.201-0.353,1.677-0.795c0.25-0.233,0.477-0.485,0.693-0.75
		c0.164-0.2,0.46-0.445,0.485-0.719c0.021-0.215-0.113-0.244-0.307-0.225l-0.163,0.082c-0.194,0.176-0.345,0.455-0.53,0.657
		c-0.191,0.207-0.362,0.429-0.565,0.633c-0.499,0.498-0.924,0.562-1.597,0.627c-0.583,0.057-1.318,0.492-1.549,1.061
		c-0.215,0.529-0.169,1.467,0.551,1.545C109.926,231.7,110.448,231.579,110.049,231.315"/>
	<path fill="#19171C" d="M111.195,230.392c-0.438,0.03-0.817,0.427-0.958,0.837c-0.089,0.259-0.043,0.614,0.146,0.83
		c0.077,0.089,0.261,0.209,0.383,0.168c0.195-0.064,0.059-0.196-0.004-0.321c-0.146-0.291-0.03-0.604,0.202-0.826
		c0.257-0.245,0.481-0.24,0.312-0.646L111.195,230.392z"/>
	<path fill="#19171C" d="M117.129,228.866c0.169-0.011,0.308,0.082,0.469,0.098c0.179,0.018,0.34-0.03,0.51-0.041
		c0.322-0.02,0.671,0.016,0.694,0.367c0.043,0.691,0.014,1.351-0.062,2.023c-0.041,0.373-0.178,0.608-0.412,0.909
		c-0.206,0.264-0.415,0.354-0.704,0.498c-0.356,0.179-0.725,0.314-0.876,0.729c-0.14,0.381-0.248,0.811-0.227,1.221
		c0.264,0.052,0.608-0.24,0.854-0.328c0.477-0.172,0.026-0.387,0.04-0.729c0.015-0.373,0.405-0.587,0.714-0.709
		c0.335-0.133,0.594-0.329,0.861-0.571c0.329-0.295,0.419-0.55,0.463-0.983c0.035-0.35,0.09-0.683,0.103-1.036
		c0.021-0.563-0.082-1.493-0.733-1.671c-0.575-0.158-1.245,0.173-1.795-0.147c-0.18-0.105-0.566-0.29-0.632-0.489
		c-0.078-0.234,0.158-0.625-0.241-0.677c-0.009-0.157,0.039-0.327-0.091-0.44c-0.093-0.082-0.395-0.111-0.505-0.046
		c-0.151,0.09-0.088,0.294-0.08,0.448c0.009,0.184-0.037,0.219-0.104,0.311c-0.106-0.141-0.346-0.279-0.442-0.377
		c-0.456-0.461-0.664-1.174-0.948-1.743c-0.334-0.67-0.371-1.322-0.544-2.025c-0.072-0.29-0.062-0.769-0.22-1.023
		c-0.131-0.211-0.236-0.196-0.434-0.198c-0.161-0.001-0.272-0.046-0.322-0.209c-0.098-0.319,0.197-0.71,0.337-0.974
		c0.161-0.305,0.271-0.62,0.271-0.959c0.001-0.636-0.159-1.31-0.366-1.897c-0.09-0.255-0.216-0.521-0.362-0.737
		c-0.214-0.313-0.468-0.108-0.699,0.086l0.062,0.163c0.002,0.015,0.007,0.028,0.015,0.041c0.315,0.715,0.646,1.364,0.715,2.141
		c0.033,0.377-0.032,0.731-0.163,1.082c-0.113,0.302-0.418,0.656-0.338,0.993c0.021,0.09,0.063,0.176,0.116,0.261
		c-0.254-0.169-0.512-0.321-0.758-0.516c-0.52-0.41-1.063-0.584-1.688-0.678c-0.325-0.048-0.644-0.132-0.958-0.245
		c-0.303-0.109-0.457-0.354-0.795-0.285c-0.603,0.121-1.156,0.596-1.733,0.829c-0.65,0.264-1.293,0.426-1.963,0.594
		c-0.316,0.078-0.658,0.054-0.97,0.131c-0.304,0.075-0.655,0.066-0.982,0.035c-0.382-0.037-1.279-0.408-1.719-0.191
		c0.029-0.122,0.064-0.242,0.107-0.357c0.123-0.328,0.098-0.599,0.353-0.873c0.2-0.216,0.374-0.4,0.52-0.657
		c0.322-0.565,0.24-1.273,0.371-1.897c0.019-0.09,0.141-0.373,0.059-0.469c-0.121-0.142-0.282,0.093-0.348,0.18
		c-0.183,0.241-0.291,0.581-0.302,0.881c-0.012,0.335,0.089,0.655,0,0.979c-0.083,0.307-0.235,0.608-0.483,0.819
		c-0.251,0.213-0.378,0.385-0.562,0.659c-0.195,0.294-0.197,0.522-0.198,0.886c0,0.355,0.035,0.701,0.065,1.057
		c0.027,0.318,0.13,0.633,0.118,0.962c-0.012,0.337-0.185,0.525-0.372,0.79c-0.081,0.114-0.118,0.289-0.214,0.378
		c-0.112,0.103-0.285,0.077-0.418,0.112c-0.13,0.034-0.341,0.209-0.464,0.209c-0.191,0.001-0.072-0.171-0.006-0.291
		c0.109-0.195,0.149-0.217-0.052-0.346c-0.157-0.102-0.259-0.092-0.431-0.076c-0.797,0.072-0.352-0.987-0.189-1.352
		c0.145-0.326-0.231-0.432-0.44-0.194c-0.202,0.23-0.234,0.598-0.248,0.893c-0.01,0.193-0.011,0.398,0.044,0.581
		c0.03,0.102,0.181,0.287,0.176,0.382c-0.019,0.333-0.618,0.155-0.757-0.02c-0.18-0.229-0.299-0.579-0.366-0.862
		c-0.091-0.383,0.028-0.618,0.333-0.851c0.084-0.064,0.276-0.186,0.244-0.312c-0.036-0.143-0.271-0.148-0.368-0.122
		c-0.282,0.079-0.614,0.364-0.759,0.612c-0.193,0.33-0.177,0.632-0.077,0.978c0.042,0.145,0.05,0.351-0.184,0.287
		c-0.127-0.035-0.195-0.246-0.226-0.367c-0.041-0.165-0.022-0.332-0.04-0.511c-0.023-0.239-0.12-0.212-0.229-0.383
		c-0.217-0.336,0.078-0.554,0.326-0.682c0.556-0.286,0.981-0.706,1.27-1.26c0.63-1.207,0.716-2.559,0.138-3.808
		c-0.05-0.108-0.106-0.31-0.198-0.352l-0.143-0.144c-0.377-0.241-0.474,0.291-0.367,0.53c0.122,0.276,0.276,0.55,0.372,0.836
		c0.103,0.308,0.076,0.66,0.076,0.999c0,0.329,0.047,0.695,0.001,1.021c-0.088,0.617-0.56,1.15-1.004,1.589
		c-0.436,0.429-1.083,0.734-1.057,1.429c0.012,0.306,0.16,0.589,0.249,0.871c0.081,0.256,0.16,0.596,0.444,0.72
		c0.333,0.144,0.662-0.085,0.979-0.042c0.298,0.041,0.345,0.426,0.615,0.547c0.153,0.069,0.32,0.006,0.47-0.031
		c0.19-0.047,0.25-0.016,0.428,0.031c0.314,0.084,0.631-0.081,0.953-0.098c0.315-0.016,0.528-0.196,0.816-0.265
		c0.338-0.079,0.483-0.22,0.678-0.51c0.155-0.232,0.565-0.427,0.546-0.734c-0.009-0.139-0.086-0.278-0.103-0.428
		c-0.02-0.178-0.042-0.305-0.103-0.47c-0.127-0.349-0.154-0.728-0.11-1.097c0.155,0.066,0.391,0.108,0.518,0.14
		c1.343,0.33,2.863,0.37,4.176-0.1c0.054,0.261,0.222,0.552,0.326,0.752c0.737,1.393,2.212,2.063,3.651,2.554
		c0.342,0.117,0.695,0.27,1.045,0.321c0.355,0.053,0.741,0.017,1.105,0.021c0.456,0.005,0.914,0.058,1.363,0.126
		c0.24,0.038,0.577,0.161,0.844,0.126c0.26,0.482,0.696,0.833,1.107,1.216c0.15,0.142,0.5,0.54,0.739,0.466
		c0.092,0.154,0.527,0.108,0.464,0.391c-0.069,0.306-0.481,0.462-0.663,0.678c-0.067,0.08-0.135,0.195-0.124,0.298
		c0.234,0.026,0.538-0.355,0.73-0.471c0.112-0.067,0.35-0.22,0.409-0.017c0.037,0.127-0.171,0.332-0.24,0.43
		c-0.365,0.515-0.866,0.938-1.265,1.432c-0.365,0.453-0.775,1.031-1.271,1.336c-0.261,0.161-1.08,0.485-1.182-0.056l-0.061-0.062
		c0.045-0.253,0.413-0.584,0.199-0.852c-0.254-0.317-0.532,0.262-0.633,0.443c-0.144,0.261-0.282,0.57-0.133,0.852
		c0.147,0.274,0.456,0.468,0.75,0.515c0.706,0.114,1.331-0.448,1.81-0.902c0.5-0.474,0.99-1.012,1.438-1.52
		c0.29-0.329,0.623-0.586,0.907-0.923C116.611,229.24,116.829,228.887,117.129,228.866 M112.949,225.824
		c-0.314-0.032-0.64-0.03-0.958-0.065c-1.359-0.152-2.671-0.523-3.937-1.093c-0.599-0.269-1.172-0.506-1.468-1.128
		c-0.15-0.313-0.242-0.63-0.331-0.952c-0.065-0.237-0.182-0.473-0.268-0.715c0.336-0.189,0.671-0.384,1.027-0.508
		c0.645-0.226,1.314-0.245,1.997-0.148c0.695,0.1,1.355,0.314,1.979,0.657c0.3,0.165,0.605,0.298,0.832,0.567
		c0.137,0.163,0.276,0.56,0.47,0.629c0.037-0.125,0.066-0.313,0.052-0.462c0.023,0.027,0.047,0.056,0.069,0.082
		c0.239,0.288,0.305,0.573,0.372,0.932c0.141,0.732,0.304,1.436,0.494,2.163c0.004,0.015,0.01,0.027,0.015,0.042
		C113.179,225.82,113.052,225.834,112.949,225.824"/>
	<path fill="#19171C" d="M119.046,233.659c0.272-0.313-0.104-0.346-0.225-0.433l-0.184-0.042c-0.13,0.209-0.396,0.354-0.516,0.588
		c-0.14,0.275-0.1,0.659,0.088,0.922c0.181,0.254,0.516,0.272,0.75,0.056c0.099-0.09,0.193-0.242,0.143-0.382
		c-0.082-0.226-0.214-0.055-0.379-0.064C118.558,233.997,118.882,233.849,119.046,233.659"/>
	<path fill="#19171C" d="M117.338,235.404c-0.259-0.112-0.447-0.308-0.719-0.384h-0.143c-0.178,0.385,0.934,1.195,1.249,0.902
		C118.031,235.639,117.527,235.485,117.338,235.404"/>
	<path fill="#19171C" d="M119.677,233.287l-0.081,0.021c-0.473,0.178-0.061,0.868,0.199,0.709c0.031-0.02,0.31-0.399,0.312-0.423
		C120.116,233.432,119.774,233.328,119.677,233.287"/>
	<path fill="#19171C" d="M129.139,212.672c-0.04-0.729-0.16-1.414-0.301-2.121c-0.109-0.541-0.383-1.313-0.882-1.615
		c-0.298-0.181-0.584-0.209-0.918-0.139c-0.394,0.082-0.505,0.226-0.468,0.61c0.062,0.635,0.486,1.197,0.59,1.836
		c0.203,1.254-0.828,2.492-1.777,3.218c-0.5,0.382-1.056,0.761-1.644,0.968c-0.308,0.108-0.634,0.132-0.962,0.18
		c-0.202,0.029-0.588,0.023-0.821-0.088c-0.242-0.52-0.579-0.968-0.934-1.443c-0.411-0.549-0.657-1.197-1.104-1.729
		c-0.429-0.507-1.194-0.867-1.791-1.129c-0.662-0.294-1.319-0.483-2.001-0.695c-0.672-0.209-1.414-0.508-2.03-0.846
		c-0.331-0.183-0.649-0.375-0.943-0.611c-0.271-0.22-0.49-0.499-0.791-0.683c-1.173-0.716-2.602-1.245-3.904-1.442
		c-0.44-0.067-0.869-0.157-1.307-0.221c-0.205-0.03-0.41-0.072-0.61-0.122c-0.163-0.042-0.437-0.154-0.587-0.086l-0.103,0.068
		c-0.123-0.044-0.33-0.047-0.445-0.113c0.046-0.176,0.069-0.365,0.124-0.546c0.094-0.315,0.191-0.637,0.276-0.943
		c0.073-0.265,0.056-0.652,0.276-0.847c0.211-0.187,0.559-0.22,0.805-0.356c0.229-0.127,0.442-0.323,0.632-0.511
		c0.458-0.451,0.93-0.879,1.244-1.443c0.323-0.579,0.433-1.187,0.652-1.803c0.21-0.593,0.399-1.278,0.229-1.908
		c-0.065-0.244-0.19-0.5-0.393-0.688c-0.286-0.265-0.519-0.063-0.79,0.138c-0.276,0.204-0.572,0.389-0.739,0.693
		c-0.151,0.275-0.199,0.586-0.367,0.853c-0.327,0.519-0.962,0.789-1.545,0.82c-0.334,0.017-0.646-0.071-0.938-0.205
		c-0.244-0.111-0.452-0.297-0.713-0.366c-0.293-0.077-0.637-0.056-0.897,0.076c-0.247,0.124-0.436,0.366-0.681,0.487
		c-0.093-0.055-0.244-0.096-0.318-0.151c-0.12-0.09-0.224-0.203-0.343-0.296c-0.219-0.172-0.465-0.331-0.718-0.443
		c-0.272-0.121-0.611-0.081-0.861-0.218c-0.122-0.066-0.212-0.188-0.337-0.256c-0.162-0.088-0.22-0.08-0.209-0.302
		c0.014-0.308,0.143-0.58,0.143-0.917c0-0.33,0.007-0.679-0.04-0.999c-0.091-0.621-0.448-1.122-0.944-1.524
		c-0.494-0.402-0.852-0.708-1.035-1.33c-0.083-0.283-0.07-0.646-0.218-0.919c-0.127-0.234-0.349-0.462-0.521-0.667
		c-0.272-0.323-0.425-0.379-0.812-0.209c-0.323,0.143-0.584,0.301-0.855,0.531c-0.513,0.434-0.885,1.063-0.814,1.752
		c0.068,0.686,0.075,1.323,0.407,1.938c0.138,0.255,0.283,0.494,0.453,0.732c0.157,0.221,0.473,0.457,0.44,0.751
		c-0.071,0.627-0.99,0.694-1.285,1.163c-0.091,0.143-0.11,0.314-0.158,0.474c-0.05,0.166-0.131,0.252-0.24,0.394
		c-0.201,0.257-0.371,0.528-0.572,0.79c-0.386,0.5-0.68,0.989-0.82,1.59c-0.072,0.311-0.232,0.571-0.361,0.861
		c-0.059,0.134-0.121,0.289-0.164,0.428c-0.034,0.114-0.034,0.281-0.05,0.393c-0.141,0.176-0.205,0.508-0.281,0.717
		c-0.142,0.384-0.238,0.784-0.278,1.19c-0.046,0.46-0.054,0.939-0.054,1.414c0,0.412,0.073,0.932-0.055,1.305
		c-0.122,0.356-0.46,0.563-0.7,0.85c-0.273,0.327-0.522,0.672-0.803,0.994c-0.263,0.302-0.549,0.597-0.747,0.937
		c-0.233,0.4-0.359,0.854-0.612,1.238c-0.437,0.661-1.416,0.764-2.059,1.182c-0.691,0.45-1.286,1.029-1.931,1.543
		c-0.649,0.517-1.32,1.01-1.964,1.543c-0.623,0.515-1.187,1.197-2.059,1.148c-0.091-0.005-0.177-0.013-0.264-0.021
		c0.635-1.042,0.338-2.637,0.076-3.723c-0.152-0.632,0.032-1.273,0.216-1.885c0.211-0.703,0.343-1.217,0.193-1.949
		c-0.101-0.494-0.172-1.131-0.069-1.672c0.135-0.108,0.254-0.247,0.354-0.427c0.287-0.514,0.472-1.109,0.704-1.661
		c0.454-1.085,0.959-2.356,1.19-3.5c0.263-1.306,0.142-2.725,0.195-4.087c0.047-1.224,0.478-2.4,0.661-3.621
		c0.1-0.66,0.161-1.273,0.193-1.969c0.014-0.305,0.111-0.606,0.083-0.936c-0.028-0.332-0.149-0.609-0.203-0.938
		c-0.109-0.67,0.15-1.213,0.284-1.836c0.139-0.646,0.071-1.228,0.001-1.875c-0.067-0.619-0.038-1.288-0.245-1.878
		c-0.072-0.206-0.159-0.637-0.295-0.804c-0.018-0.022-0.035-0.04-0.053-0.056c0.379-0.787,0.316-1.577,0.242-2.455
		c-0.074-0.88,0.016-1.931-0.273-2.745c-0.3-0.844-0.293-1.775-0.619-2.611c-0.164-0.422-0.343-0.827-0.471-1.249
		c-0.103-0.345-0.116-0.825-0.292-1.149c0.123-0.115,0.049-0.29,0.022-0.457c-0.069-0.43-0.17-0.882-0.191-1.332
		c-0.021-0.443-0.044-0.891-0.129-1.311c-0.047-0.229-0.06-0.432-0.061-0.674c-0.001-0.32-0.006-0.346,0.3-0.38
		c0.105-0.012,0.211-0.022,0.32-0.033c0.029,0.068,0.058,0.137,0.083,0.208c0.797,2.354,2.65,4.295,5.039,4.904
		c2.286,0.583,4.286-1.758,5.809-3.18c1.771-1.651,3.097-3.567,4.182-5.687c0.541-1.055,1.231-1.909,1.979-2.847
		c0.731-0.919,1.187-1.968,1.448-3.068c0.287-1.202,0.242-2.543-0.439-3.621c-0.318-0.502-0.8-0.668-1.303-0.948
		c-0.526-0.293-1.144-0.642-1.699-0.245c0.466,0.375,1.089,0.426,1.613,0.663c0.599,0.27,0.828,0.656,1.012,1.262
		c0.187,0.621,0.433,1.343,0.377,2c-0.048,0.567-0.369,1.152-0.571,1.713c-0.22,0.613-0.338,1.329-0.734,1.837
		c-0.389,0.496-0.871,0.846-1.213,1.383c-0.722,1.136-1.637,2.135-2.375,3.264c-0.691,1.055-1.298,2.083-2.13,3.057
		c-0.443,0.518-0.979,0.899-1.458,1.387c-0.47,0.479-0.859,0.947-1.397,1.337c-0.938,0.68-1.867,1.453-3.081,1.104
		c-1.135-0.327-2.064-1.052-2.669-2.061c-0.549-0.916-1.463-1.475-1.684-2.56c0.464-0.073,0.922-0.186,1.312-0.408
		c0.358-0.204,2.529-1.575,2.991-2.448c0.193,0.646,0.381,1.015,0.429,1.088c0.106,0.161,0.148,0.209,0.275,0.194
		c0.155,0.69-1.176,1.71-1.228,2.281c0.473,0.001,0.896-0.905,1.145-1.249c0.185-0.256,0.37-0.516,0.439-0.824
		c0.021-0.092,0.035-0.207,0.033-0.314c0.096-0.04,0.174-0.095,0.157-0.175v-0.054c-0.001-0.005-0.002-0.01-0.003-0.015
		c0.624,0.27,1.493-0.687,1.883-1.042c0.915-0.838,2.024-1.258,2.985-2.038c0.317-0.258,2.582-2.776,1.837-2.887l0.041,0.041
		c-0.481,0.151-0.662,0.75-0.988,1.141c-0.867,1.039-2.046,1.729-3.17,2.396c-0.563,0.334-0.996,0.833-1.417,1.327
		c-0.397,0.465-0.73,0.701-1.202,0.914c-0.023-0.123-0.051-0.276-0.075-0.386c-0.187-0.881-0.69-1.757-0.972-2.61
		c-0.286-0.869-0.319-1.768-0.501-2.653c-0.177-0.86-0.935-1.527-1.266-2.345c-0.34-0.841-0.585-1.723-0.794-2.61
		c-0.195-0.826-0.543-1.82-1.141-2.459c-0.657-0.704-1.803-0.825-2.693-0.911c-0.895-0.087-1.67-0.459-1.952-1.387
		c-0.111-0.367-0.111-0.949-0.027-1.327c0.095-0.425,0.393-0.755,0.624-1.12c0.484-0.763,0.903-1.574,1.403-2.31
		c0.428-0.63,0.923-1.41,1.137-2.143c0.322,0.077,0.704-0.099,0.994-0.37c0.493-0.461,0.469-1.023,0.671-1.612
		c0.137-0.399,0.395-0.757,0.48-1.193c0.085-0.436,0.013-0.937,0.081-1.385c0.079-0.528,0.196-0.767-0.283-1.07
		c-0.28-0.178-0.351-0.254-0.656-0.143c-0.208,0.076-0.365,0.318-0.57,0.234l-0.122-0.163c-0.007,0.443-0.179,0.836-0.157,1.299
		c0.474,0.028,0.895-0.673,1.374-0.639c0.188,0.478-0.197,1.41-0.278,1.911c-0.086,0.535-0.276,1.189-0.563,1.681
		c-0.119,0.205-0.28,0.522-0.53,0.307c-0.232-0.2-0.009-0.71,0.034-0.927c0.08-0.402,0.53-1.503-0.125-1.624
		c-0.488-0.09-0.352,0.404-0.367,0.725c-0.015,0.325-0.096,0.628-0.193,0.939c-0.174,0.554-0.528,0.972-0.281,1.561l-0.123-0.107
		c0.094,0.292-0.229,0.851-0.354,1.14c-0.181,0.42-0.431,0.794-0.646,1.196c-0.237,0.443-0.478,0.898-0.767,1.308
		c-0.272,0.386-0.629,0.7-0.898,1.087c-0.203,0.291-0.338,0.592-0.43,0.906c-0.729,0.371-1.415,0.608-2.235,0.82
		c-0.843,0.218-2.151,0.029-2.27-0.001c-1.154-0.296-2.215-0.836-2.814-1.993c-0.623-1.202-0.997-2.23-1.143-3.553
		c-0.141-1.286-0.645-2.443-0.773-3.752c-0.064-0.655-0.089-1.282-0.124-1.958c-0.026-0.532-0.152-1.031-0.215-1.537
		c0.456,0.169,1.887-1.903,2.368-2.199c0.396,0.588,0.743,0.31,0.957-0.178c0.247-0.561,0.528-0.791,1.01-1.133
		c0.44-0.312,0.851-0.643,1.343-0.867c0.256-0.117,0.452-0.111,0.45-0.446c-0.001-0.34-0.212-0.286-0.532-0.166
		c-0.588,0.223-1.15,0.788-1.628,1.193c-0.34,0.288-0.528,0.303-0.9,0.469c-0.274,0.123-0.555,0.454-0.772,0.653
		c-0.439,0.402-0.887,0.813-1.254,1.274c-0.184,0.231-0.724,1.281-1.059,1.237c-0.004-0.045-0.009-0.091-0.012-0.137
		c-0.08-1.257,0.186-2.674,0.489-3.833c0.153-0.582,0.43-1.1,0.705-1.629c0.204-0.394,0.485-1.124,0.926-1.312
		c0.332,0.282,0.432,1.274,1.009,0.892c0.311-0.207,0.213-0.497,0.294-0.806c0.077-0.297,0.275-0.638,0.492-0.856h-0.041
		c-0.024-0.025-0.053-0.017-0.048-0.074c-0.438-0.048-0.377,0.849-0.77,1.004c-0.512,0.202-0.386-0.733-0.494-1.046
		c-0.692,0.058-1.224,1.011-1.573,1.545c-0.3,0.459-0.582,0.975-0.836,1.456c-0.326,0.618-0.342,1.242-0.478,1.887
		s-0.348,1.212-0.418,1.867c-0.069,0.641,0.271,1.312,0.167,1.961c-1.071,0.054-1.402,0.426-1.512,1.515
		c-0.133,1.319-0.005,2.502,0.936,3.477c0.389,0.403,0.887,0.736,1.245,1.161c0.39,0.464,0.455,1.181,0.592,1.733
		c0.182,0.73,0.389,1.424,0.729,2.065c-0.102,0.507-0.408,1.036-0.572,1.499c-0.217,0.609-0.397,1.184-1.065,1.387
		c-0.68,0.206-1.382,0.148-2.1,0.113c-0.708-0.035-1.41-0.042-2.101,0.061c-0.324,0.049-0.68,0.117-0.979,0.244
		c-0.354,0.15-0.545,0.43-0.76,0.735c-0.37,0.524-0.724,1.079-1.137,1.575c-0.44,0.53-0.878,1.004-1.223,1.611
		c-0.102,0.18-0.101,0.212,0.061,0.342c0.159,0.127,0.216,0.195,0.347,0.066c0.092-0.09,0.127-0.259,0.199-0.367
		c0.079-0.121,0.197-0.22,0.286-0.33c0.108-0.135,0.23-0.26,0.355-0.384c0.098,0.062,0.194,0.128,0.288,0.205
		c0.618,0.501,1.27,1.099,2.04,1.331c0.38,0.115,1.043,0.008,1.244,0.376c0.177,0.324,0.138,0.871,0.229,1.245
		c0.024,0.004,0.051,0.003,0.077,0.005l-0.054,0.108c0.001,0.015,0.005,0.028,0.008,0.042c-0.073,0.023-0.145,0.048-0.22,0.073
		c-1.542,0.515-3.369-0.496-4.458-1.644c-0.07-0.075-0.179-0.23-0.281-0.293c0.033-0.076,0.045-0.141,0.023-0.184
		c-0.04-0.075-0.197-0.127-0.266-0.17h-0.082c-0.375,0.637-0.861,1.25-1.298,1.855c-0.544,0.752-0.997,1.579-1.366,2.44
		c-0.35,0.813-0.756,1.698-0.849,2.578c-0.035,0.332,0.063,0.616,0.234,0.861c-0.226,1.12-0.772,2.254-1.115,3.305
		c-0.379,1.166-0.771,2.291-1.021,3.466c-0.125,0.59-0.143,1.268-0.088,1.876c0.058,0.648,0.319,1.045,0.519,1.641
		c0.19,0.569,0.185,1.146,0.295,1.745c0.094,0.514,0.628,1.044,1.084,1.341c-0.508-0.487-0.6-1.015-0.708-1.677
		c-0.096-0.587-0.316-1.165-0.54-1.701c-0.548-1.324-0.243-2.534,0.04-3.877c0.228-1.077,0.434-2.195,0.817-3.219
		c0.327-0.872,0.777-1.816,0.847-2.738c0.297,0.333,0.727,0.59,1.116,0.799c0.78,0.417,1.668,0.483,2.497,0.761
		c0.417,0.141,0.863,0.319,1.304,0.359c0.122,0.011,0.24,0.009,0.354,0.001c-0.146,0.322-0.21,0.706-0.334,1.053
		c-0.139,0.389-0.288,0.778-0.401,1.175c-0.221,0.78-0.464,1.645-0.823,2.391c-0.251,0.523-0.735,1.894-1.544,1.743
		c-0.327-0.062-0.551-0.701-0.944-0.539c-0.464,0.189,0.282,0.7,0.489,0.775c0.309,0.112,0.85-0.149,1.163-0.209
		c0.272-0.052,0.303-0.057,0.408,0.215c0.081,0.206,0.126,0.438,0.169,0.647c0.17,0.834,0.425,1.643,0.64,2.48
		c0.441,1.72,1.029,3.521,1.604,5.173c0.258,0.742,0.551,1.648,1.142,2.203c0.603,0.565,1.413,0.896,2.128,1.317
		c0.298,0.176,0.69,0.36,0.916,0.638c0.3,0.368,0.293,0.793,0.693,1.102c0.654,0.505,1.372,0.901,1.835,1.618
		c0.152,0.236,0.12,0.349,0.198,0.592c0.01,0.031,0.026,0.061,0.044,0.089c-0.089,0-0.181,0.005-0.249,0.008
		c-0.354,0.013-0.469-0.005-0.745-0.275c-0.363-0.356-0.878-0.915-1.407-0.959c-0.235-0.019-0.366,0.025-0.54,0.213l0.082,0.123
		c0.517,0,0.969,0.75,1.387,1.02c0.407,0.262,1.192,0.629,1.633,0.204c0.072-0.069,0.111-0.124,0.13-0.167
		c0.04-0.004,0.08-0.017,0.119-0.044c0.251-0.179,0.212-0.896,0.055-1.106c-0.457-0.615-1.349-0.981-1.931-1.463
		c-0.365-0.302-0.494-0.573-0.645-0.985c-0.147-0.404-0.474-0.701-0.815-0.957c-0.179-0.134-0.376-0.256-0.581-0.373
		c0.05-0.011,0.101-0.021,0.152-0.035c0.525-0.136,1.055-0.307,1.596-0.237c0.552,0.07,1.104,0.162,1.658,0.188
		c0.478,0.022,0.922-0.052,1.387-0.08c0.986-0.061,1.928-0.383,2.909-0.383c0.952,0.002,1.827-0.271,2.773-0.271
		c0.952,0,1.906,0.038,2.854,0c0.958-0.037,1.861-0.151,2.745-0.462c0.176-0.062,0.48-0.243,0.654-0.131
		c0.174,0.113,0.135,0.396,0.11,0.565c-0.034,0.223-0.077,0.468-0.156,0.68c-0.01,0.028-0.025,0.056-0.04,0.085
		c-0.003,0-0.006-0.001-0.008-0.003l-0.003,0.023c-0.083,0.148-0.205,0.313-0.169,0.461c0.096,0.072,0.176,0.09,0.244,0.073
		c0.09,0.166,0.178,0.313,0.213,0.544c0.049,0.318,0.052,0.67,0.083,0.978c0.064,0.638,0.088,1.35,0.08,1.999
		c-0.008,0.681-0.399,1.234-0.408,1.916c-0.008,0.695,0.137,1.255,0.205,1.917c0.125,1.241-0.164,2.646-0.458,3.834
		c-0.148,0.597-0.277,1.219-0.401,1.835c-0.127,0.636,0.014,1.326,0.044,1.955c0.033,0.68,0.041,1.403-0.001,2.082
		c-0.036,0.586-0.315,1.188-0.491,1.712c-0.184,0.552-0.421,1.093-0.652,1.632c-0.248,0.581-0.313,1.21-0.662,1.756
		c-0.714,1.117-2,0.931-3.129,0.694c-0.805-0.169-0.622-0.744-0.492-1.389c0.135-0.668,0.194-1.309,0.125-1.999
		c-0.126-1.27-0.167-2.535-0.405-3.795c-0.084-0.446-0.182-0.915-0.265-1.394c0.344-0.145,0.677,0.257,1.039,0.255
		c0.545-0.002,0.651-0.383,0.52-0.853c-0.299,0.262-0.466,0.403-0.887,0.282c-0.318-0.093-0.478-0.264-0.738-0.096
		c-0.099-0.646-0.16-1.305-0.119-1.945c0.034-0.553,0.373-1.114,0.765-1.519c0.269-0.277,1.344-0.818,0.663-1.009
		c-0.563-0.159-1.031,0.493-1.335,0.866c-0.189,0.231-0.329,0.477-0.511,0.714c-0.284,0.372-0.237,0.269-0.59,0.039
		c-0.48-0.312-1.486-1.175-1.932-0.56c0.287,0.398,1,0.638,1.422,0.908c0.56,0.359,0.774,0.706,0.986,1.337
		c0.403,1.195,0.281,2.66,0.534,3.87c0.237,1.132,0.401,2.219,0.283,3.388c-0.058,0.574-0.112,1.127-0.195,1.682
		c-0.039,0.26-0.048,0.53-0.123,0.774c-0.07,0.229-0.229,0.438-0.246,0.677c0.002,0.002,0.004,0.003,0.006,0.005
		c-0.411,0.16-0.937,0.187-1.318,0.257c-0.633,0.116-1.303,0.335-1.916,0.521c-0.306,0.092-0.587,0.152-0.898,0.236
		c-0.268,0.072-0.609,0.261-0.865,0.285c-0.609,0.059-1.122-0.531-1.786-0.439c-0.324,0.045-0.543,0.143-0.846-0.051
		c-0.225-0.144-0.361-0.41-0.579-0.57c-0.48-0.354-1.113-0.185-1.501-0.695c-0.356-0.469-0.361-1.217-0.418-1.782
		c-0.035-0.35,0.019-0.711,0-1.062c-0.02-0.379-0.126-0.526-0.275-0.866c-0.246-0.559-0.256-1.177-0.132-1.783
		c0.059-0.288,0.176-0.684,0.121-0.979c-0.046-0.248-0.272-0.479-0.417-0.691c-0.171-0.251-0.339-0.493-0.407-0.777
		c-0.083-0.343,0.072-0.622,0.049-0.938c-0.025-0.347-0.256-0.444-0.449-0.692c-0.232-0.298-0.203-0.523-0.203-0.898
		c0-0.352-0.085-0.683-0.082-1.02c0.004-0.405,0.197-0.515,0.377-0.847c0.328-0.603-0.472-0.568-0.734-1.038
		c-0.272-0.489-0.371-1.204-0.541-1.743c-0.208-0.662-0.359-1.255-0.367-1.959c-0.008-0.653-0.182-1.358-0.083-2
		c0.047-0.297,0.277-0.498,0.368-0.771c0.015-0.044,0.024-0.084,0.03-0.121c0.622,0.798,1.383,1.422,2.458,1.59
		c0.662,0.104,1.393,0.213,1.839-0.369c-0.289-0.344-1.223-0.328-1.644-0.44c-0.565-0.15-1.044-0.318-1.531-0.711
		c-0.38-0.309-0.871-0.607-1.203-0.96c-0.431-0.457-0.462-1.146-0.693-1.714c-0.471-1.157-0.489-1.335-1.376-2.171
		c-0.445-0.419-1.751-1.177-2.203-1.593c-0.531-0.487-0.811-1.135-1.182-1.742c-0.152-0.249-0.59-0.647-0.571-0.865l-0.204-0.286
		c0.277,1.134,0.938,2.19,1.579,3.192c0.628,0.982,1.769,1.571,2.469,2.476c0.627,0.813,1.13,1.879,1.736,2.837
		c-0.217,0.501-0.314,1.149-0.442,1.651c-0.156,0.617,0.018,1.284,0.12,1.916c0.099,0.611,0.269,1.179,0.327,1.795
		c0.051,0.537,0.096,1.469,0.378,1.914c0.291,0.459,1.098,0.645,0.817,1.235c-0.054,0.114-0.199,0.146-0.257,0.274
		c-0.064,0.142-0.03,0.373-0.039,0.531c-0.019,0.344,0.009,0.689,0.042,1.021c0.033,0.326,0.011,0.734,0.162,1.019
		c0.119,0.224,0.398,0.305,0.521,0.499c0.202,0.318-0.046,0.534-0.111,0.85c-0.065,0.314,0.037,0.599,0.15,0.905
		c0.213,0.573,0.597,0.893,0.622,1.54c0.028,0.703,0.003,1.33,0.235,1.966c0.227,0.625,0.46,1.11,0.458,1.785
		c-0.001,0.624-0.165,1.382,0.05,1.949c0.133,0.351,0.579,1.102,1.011,1.182c0.352,0.066,0.456-0.275,0.815-0.235
		c0.305,0.034,0.446,0.29,0.683,0.459c0.497,0.353,1.172,0.077,1.765,0.235c0.634,0.171,1.008,0.343,1.68,0.131
		c0.394-0.125,0.769-0.342,1.174-0.457c0.44-0.126,0.885-0.177,1.336-0.295c0.391-0.103,1.651-0.215,2.091-0.604
		c0.22,0.045,0.382-0.101,0.65-0.083c0.302,0.02,0.526,0.222,0.807,0.296c0.572,0.152,1.309,0.084,1.885-0.007
		c0.224-0.034,0.432-0.077,0.623-0.144c0.388,1.096-0.085,2.353-0.335,3.363c-0.325,1.313,0.361,2.442,0.487,3.712
		c0.034,0.344,0.048,0.684-0.002,1.017c-0.043,0.287-0.153,0.579-0.117,0.876c-0.036-0.003-0.072-0.007-0.109-0.009l-0.166,0.033
		c-0.398,0.549,0.337,0.553,0.673,0.428c0.326-0.121,0.644-0.303,0.951-0.489c0.688-0.42,1.36-0.888,1.994-1.401
		c0.658-0.533,1.414-0.945,2.038-1.528c0.299-0.279,0.61-0.524,0.93-0.782c0.31-0.251,0.598-0.534,0.975-0.687
		c0.357-0.143,0.732-0.133,1.059-0.387c0.307-0.239,0.458-0.602,0.661-0.917c0.426-0.66,0.845-1.319,1.345-1.938
		c0.288-0.355,0.6-0.687,0.911-1.019c0.137-0.146,0.406-0.315,0.477-0.503c0.063-0.166,0.016-0.495,0.008-0.675
		c-0.045-0.911-0.017-1.84,0.162-2.717c0.102-0.498,0.274-1.028,0.321-1.519c-0.01-0.005-0.018-0.008-0.027-0.011
		c0.074-0.153,0.136-0.321,0.17-0.375c0.165-0.264,0.376-0.502,0.51-0.779c0.141-0.293,0.117-0.605,0.234-0.889
		c0.221-0.535,0.456-1.044,0.847-1.494c0.194-0.224,0.346-0.482,0.561-0.687c0.196-0.187,0.396-0.362,0.581-0.561
		c0.094-0.102,0.169-0.23,0.286-0.307c0.128-0.084,0.297-0.095,0.428-0.183c0.293-0.198,0.242-0.534,0.192-0.836
		c-0.104-0.637-0.713-1.001-0.998-1.551c-0.146-0.28-0.087-0.678-0.087-0.993c0-0.335-0.079-0.636-0.062-0.979
		c0.031-0.594,0.311-1.124,0.852-1.432c0.229-0.131,0.53-0.376,0.775-0.174c0.205,0.17,0.157,0.634,0.21,0.871
		c0.128,0.575,0.487,1.162,0.911,1.596c0.407,0.418,0.985,0.814,1.254,1.341c0.293,0.573,0.026,1.328-0.173,1.872
		c-0.114,0.313-0.213,0.557,0.107,0.738c0.151,0.086,0.153,0.168,0.271,0.281c0.087,0.084,0.241,0.178,0.346,0.264
		c0.254,0.208,0.56,0.132,0.83,0.291c0.254,0.149,0.496,0.274,0.755,0.389c0.274,0.123,0.462,0.356,0.699,0.545
		c0.115,0.093,0.245,0.182,0.378,0.063c0.016-0.015,0.03-0.038,0.043-0.063c0.04,0.017,0.092,0.021,0.166,0.006
		c0.142-0.029,0.27-0.141,0.391-0.221c0.342-0.225,0.614-0.272,0.995-0.151c0.601,0.191,1.16,0.415,1.835,0.306
		c0.535-0.087,1.226-0.379,1.657-0.725c0.196-0.158,0.385-0.334,0.561-0.519c0.114-0.121,0.229-0.267,0.376-0.358
		c0.198-0.125,0.212-0.043,0.241,0.158c0.045,0.305,0.07,0.658,0.001,0.958c-0.072,0.319-0.214,0.616-0.266,0.938
		c-0.087,0.545-0.409,1.188-0.811,1.595c-0.196,0.198-0.43,0.354-0.612,0.571c-0.211,0.254-0.405,0.516-0.724,0.623
		c-0.155,0.053-0.33,0.02-0.479,0.07c-0.164,0.057-0.19,0.162-0.371,0.158c-0.15-0.004-0.386-0.094-0.307,0.144
		c0.048,0.144,0.209,0.198,0.224,0.388c0.025,0.324-0.129,0.621-0.229,0.917c-0.101,0.299-0.163,0.587-0.275,0.878
		c-0.207,0.533-0.609,0.997-0.856,1.514c-0.26,0.541-0.407,1.143-0.776,1.627c-0.374,0.492-0.925,0.726-1.391,1.1
		c-0.202,0.163-0.517,0.543-0.689,0.185c-0.116-0.243-0.135-0.528-0.434-0.645c-0.021,0.401,0.014,0.826,0.042,1.216
		c0.014,0.2,0.059,0.447-0.026,0.626c-0.072,0.152-0.232,0.271-0.356,0.379c-0.078,0.067-0.226,0.154-0.275,0.254
		c-0.031,0.06-0.026,0.133-0.041,0.196c-0.031-0.09-0.101-0.179-0.178-0.212c-0.176-0.078-0.268,0.075-0.408,0.138
		c-0.151,0.066-0.309,0.083-0.402-0.061c-0.119-0.182-0.042-0.313,0.117-0.361c0.169-0.05,0.325,0.006,0.485-0.087
		c0.117-0.068,0.193-0.182,0.253-0.296c0.11-0.21,0.263-0.611,0.22-0.862c-0.055-0.326-0.502-0.308-0.75-0.392
		c-0.286-0.097-0.55-0.266-0.841-0.342c-0.347-0.093-0.616-0.025-0.938,0.142c-0.308,0.159-0.516,0.309-0.24,0.607
		c0.201,0.217,0.505,0.364,0.663,0.617c0.085,0.136,0.128,0.659,0.249,0.813c-0.047,0.028-0.094,0.058-0.138,0.088
		c-0.243,0.167-0.568,0.292-0.881,0.22c-0.283-0.065-0.396-0.373-0.494-0.607c-0.104-0.247-0.279-0.462-0.403-0.698
		c-0.143-0.271-0.172-0.554-0.204-0.856c-0.028-0.275-0.194-0.532-0.207-0.792c-0.02-0.005-0.04,0.002-0.059-0.003l-0.021-0.103
		c-0.24-0.081-0.38-0.381-0.651-0.449c-0.304-0.076-0.682,0.051-0.832,0.331c-0.126,0.235,0.206,0.572,0.281,0.813
		c0.098,0.311,0.063,0.618,0.081,0.958c0.059,1.137,0.402,2.391,1.27,3.196c0.451,0.42,1.072,0.606,1.646,0.658
		c0.65,0.058,1.076-0.452,1.576-0.812c0.334-0.239,1.044-0.688,1.021-1.196c0.105-0.032,0.216-0.177,0.277-0.251
		c0.194-0.232,0.361-0.484,0.51-0.739c0.146-0.252,0.213-0.532,0.325-0.776c0.11-0.237,0.462-0.378,0.67-0.514
		c0.241-0.157,0.461-0.324,0.702-0.458c0.512-0.284,0.794-0.912,1.123-1.367c0.365-0.505,0.643-1.075,1.121-1.488
		c0.21-0.182,0.5-0.296,0.683-0.499c0.012-0.013,0.019-0.023,0.028-0.035c0.128,0.111,0.445,0.076,0.61,0.101
		c0.293,0.043,0.582,0.175,0.856,0.265c0.594,0.195,1.177,0.417,1.793,0.512c0.655,0.101,1.202,0.214,1.811,0.473
		c0.537,0.229,1.073,0.557,1.54,0.907c0.522,0.395,1.06,0.688,1.589,1.062c0.556,0.392,1.177,0.573,1.791,0.799
		c1.21,0.445,2.44,0.925,3.482,1.719c0.246,0.188,0.397,0.439,0.58,0.683c0.205,0.275,0.448,0.519,0.663,0.785
		c0.414,0.514,0.577,1.137,0.759,1.749c0.207,0.698,0.372,1.366,0.443,2.1c0.07,0.707,0.003,1.416-0.117,2.101
		c-0.044,0.249-0.181,0.496-0.285,0.733c-0.126,0.287-0.203,0.569-0.266,0.879c-0.104,0.504-0.287,1.003-0.221,1.505
		c0.064,0.008,0.14,0.004,0.216-0.013c-0.309,0.258-0.553,0.725-0.709,0.994c-0.148,0.257-0.293,0.509-0.464,0.755
		c-0.157,0.227-0.375,0.46-0.414,0.732c-0.045,0.326,0.1,0.63,0.165,0.938c0.062,0.291,0.177,0.576,0.447,0.75
		c0.278,0.179,0.676,0.226,1,0.209c0.317-0.016,0.604-0.13,0.801,0.204c0.084,0.142,0.074,0.31,0.096,0.469
		c0.022,0.158,0.074,0.313,0.103,0.469c0.066,0.365,0.125,0.731,0.162,1.102c0.069,0.682-0.105,1.355-0.079,1.997
		c0.025,0.654-0.265,1.233-0.762,1.647c-0.218,0.183-0.49,0.373-0.683,0.581c-0.238,0.259-0.075,0.584,0.276,0.48
		c0.167-0.05,0.726-0.58,0.529-0.041c-0.095,0.26-0.405,0.525-0.607,0.713c-0.114,0.107-0.212,0.213-0.351,0.285
		c-0.133,0.069-0.33,0.106-0.384,0.271c-0.143,0.438,0.587,0.185,0.756,0.107c0.702-0.322,0.832-0.995,1.106-1.616
		c0.293-0.66,0.57-1.292,0.75-1.979c0.089-0.339,0.04-0.747,0.04-1.105c0-0.351-0.008-0.701-0.041-1.035
		c-0.068-0.706-0.03-1.45-0.164-2.142c-0.058-0.296-0.135-0.612-0.449-0.749c-0.273-0.12-0.681-0.06-0.978-0.107
		c-0.675-0.109-1.21-0.488-1.1-1.222c0.076-0.511,0.496-1.003,0.8-1.425c0.249-0.345,0.669-0.862,0.688-1.289l0.021-0.163
		c-0.061-0.016-0.121-0.017-0.179-0.01c0.092-0.075,0.16-0.169,0.179-0.275c0.06-0.328,0.033-0.678,0.081-1
		c0.102-0.688,0.419-1.299,0.546-1.979c0.048-0.256,0.092-0.521,0.119-0.788c0.082-0.009,0.162-0.023,0.232-0.026
		c0.17-0.008,0.347,0.016,0.51-0.024c0.346-0.087,0.693-0.27,1.02-0.409c0.32-0.137,0.649-0.284,0.979-0.383
		c0.393-0.117,0.76-0.206,1.101-0.428c0.546-0.355,1.072-0.751,1.571-1.183C128.948,215.563,129.219,214.13,129.139,212.672
		 M69.031,144.93c-0.687-0.264-0.816-1.571-0.972-2.154c-0.15-0.565-0.591-1.942,0.075-2.338l0.136-0.027
		c0.385,0.264,0.553,0.466,0.714,0.924c0.142,0.4,0.17,0.836,0.237,1.251c0.067,0.421,0.082,0.851,0.082,1.304
		C69.304,144.186,69.458,145.095,69.031,144.93 M63.134,179.365c-0.079-0.345-0.183-0.69-0.299-1.034
		c0.002,0.002,0.004,0.004,0.005,0.005c0.183-0.047,0.377-0.179,0.558-0.247c0.231-0.087,0.47-0.121,0.713-0.157
		c0.439-0.066,0.886-0.101,1.332-0.163c0.532-0.075,0.996-0.309,1.524-0.435c0.456-0.108,0.91-0.084,1.385-0.108
		c1.051-0.054,2.048,0.082,3.1,0.082c1.03,0,2.025,0.062,3.018,0.162c0.942,0.096,1.886,0.102,2.828,0.056
		c0.492-0.024,0.997-0.017,1.47,0.136c0.496,0.158,0.916,0.484,1.379,0.715c0.48,0.238,0.977,0.3,1.496,0.399
		c0.388,0.074,0.834,0.18,1.256,0.197c-0.096,0.037-0.218,0.042-0.327,0.047c-0.958,0.048-1.801-0.254-2.745-0.299
		c-0.45-0.021-0.838-0.216-1.278-0.244c-0.453-0.029-0.871,0.063-1.304-0.057c-0.439-0.121-0.862-0.172-1.329-0.265
		c-0.481-0.095-0.9-0.241-1.419-0.196c-0.508,0.044-0.937,0.19-1.468,0.19c-0.52,0-1.061-0.028-1.57,0.026
		c-1.101,0.118-2.195,0.283-3.29,0.383c-1.028,0.094-2.092,0.14-3.106,0.297c-0.438,0.067-0.878,0.181-1.301,0.306
		C63.615,179.204,63.315,179.268,63.134,179.365 M82.843,178.177c0.001,0.003,0.002,0.005,0.003,0.007
		c-0.08-0.021-0.17-0.039-0.275-0.056c-0.578-0.091-1.171-0.123-1.739-0.25c-1.169-0.263-2.139-1.077-3.4-1.007
		c-0.603,0.033-1.201,0.137-1.8,0.196c-0.518,0.052-0.986-0.031-1.489-0.121c-1.269-0.225-2.571-0.401-3.86-0.21
		c-1.134,0.167-2.317-0.003-3.48,0.052c-1.03,0.049-2.1,0.359-3.099,0.572c-0.205,0.043-0.387,0.107-0.594,0.104
		c-0.052-0.284,0.394-0.791,0.486-1.082c0.146-0.463,0.148-1.108,0.514-1.475c0.385-0.387,0.878-0.39,1.36-0.511
		c0.531-0.133,1.021-0.271,1.565-0.328c0.587-0.061,1.178-0.001,1.76-0.054c0.578-0.053,1.16-0.032,1.739-0.08
		c1.162-0.099,2.31-0.185,3.473-0.24c0.577-0.027,1.204-0.007,1.79,0.021c0.698,0.032,1.355,0.218,2.044,0.3
		c1.013,0.12,2.028,0.285,2.937,0.788c0.367,0.204,0.725,0.458,1.095,0.673c0.167,0.098,0.281,0.159,0.4,0.051
		c0.176,0.427,0.363,0.847,0.408,1.315C82.722,177.275,82.722,177.776,82.843,178.177 M86.375,161.583
		c0.12,0.221,0.221,0.448,0.288,0.684c-0.041,0.071-0.074,0.149-0.115,0.222c-0.402,0.732-1.034,1.327-1.713,1.799
		c-0.324,0.227-0.647,0.487-1.033,0.614c-0.235,0.078-0.984,0.384-1.198,0.273c0.084-0.352-0.063-0.539,0.32-0.676
		c0.284-0.101,0.547-0.21,0.818-0.347c0.646-0.324,1.485-0.788,1.977-1.344c0.265-0.298,0.363-0.668,0.544-1.007
		C86.305,161.722,86.344,161.651,86.375,161.583 M87.221,165.506l0.002,0.008c-0.365,0.417-0.678,0.838-1.097,1.215
		c-0.398,0.36-0.858,0.639-1.27,0.978c-0.67,0.551-1.581,1.075-2.474,0.904c-0.467-0.088-0.245-0.683,0.163-0.741
		c0.456-0.065,0.823-0.043,1.245-0.223c0.79-0.338,1.531-0.897,2.182-1.457c0.247-0.211,0.875-0.634,1.157-1.056
		C87.156,165.26,87.187,165.383,87.221,165.506 M87.004,164.554c-0.365,0.346-0.636,0.698-1.06,1.005
		c-0.385,0.28-0.763,0.568-1.171,0.81c-0.661,0.39-1.549,1.438-2.414,0.98c-0.098-0.295-0.074-1.271,0.164-1.485
		c0.103-0.094,0.551-0.15,0.7-0.197c0.246-0.077,0.451-0.163,0.68-0.279c0.661-0.335,1.366-0.722,1.871-1.304
		c0.143-0.166,0.743-0.826,0.987-1.332c0.1,0.587,0.161,1.19,0.255,1.782C87.012,164.542,87.01,164.55,87.004,164.554
		 M82.479,162.416c-0.003-0.005-0.005-0.012-0.009-0.017c-0.488-0.714-1.751-0.313-2.456-0.454
		c-0.224-0.044-0.432-0.148-0.651-0.192c-0.229-0.045-0.47-0.006-0.707-0.027c-0.439-0.038-0.808-0.227-1.223-0.359
		c-0.395-0.125-0.793-0.147-1.17-0.348c-0.435-0.231-0.833-0.108-1.304-0.157c-0.907-0.094-1.821-0.244-2.692-0.462
		c-0.508-0.127-0.83-0.297-1.359-0.223c-0.49,0.069-0.96,0.112-1.468,0.163c-0.479,0.048-0.955,0.03-1.442,0.053
		c-0.3,0.014-0.686,0.009-1.025,0.052c0.015-0.226,0.079-0.366,0.158-0.567c0.017-0.045,0.03-0.083,0.04-0.118
		c0.431-0.109,0.906-0.237,1.345-0.237c0.9,0,1.836,0.027,2.747,0.027c0.896,0,1.906-0.118,2.774,0.054
		c0.729,0.143,1.412,0.634,2.145,0.818c0.892,0.225,1.799,0.438,2.693,0.571c0.485,0.072,0.965-0.062,1.441-0.029
		c0.425,0.029,0.943,0.24,1.354,0.389c0.258,0.093,0.759,0.418,0.98,0.222C82.598,161.858,82.538,162.14,82.479,162.416
		 M66.456,163.059c0.217-0.622,0.366-1.265,0.45-1.921c0.804,0.007,1.623-0.067,2.392-0.227c0.828-0.172,1.604-0.563,2.454-0.352
		c0.412,0.103,0.792,0.354,1.222,0.462c0.456,0.114,0.918,0.148,1.387,0.19c0.516,0.045,1.047-0.019,1.55,0.135
		c0.438,0.134,0.88,0.28,1.306,0.456c0.467,0.192,0.812,0.415,1.332,0.389c0.502-0.025,0.908,0.014,1.394,0.143
		c0.466,0.122,0.868,0.045,1.352,0.074c0.257,0.015,0.543,0.101,0.736,0.292c0.127,0.128,0.163,0.323,0.311,0.433
		c-0.123,0.744-0.185,1.512-0.258,2.266c-0.037,0.384-0.088,0.761-0.145,1.137c-0.299-0.277-0.636-0.584-0.971-0.736
		c-0.221-0.101-0.419-0.076-0.652-0.101c-0.228-0.024-0.457-0.119-0.678-0.191c-0.913-0.297-1.864-0.573-2.769-0.848
		c-0.458-0.14-0.913-0.234-1.391-0.21c-0.47,0.023-0.915,0.051-1.388,0.026c-0.502-0.027-0.992,0.019-1.468-0.082
		c-0.459-0.098-0.91-0.145-1.388-0.054c-0.498,0.096-0.994,0.013-1.473-0.083c-0.454-0.09-0.907-0.063-1.38-0.081
		c-0.468-0.017-0.833-0.034-1.299,0.088c-0.521,0.137-0.711,0.209-1.046-0.096C66.177,163.802,66.324,163.438,66.456,163.059
		 M65.519,165.69c0.029-0.116,0.061-0.23,0.095-0.344c0.055-0.019,0.11-0.037,0.162-0.052c0.449-0.133,0.912-0.239,1.359-0.326
		c0.225-0.044,0.451-0.058,0.674-0.116c0.235-0.062,0.464-0.186,0.707-0.218c0.467-0.061,0.979,0.091,1.441,0.137
		c0.506,0.05,0.909-0.088,1.388-0.161c0.899-0.139,1.824,0.297,2.745,0.297c0.92,0,1.97-0.092,2.856,0.137
		c0.929,0.24,1.725,0.714,2.663,0.896c0.509,0.099,0.816,0.186,1.25,0.457c0.28,0.174,0.659,0.5,1.008,0.614
		c-0.054,0.348-0.111,0.697-0.164,1.051c-0.053,0.353-0.063,0.705-0.057,1.057c-0.391-0.036-0.791-0.345-1.102-0.568
		c-0.411-0.296-0.891-0.437-1.399-0.461c-0.635-0.031-1.251,0.054-1.883,0.054c-0.614,0-1.112-0.222-1.7-0.347
		c-0.499-0.106-0.99-0.059-1.502-0.06c-0.614-0.002-1.223-0.048-1.821-0.103c-0.452-0.041-0.9-0.023-1.359,0
		c-0.583,0.029-1.155-0.033-1.74-0.033c-0.793,0-1.608-0.043-2.393,0.027c-0.412,0.037-0.81,0.095-1.223,0.157
		c-0.342,0.052-0.774,0.206-1.11,0.165c-0.011-0.273,0.193-0.652,0.267-0.92c0.015-0.052,0.055-0.137,0.088-0.225
		c0.065,0.007,0.128,0.006,0.185-0.021C65.299,166.625,65.438,166.013,65.519,165.69 M64.28,168.666
		c0.106-0.399,0.916-0.349,1.298-0.386c0.49-0.047,0.991-0.016,1.476-0.088c0.49-0.073,1.019-0.201,1.516-0.131
		c0.563,0.08,1.132,0.081,1.715,0.082c0.5,0.001,0.982-0.112,1.473-0.135c0.579-0.028,1.151,0.095,1.707,0.191
		c1.138,0.195,2.31,0.186,3.459,0.299c0.908,0.089,1.78,0.252,2.713,0.298c0.495,0.024,0.752,0.173,1.142,0.456
		c0.209,0.151,0.608,0.545,0.895,0.574c0.005,0.112,0.011,0.224,0.015,0.336c-0.078-0.027-0.173-0.039-0.285-0.062
		c-0.536-0.105-1.026-0.328-1.558-0.482c-1.063-0.308-2.053-0.494-3.167-0.55c-0.681-0.034-1.338-0.109-2.024-0.109
		c-0.56,0-1.11,0.008-1.65-0.075c-1.018-0.157-2.039-0.215-3.052-0.116c-1.133,0.112-2.231,0.382-3.34,0.594
		c-0.644,0.122-1.307,0.16-1.957,0.223c-0.293,0.029-0.404,0.09-0.408-0.245C64.245,169.146,64.23,168.854,64.28,168.666
		 M64.356,172.63c0.005-0.467,0.006-0.928,0.027-1.387c0.024-0.542-0.044-0.849,0.517-1.055c0.457-0.168,0.984-0.184,1.468-0.244
		c0.979-0.125,1.941-0.225,2.908-0.358c0.481-0.067,0.963-0.212,1.443-0.219c0.519-0.007,1.038,0.167,1.548,0.246
		c0.453,0.069,0.949,0.025,1.414,0.026c0.568,0.001,1.078,0.025,1.646,0.088c1.144,0.125,2.503-0.144,3.6,0.217
		c0.259,0.085,0.393,0.286,0.625,0.402c0.26,0.131,0.536,0.093,0.817,0.135c0.424,0.063,0.892,0.469,1.325,0.572
		c-0.014,0.337-0.05,0.656-0.101,0.979c-0.039,0.243-0.054,0.389,0.02,0.626c0.046,0.147,0.263,0.529,0.116,0.627
		c-0.076,0.05-0.507-0.109-0.597-0.139c-0.213-0.067-0.408-0.146-0.606-0.237c-0.405-0.187-0.83-0.196-1.244-0.34
		c-0.435-0.151-0.771-0.223-1.238-0.271c-0.423-0.043-0.851-0.245-1.262-0.349c-0.424-0.106-0.923-0.112-1.361-0.024
		c-0.462,0.095-0.894,0.338-1.359,0.38c-0.467,0.041-0.747-0.228-1.169-0.245c-0.447-0.019-0.845,0.218-1.305,0.103
		c-0.393-0.099-0.765-0.35-1.17-0.348c-0.452,0.003-0.853,0.158-1.278,0.22c-0.884,0.128-1.764,0.331-2.637,0.46
		c-0.721,0.105-1.439,0.256-2.149,0.158C64.355,172.644,64.356,172.637,64.356,172.63 M82.219,174.575
		c-0.001,0.002-0.003,0.004-0.004,0.005c-0.01-0.007-0.02-0.012-0.03-0.018C82.197,174.568,82.206,174.573,82.219,174.575
		 M82.154,174.545c-0.256-0.134-0.621-0.179-0.86-0.277c-0.391-0.16-0.771-0.342-1.168-0.502c-0.527-0.213-1.081-0.438-1.638-0.509
		c-0.589-0.077-1.196-0.056-1.789-0.082c-1.069-0.049-2.131-0.311-3.234-0.213c-1.133,0.1-2.291,0.161-3.426,0.321
		c-0.708,0.101-1.43,0.122-2.147,0.188c-0.502,0.046-0.991,0.142-1.496,0.165c-0.403,0.019-0.771,0.091-1.163,0.169
		c-0.324,0.064-0.722,0.263-1.035,0.262c-0.025-0.296,0.042-0.595,0.097-0.896c0.138-0.027,0.275-0.065,0.415-0.078
		c0.224-0.023,0.457,0.011,0.68-0.006c0.479-0.038,0.976-0.163,1.441-0.265c0.848-0.183,1.741-0.467,2.61-0.518
		c0.23-0.014,0.458,0.004,0.68-0.029c0.213-0.031,0.421-0.107,0.653-0.082c0.445,0.05,0.702,0.382,1.196,0.355
		c0.894-0.046,1.732,0.133,2.61,0.001c0.863-0.13,1.811-0.152,2.692-0.055c0.9,0.101,1.69,0.522,2.556,0.705
		c0.827,0.175,1.679,0.237,2.153,1.056C82.042,174.362,82.082,174.488,82.154,174.545 M86.242,168.123
		c-0.427,0.367-0.941,0.989-1.494,1.163c-0.216,0.068-0.498,0.042-0.729,0.08c-0.256,0.043-0.511,0.134-0.768,0.19
		c-0.237,0.053-1.031,0.344-1.245,0.131c-0.09-0.089-0.048-0.514,0.055-0.587c0.116-0.083,0.526,0.001,0.674-0.005
		c0.395-0.019,0.807-0.167,1.17-0.327c0.77-0.338,1.49-0.867,2.085-1.474c0.305-0.311,0.586-0.656,0.938-0.912
		c0.142-0.104,0.329-0.218,0.447-0.349c0.088,0.291,0.178,0.583,0.261,0.875C87.183,167.331,86.713,167.718,86.242,168.123
		 M86.125,161.156c-0.071,0.311-0.158,0.614-0.352,0.89c-0.25,0.355-0.588,0.562-0.917,0.83c-0.326,0.265-0.645,0.501-1.005,0.708
		c-0.314,0.18-0.822,0.489-1.194,0.424c0.045-0.455,0.177-0.919,0.241-1.382c0.056-0.411,0.047-0.931,0.225-1.3
		c0.146-0.304,0.7-0.317,1.02-0.475c0.344-0.169,0.695-0.417,0.979-0.68c0.117-0.107,0.216-0.203,0.285-0.299
		c0.043,0.102,0.089,0.203,0.137,0.3C85.708,160.505,85.922,160.828,86.125,161.156 M85.119,159.099
		c0.031,0.094,0.063,0.187,0.097,0.279c-0.148,0.159-0.285,0.335-0.469,0.479c-0.289,0.226-0.819,0.754-1.202,0.749
		c-0.239-0.003-0.287-0.205-0.15-0.395c0.097-0.136,0.364-0.201,0.51-0.279C84.17,159.792,84.805,159.467,85.119,159.099
		 M70.386,153.184c0.44-0.431,0.583-1.181,0.754-1.728c0.06-0.189,0.113-0.387,0.193-0.571c0.03-0.067,0.095-0.157,0.151-0.248
		c0.092,0.105,0.188,0.208,0.293,0.309c0.422,0.406,0.794,0.772,1.335,0.99c0.184,0.074,1.273,0.385,1.56,0.477
		c0.58,0.186,1.204,0.126,1.793,0.04c0.615-0.09,1.172-0.268,1.796-0.324c0.313-0.028,0.473-0.014,0.595-0.149
		c-0.009,0.19-0.012,0.385-0.009,0.584c0.006,0.533,0.203,0.97,0.521,1.302c-0.833,1.167-2.451,1.716-3.857,1.609
		c-0.737-0.057-1.531-0.208-2.244-0.389c-0.345-0.087-0.685-0.211-1.015-0.311c-0.333-0.101-0.673-0.174-1.004-0.317
		c-0.322-0.139-0.625-0.326-0.851-0.6c-0.08-0.099-0.21-0.234-0.229-0.364C70.137,153.3,70.255,153.313,70.386,153.184
		 M65.575,157.482c-0.323-0.017-0.696-0.181-1.022-0.274c-0.303-0.086-0.649-0.155-0.931-0.314
		c-0.451-0.256-0.742-0.684-1.123-1.022c0.134-0.134,0.262-0.273,0.376-0.423c0.173,0.328,0.525,0.64,0.774,0.781
		c0.628,0.354,1.275,0.805,1.926,1.098C65.585,157.371,65.588,157.437,65.575,157.482 M65.926,156.965
		c-0.521-0.402-1.113-0.627-1.707-0.915c-0.277-0.134-0.567-0.228-0.781-0.441c-0.201-0.201-0.248-0.39-0.301-0.598
		c0.219-0.476,0.328-1.038,0.785-1.377c0.518-0.384,1.378-0.301,2.004-0.301c0.726,0,1.418-0.024,2.121,0.036
		c0.349,0.03,0.69,0.075,1.04,0.106c0.153,0.014,0.331-0.012,0.454,0.077c0.122,0.087,0.23,0.279,0.342,0.393
		c0.446,0.454,0.994,0.768,1.559,1.065c1.318,0.694,2.703,0.886,4.15,1.03c0.37,0.038,0.736-0.018,1.096-0.056
		c0.379-0.04,0.763-0.068,1.127-0.164c0.312-0.082,0.646-0.299,0.938-0.453c0.284-0.15,0.602-0.333,0.857-0.525
		c0.101-0.076,0.368-0.301,0.465-0.485c0.121,0.054,0.247,0.101,0.377,0.139c0.917,0.263,1.873,0.522,2.746,0.932
		c0.926,0.433,1.139,1.24,1.44,2.141c0.092,0.274,0.178,0.562,0.267,0.853c-0.195,0.27-0.308,0.586-0.591,0.813
		c-0.3,0.24-0.71,0.585-1.11,0.424c-0.045-0.247,0.093-0.477-0.052-0.703c-0.09-0.141-0.328-0.281-0.463-0.387
		c-0.395-0.309-0.856-0.561-1.286-0.836c-0.763-0.489-1.563-0.821-2.445-0.952c-0.443-0.066-0.831,0.041-1.252,0.137
		c-0.342,0.078-0.912,0.076-1.171,0.326c0.053,0.442,0.552,0.163,0.826,0.034c0.811-0.383,1.675-0.289,2.46,0
		c0.319,0.117,2.032,0.836,1.963,1.19l-0.217,0.028c-0.291,0.027-0.863-0.188-1.198-0.271c-0.395-0.098-0.79-0.268-1.194-0.328
		c-0.405-0.06-0.945-0.182-1.359-0.108c-0.181,0.032-0.159-0.032-0.218,0.136c-0.019,0.053-0.007,0.263,0.025,0.3
		c0.095,0.107,0.45,0.09,0.6,0.106c0.899,0.099,1.866,0.132,2.713,0.443c0.583,0.213,1.779,0.685,1.826,1.409
		c0.022,0.349-0.006,0.706-0.058,1.063c-0.136-0.18-0.576-0.21-0.79-0.27c-0.409-0.114-0.796-0.27-1.217-0.332
		c-0.444-0.065-0.897-0.032-1.359-0.055c-0.948-0.048-1.742-0.185-2.644-0.483c-0.816-0.271-1.671-0.559-2.523-0.795
		c-0.432-0.12-0.854-0.227-1.304-0.277c-0.473-0.052-0.971,0-1.441,0.006c-0.471,0.005-0.939-0.054-1.415-0.054
		c-0.459,0-0.856,0.096-1.277,0.136c-0.738,0.071-1.494-0.01-2.213,0.081c-0.064-0.22-0.152-0.412-0.152-0.679
		c0-0.406,0.026-0.566,0.436-0.708c0.818-0.284,1.858-0.109,2.718-0.243c0.458-0.072,0.908-0.203,1.386-0.109
		c0.146,0.028,0.45,0.217,0.579,0.088c0.173-0.174-0.133-0.421-0.259-0.524c-0.112-0.091-0.383-0.31-0.537-0.292
		c-0.198,0.022-0.186,0.206-0.409,0.265c-0.439,0.116-0.937,0.072-1.386,0.163c-0.428,0.088-0.885,0.177-1.304,0.247
		c-0.396,0.065-0.994,0.259-1.384,0.185c-0.002-0.038,0.004-0.094-0.004-0.131c-0.086-0.358,0.593-0.635,0.842-0.754
		c0.411-0.196,0.834-0.267,1.278-0.34c0.434-0.07,0.861-0.068,1.305-0.048c0.442,0.021,0.861,0.233,1.273,0.05
		c0.016-0.104-0.025-0.105-0.07-0.165c-0.207-0.273-0.863-0.239-1.175-0.239c-0.484,0-0.934,0.017-1.387,0.107
		c-0.446,0.09-0.877,0.21-1.304,0.361C66.601,156.559,66.195,156.639,65.926,156.965 M60.488,158.465
		c0.052-0.094,0.171-0.246,0.286-0.406c0.185,0.27,0.65,0.54,0.896,0.751c0.656,0.56,1.368,1.045,2.224,1.17
		c0.446,0.065,0.904,0.092,1.359,0.115c0.431,0.021,1.01-0.115,1.093,0.429c0.128,0.835-1.87,0.346-2.317,0.189
		c-0.837-0.295-1.608-0.517-2.394-0.91c-0.363-0.182-0.753-0.385-1.053-0.665c-0.106-0.099-0.199-0.318-0.338-0.334
		C60.334,158.699,60.417,158.591,60.488,158.465 M59.781,159.333c0.086-0.117,0.181-0.22,0.276-0.323
		c0.043,0.099,0.181,0.197,0.254,0.263c1.338,1.208,3.062,1.884,4.806,1.992c0.373,0.023,0.806-0.059,1.165,0.003
		c0.126,0.392-0.184,0.932-0.329,1.307c-0.14,0.361-0.234,0.94-0.701,0.92c-0.195-0.008-0.414-0.146-0.603-0.186
		c-0.208-0.044-0.409-0.028-0.62-0.007c-0.516,0.052-0.862-0.011-1.332-0.217c-0.723-0.316-1.422-0.637-2.122-1.013
		c-0.321-0.172-0.65-0.308-0.93-0.556c-0.232-0.208-0.371-0.482-0.542-0.718C59.283,160.296,59.445,159.786,59.781,159.333
		 M58.647,161.808c0.102-0.159,0.186-0.326,0.259-0.496c0.094,0.141,0.243,0.273,0.398,0.408c0.322,0.28,0.663,0.502,1.048,0.693
		c0.712,0.352,1.391,0.91,2.154,1.108c0.854,0.221,1.714,0.261,2.611,0.325c0.263,0.019,0.372,0.069,0.354,0.354
		c-0.02,0.313-0.166,0.315-0.436,0.271c-0.445-0.071-0.89-0.211-1.333-0.304c-0.823-0.174-1.596-0.445-2.393-0.81
		c-0.684-0.313-1.381-0.687-1.99-1.135c-0.083-0.061-0.444-0.34-0.68-0.405C58.642,161.816,58.645,161.811,58.647,161.808
		 M61.935,166.513c-0.806-0.121-1.727-0.261-2.494-0.606c-0.7-0.315-1.576-0.758-1.671-1.591c-0.052-0.454-0.021-0.948,0.142-1.367
		c0.125-0.32,0.339-0.587,0.543-0.864c0.079,0.295,0.728,0.604,0.973,0.737c0.751,0.408,1.535,0.775,2.324,1.128
		c0.776,0.347,1.662,0.628,2.466,0.796c0.221,0.047,0.461,0.024,0.681,0.082c0.287,0.073,0.241,0.159,0.074,0.4
		c-0.209,0.302-0.333,0.714-0.584,0.965C63.802,166.778,62.676,166.625,61.935,166.513 M61.501,174.232
		c-0.115-0.386-0.33-0.797-0.246-1.196c0.093-0.441,0.298-0.857,0.511-1.271c0.426-0.83,0.733-1.662,1.061-2.507
		c0.16-0.412,0.222-0.818,0.387-1.224c0.138-0.34,0.246-0.682,0.303-1.032c0.08-0.021,0.16-0.042,0.241-0.062
		c0.091-0.023,0.183-0.057,0.274-0.09c-0.099,0.319-0.125,0.686-0.187,0.994c-0.088,0.439-0.082,0.87-0.059,1.333
		c0.048,0.968,0.016,1.977-0.028,2.936c-0.045,0.964-0.266,1.869-0.408,2.808c-0.075,0.489-0.217,0.915-0.408,1.38
		c-0.125,0.304-0.359,0.628-0.494,0.946c-0.042-0.117-0.084-0.233-0.125-0.349C62.011,176.014,61.767,175.125,61.501,174.232
		 M63.948,181.928c-0.239-0.688-0.492-1.324-0.675-1.994c0.424-0.104,0.83-0.332,1.279-0.398c0.98-0.145,1.954-0.366,2.951-0.462
		c0.974-0.095,1.979-0.138,2.949-0.22c1.014-0.085,2.029-0.123,3.046-0.218c0.453-0.041,0.981-0.167,1.435-0.032
		c0.462,0.137,0.934,0.102,1.406,0.197c0.428,0.087,0.866,0.274,1.285,0.299c0.513,0.031,1.022-0.021,1.522,0.055
		c0.449,0.068,0.884,0.15,1.306,0.298c0.408,0.145,0.869,0.11,1.33,0.11c0.322,0,1.116-0.109,1.355,0.143
		c0.208,0.218,0.194,0.915,0.224,1.217c0.017,0.169,0.087,0.539-0.026,0.681c-0.13,0.162-0.415,0.134-0.6,0.16
		c-0.478,0.069-0.981,0.118-1.468,0.193c-2.124,0.323-4.366,0.676-6.525,0.379c-2.131-0.292-4.298,0.159-6.416,0.38
		c-0.482,0.05-0.94,0.11-1.441,0.11c-0.521,0-1.043-0.015-1.549,0.06c-0.242,0.035-0.754,0.058-0.899,0.28
		C64.234,182.796,64.102,182.371,63.948,181.928 M83.395,182.805c-0.414,0.343-1.236,0.419-1.746,0.488
		c-0.484,0.065-0.993,0.014-1.47,0.104c-0.536,0.103-1.095,0.214-1.664,0.155c-0.234-0.023-0.454-0.138-0.674-0.158
		c-0.207-0.019-0.524,0.041-0.729,0.081c-1.267,0.249-2.597,0.233-3.866,0.438c-0.998,0.161-1.923,0.36-2.964,0.297
		c-0.461-0.027-0.858-0.167-1.306-0.217c-0.486-0.055-0.917,0.031-1.386,0.083c-0.454,0.05-0.899,0.107-1.333,0.243
		c-0.097,0.031-0.236,0.052-0.381,0.081c-0.309-0.168-0.609-0.343-0.869-0.544c-0.106-0.082-0.2-0.173-0.283-0.27
		c0.293,0.016,0.709-0.129,0.93-0.171c0.914-0.176,1.89,0.015,2.806-0.13c0.479-0.076,0.936-0.253,1.436-0.3
		c0.496-0.047,0.966-0.144,1.453-0.218c1.037-0.159,2.085-0.028,3.121,0.028c1.063,0.058,2.135,0.054,3.208,0.054
		c1.04,0,2.091-0.078,3.12-0.188c0.523-0.056,1.042-0.143,1.563-0.213c0.242-0.033,0.489-0.098,0.728-0.121
		c0.235-0.023,0.264,0.071,0.484,0.174C83.557,182.608,83.485,182.731,83.395,182.805 M99.322,210.801
		c0.301,0.15,0.497,0.266,0.225,0.561c-0.08,0.087-0.17,0.231-0.279,0.271c-0.159,0.059-0.288-0.037-0.414,0.096
		c-0.067,0.07-0.096,0.176-0.146,0.267c0.009-0.451-0.279-1.272-0.273-1.38C98.702,210.49,99.081,210.68,99.322,210.801
		 M99.405,213.829c-0.396,0.32-1.014,0.749-1.51,0.795c-0.6,0.057-1.128-0.217-1.587-0.581c-0.412-0.329-0.792-0.833-0.916-1.332
		c-0.062-0.245-0.25-1.753,0.351-1.555c0.183,0.061,0.354,0.604,0.459,0.767c0.155,0.239,0.275,0.52,0.479,0.723
		c0.39,0.387,1.188,0.656,1.652,0.215c0.17-0.162,0.252-0.404,0.463-0.518c0.254,0.167,0.3,0.488,0.632,0.574
		c0.162,0.042,0.48,0.041,0.66-0.084c-0.061,0.13-0.107,0.293-0.129,0.348C99.86,213.435,99.618,213.656,99.405,213.829
		 M128.544,212.365c-0.24,1.282,0.052,2.979-1.112,3.892c-0.118-0.241,0.276-0.685-0.005-0.917c-0.242,0.33-0.349,0.757-0.586,1.107
		c-0.445,0.659-1.296,0.952-1.982,1.297c-0.604,0.301-1.39,0.686-2.061,0.489c-0.097-0.028-0.236-0.084-0.38-0.121
		c-0.011-0.123-0.024-0.244-0.049-0.363c-0.103-0.516-0.087-1.104-0.206-1.635c0.165,0.041,0.342,0.044,0.512,0.044
		c0.514,0,0.977-0.11,1.447-0.311c0.313-0.133,0.612-0.303,0.918-0.448c0.357-0.17,0.735-0.34,1.055-0.562
		c0.567-0.394,1.088-0.868,1.347-1.534c0.255-0.656,0.143-1.445,0.107-2.141c-0.018-0.337-0.055-0.69-0.168-0.999
		c-0.083-0.226-0.498-0.539-0.383-0.795c0.139-0.31,0.587-0.093,0.774,0.06c0.253,0.207,0.371,0.501,0.484,0.797
		c0.139,0.361,0.294,0.729,0.372,1.101C128.707,211.69,128.611,212.005,128.544,212.365"/>
	<path fill="#19171C" d="M95.552,205.27c0.271-0.002,0.42-0.032,0.646-0.153c0.002,0.032,0.009,0.069,0.024,0.112
		c0.084,0.245,0.391,0.519,0.637,0.591c0.183,0.054,0.285-0.026,0.449-0.066c0.186-0.045,0.273-0.016,0.453,0.042
		c0.254,0.082,0.682-0.026,0.688-0.362c0.007-0.307-0.309-0.646-0.55-0.801c-0.282-0.181-0.536-0.212-0.876-0.198
		c-0.355,0.014-0.546,0.125-0.858,0.26c-0.282,0.122-0.468,0.319-0.733,0.494l0.143,0.061
		C95.57,205.257,95.524,205.273,95.552,205.27 M96.777,205.104c0.114-0.044,0.251-0.064,0.349,0.036
		c-0.004-0.029,0.007-0.064,0.002-0.092c0.162,0.022,0.19-0.142,0.369-0.109c0.114,0.021,0.313,0.126,0.357,0.25
		c0.144,0.408-0.478,0.071-0.587-0.085c-0.11,0.13,0.136,0.401-0.219,0.365c-0.211-0.022-0.252-0.161-0.327-0.322
		c-0.038-0.085-0.067-0.143-0.11-0.176C96.69,204.973,96.754,205.008,96.777,205.104"/>
	<path fill="#19171C" d="M103.298,207.314c0.12,0.081,0.345,0.046,0.41-0.087c0.063-0.129-0.064-0.299-0.144-0.407
		c-0.192-0.263-0.45-0.417-0.75-0.526c-0.343-0.125-0.646-0.071-0.999-0.127c-0.166-0.026-0.327-0.16-0.347-0.307l-0.143-0.04
		c-0.215,0.103-0.571,0.432-0.61,0.673c0.094,0.066,0.204,0.031,0.299,0.088c0.106,0.062,0.075,0.15,0.251,0.159
		c0.248,0.012,0.331-0.084,0.544,0.121c0.232,0.226,0.756,0.803,1.088,0.367c-0.099-0.093-0.229-0.188-0.202-0.343
		C102.975,206.74,103.136,207.206,103.298,207.314"/>
</g>
</svg>
