<?xml version="1.0" encoding="utf-8"?>
<!-- Generator: Adobe Illustrator 14.0.0, SVG Export Plug-In . SVG Version: 6.00 Build 43363)  -->
<!DOCTYPE svg PUBLIC "-//W3C//DTD SVG 1.1//EN" "http://www.w3.org/Graphics/SVG/1.1/DTD/svg11.dtd">
<svg version="1.1" id="Layer_1" xmlns="http://www.w3.org/2000/svg" xmlns:xlink="http://www.w3.org/1999/xlink" x="0px" y="0px"
	 width="77px" height="141.014px" viewBox="90.152 89.485 77 141.014" enable-background="new 90.152 89.485 77 141.014"
	 xml:space="preserve">
<g>
	<path fill="#FFFFFF" d="M117.688,127.237c0.51-0.078,0.314-1.28,0.064-1.556c-0.336-0.371-1.124-0.114-1.475,0.101
		c-0.205-0.38-0.277-0.933-0.603-1.243c-0.44-0.418-0.987-0.128-1.478-0.056c-0.254,0.037-0.531,0.054-0.805,0.036
		c-0.43-0.03-0.258-0.013-0.596,0.222c-0.611,0.424-0.669-0.213-1.018-0.552l0.086-0.255c-0.226,0.077-0.449-0.034-0.513,0.252
		c-0.033,0.149,0.171,0.419,0.226,0.553c0.201,0.485,0.137,0.904,0.678,0.861c0.451-0.037,0.783-0.442,1.212-0.341
		c0.369,0.087,0.691,0.454,1.021,0.536c0.143-0.264-0.021-0.689,0.166-0.896c0.234-0.255,0.499-0.082,0.658,0.127
		c0.416,0.544,0.131,1.291-0.211,1.802c-0.127,0.189-0.576,0.556-0.565,0.796c0.015,0.323,0.471,0.317,0.722,0.254
		c0.809-0.204,0.842-1.022,1.07-1.647c0.297-0.049,0.772-0.281,1.011-0.091C117.577,126.328,117.581,126.968,117.688,127.237"/>
	<path fill="#FFFFFF" d="M118.233,120.612c0.48,0.395,0.79,0.953,0.984,1.539c0.211,0.635,0.296,1.293,0.329,1.951
		c0.03,0.596,0.135,1.507-0.095,2.036c-0.17,0.388-1.203,1.245-1.475,1.147l-0.17,0.127c0.057,0.148,0.027,0.331-0.037,0.459
		c0.529,0.05,0.981-0.563,1.395-0.845c0.47,0.24,0.315,0.571,0.254,1.021c-0.066,0.476-0.028,0.884,0.178,1.31
		c0.054,0.004,0.104,0.002,0.156,0.001c0.094-0.31-0.059-0.612-0.078-0.928c-0.025-0.399,0.04-0.747,0.212-1.105
		c0.304-0.637,0.527-1.056,0.562-1.771c0.058-1.215-0.328-2.505-0.765-3.625c-0.294-0.759-0.706-1.367-1.38-1.891
		c-0.279-0.218-0.732-0.526-1.092-0.517c-0.379,0.01-0.805,0.561-0.842,0.967C117.091,120.72,117.575,120.071,118.233,120.612"/>
	<path fill="#FFFFFF" d="M110.391,118.846c0.654,0.493,0.5,0.061,1.008-0.266c0.596,0.792,1.665-0.955,1.994-1.272
		c0.405,0.397,0.426,1.494,0.144,1.96c0.969,0.118,0.383-1.143,0.916-1.238c0.388-0.07,0.78,1.138,0.263,1.373
		c0.375,0.456,0.664,0.533,0.957,0.005c0.275,0.168,0.419,0.496,0.618,0.733c0.058-0.067,0.157-0.199,0.204-0.282
		c-0.404-0.446-0.84-1-0.99-1.579c-0.083-0.318-0.047-0.702-0.341-0.914c-0.3-0.218-0.626-0.1-0.538,0.313
		c-0.203-0.402-0.698-0.634-0.85-1.048c-0.165-0.455,0.18-1.266-0.213-1.615c-1.092,0.484-0.586,2.417-1.733,3.014
		c0.046-0.396,0.787-2.064-0.085-2.154c-0.232,0.499-0.391,2.34-1.188,2.363c0.036-0.393,0.195-0.903,0.112-1.306
		c-0.713,0.92-1.107,2.1-1.393,3.18h0.171C110.119,119.915,109.964,119.223,110.391,118.846"/>
	<path fill="#FFFFFF" d="M107.655,130.905c0.134,0.131,0.652,0.011,0.817-0.013c0.457-0.067,0.979-0.287,1.478-0.206
		c-0.035,0.407,0.471,0.644,0.719,0.28c0.215-0.317-0.037-0.759-0.34-0.914c-0.647-0.33-1.762-0.052-2.362,0.171
		c0.016,0.07,0.036-0.006,0.08-0.011l-0.171,0.17C107.68,130.445,107.46,130.714,107.655,130.905"/>
	<path fill="#FFFFFF" d="M116.194,130.435c-0.271-0.086-1.369-0.218-1.443-0.009l-0.127,0.085c-0.219,0.012-0.773,0.334-0.682,0.637
		c0.119,0.391,0.747,0.079,0.978,0.041c0.731-0.12,1.571-0.228,2.243,0.039C117.038,130.827,116.569,130.553,116.194,130.435"/>
	<path fill="#FFFFFF" d="M109.585,133.109c0.219-0.104,0.271-0.322,0.467-0.434c0.192-0.11,0.449,0.008,0.703-0.093
		c0.218-1.145-3.185-1.028-2.957,0.085c0.379,0.089,0.531-0.496,0.843-0.333l-0.042,0.127
		C108.253,133.027,109.175,133.304,109.585,133.109"/>
	<path fill="#FFFFFF" d="M115.77,133.555c0.198-0.103,0.313-0.413,0.509-0.459c0.198-0.046,0.501,0.196,0.757,0.166
		c-0.051-0.563-0.809-1.03-1.309-1.097c-0.702-0.093-1.331,0.284-1.867,0.679l0.17,0.042c-0.026,0.02-0.081,0.024-0.113,0.043
		c0.272,0.106,0.563-0.074,0.828-0.121C114.778,133.44,115.019,133.946,115.77,133.555"/>
	<path fill="#FFFFFF" d="M111.218,135.211c0.189-0.35-0.072-0.448-0.37-0.457c-0.892-0.028-0.733,0.712-0.223,1.156
		c0.511,0.446,0.932,0.702,1.622,0.668c0.455-0.021,1.301-0.123,1.562-0.603c0.134-0.248,0.021-0.666-0.117-0.883
		c-0.219-0.343-0.333-0.312-0.638-0.125v0.211c0.032,0.311,0.281,0.442-0.044,0.679c-0.207,0.151-0.601,0.197-0.846,0.256
		c-0.452,0.109-1.278-0.182-1.512-0.671C110.891,135.323,111.053,135.513,111.218,135.211"/>
	<path fill="#FFFFFF" d="M109.83,138.732c0.517,0.376,1.235,0.497,1.864,0.52c0.725,0.026,1.426-0.202,2.039-0.583
		c0.295-0.185,0.611-0.36,0.636-0.733c0.022-0.327-0.196-0.57-0.176-0.927c-0.601,0.077-1.504,0.68-1.813,1.215
		c0.253-0.013,0.518-0.112,0.797-0.068c-0.146,0.857-1.808,0.456-2.275,0.194c-0.744-0.415-0.595-1.317-1.454-1.602l-0.127,0.128
		c-0.052,0.058-0.122,0.148-0.159,0.221C108.868,137.671,109.366,138.394,109.83,138.732"/>
	<path fill="#FFFFFF" d="M122.632,105.087c0.192,0.983,0.259,1.915,0.578,2.892c0.262,0.801,0.553,1.762,1.033,2.483
		c0.475,0.711,1.141,1.341,1.669,1.997c0.878,1.089,1.836,2.415,2.969,3.256c0.649,0.482,1.501,0.962,2.264,1.243
		c0.736,0.271,1.745,0.23,2.25,0.92l0.036,0.012c-0.215,0.668-0.811,1.414-1.041,1.981c-0.287,0.706-0.927,1.598-0.909,2.355
		c0.412,0.06,0.811-0.098,1.235-0.105c0.25-0.004,0.479,0.022,0.711,0.042c0.125,1.34-0.072,2.792-0.14,4.146
		c-0.072,1.443,0.012,2.825,0.135,4.244c0.124,1.417,0.128,2.892,0.128,4.328c0,1.595-0.207,3.203-0.127,4.795
		c0.041,0.805,0.014,1.659,0.052,2.483c0.025,0.535,0.026,1.148,0.087,1.723c-0.26-0.108-0.617-0.055-0.845,0.096
		c-0.262,0.174-0.267,0.526-0.29,0.812c-0.027,0.296-0.097,0.756,0,1.039c0.069,0.205,0.206,0.23-0.022,0.399
		c-0.123,0.091-0.288,0.141-0.424,0.201c-0.228,0.102-0.623,0.293-0.717,0.552c-0.095,0.257,0.176,0.609,0.34,0.796
		c0.177,0.202,0.592,0.276,0.275,0.52c-0.287,0.221-0.408,0.356-0.392,0.764c0.012,0.292,0.23,0.554,0.533,0.61
		c0.18,0.034,0.356-0.066,0.284,0.174c-0.036,0.121-0.183,0.219-0.266,0.309c-0.236,0.252-0.334,0.5-0.012,0.722
		c0.327,0.226,0.483,0.208,0.483,0.663c0,0.33,0.038,0.605,0.229,0.874c0.431,0.612,1.34,0.247,1.894,0.102l0.042-0.149
		c-0.582-0.236-1.338,0.176-1.703-0.546c-0.204-0.403,0.088-0.54,0.451-0.557c0.335-0.016,0.681-0.044,0.996-0.128
		c0.103-0.027,0.43-0.107,0.256-0.233c-0.089-0.065-0.398,0.023-0.487,0.042c-0.339,0.068-0.653,0.014-0.981-0.037
		c-0.271-0.041-0.606-0.082-0.807-0.316c-0.225-0.264,0.033-0.58,0.28-0.732c0.243-0.152,0.6-0.257,0.868-0.314
		c0.301-0.064,0.73-0.016,1.001-0.167c0.432-0.244-0.451-0.163-0.574-0.149c-0.327,0.036-0.684,0.029-1.019,0
		c-0.263-0.022-0.658-0.081-0.864-0.261c-0.116-0.102-0.188-0.278-0.069-0.377c0.106-0.087,0.348-0.04,0.472-0.079
		c0.321-0.103,0.591-0.275,0.929-0.344c0.25-0.051,0.789-0.013,0.977-0.192c0.304-0.29-0.535-0.264-0.723-0.255
		c-0.324,0.017-0.656,0.129-0.979,0.047c-0.283-0.07-0.56-0.252-0.653-0.535c-0.128-0.388,0.119-0.571,0.467-0.679
		c0.451-0.139,1.299,0.123,1.609-0.335c-0.283-0.095-0.708,0.001-1.016,0.017c-0.069,0.003-0.162,0.048-0.234,0.021
		c-0.148-0.055-0.062-0.02-0.036-0.143c0.012-0.063,0.088-0.075,0.096-0.149c0.004-0.039-0.07-0.151-0.081-0.195
		c-0.075-0.302-0.054-0.682,0.038-0.96c0.092-0.276,0.207-0.765,0.521-0.355c0.125,0.164,0.161,0.331,0.163,0.53
		c0.003,0.197-0.053,0.339,0.17,0.361c0.301,0.029,0.398-0.132,0.4-0.328c0.031-0.035,0.062-0.085,0.089-0.16
		c0.085-0.232-0.136-0.694-0.171-0.934c-0.108-0.725-0.011-1.455,0.095-2.164c0.111-0.745,0.211-1.473,0.203-2.25
		c-0.009-0.763-0.182-1.498-0.254-2.249c-0.144-1.477-0.009-2.991-0.086-4.499c-0.076-1.502-0.051-3.05-0.127-4.583
		c-0.068-1.361-0.306-2.792-0.128-4.201c0.071-0.559,0.276-1.207,0.216-1.797c0.646-0.035,1.625-0.201,1.897-0.893
		c-0.558-0.544-0.949-0.935-1.063-1.709c-0.042-0.282-0.061-1.247-0.309-1.76c0.583-0.279,1.15-0.821,1.565-1.168
		c0.746-0.626,1.605-1.077,2.347-1.726c2.526-2.213,4.69-5.54,5.321-8.769c0.181-0.923,0.168-1.907,0.354-2.815
		c0.182-0.899,0.454-1.813,0.396-2.775c-0.095-1.554-0.653-3.604-1.371-5.034c-1.532-3.05-4.415-5.225-7.739-5.897
		c-1.877-0.379-3.793,0.023-5.533,0.706c-1.536,0.603-3.09,1.188-4.271,2.46c-1.158,1.249-1.704,2.843-2.377,4.359
		c-0.799,1.798-1.106,3.313-1.004,5.332C122.239,103.424,122.461,104.212,122.632,105.087 M134.815,121.499
		c-0.297,0.276-0.799,0.194-1.184,0.293c-0.021,0.078-0.058,0.132-0.08,0.209c-0.337-0.199-1.158-0.209-1.219-0.502
		c-0.062-0.299,0.515-0.988,0.652-1.259c0.395-0.777,0.504-1.496,0.655-2.281l0.085,0.029
		C133.674,118.98,134.617,121.126,134.815,121.499 M123.538,99.036c0.966-3.194,2.521-6.216,5.615-7.879
		c3.006-1.616,7.294-1.239,10.127,0.622c2.931,1.925,3.784,5.491,4.413,8.615c0.186,0.927,0.118,1.696-0.101,2.603
		c-0.204,0.846-0.197,1.735-0.365,2.59c-0.163,0.832-0.572,1.72-0.891,2.501c-0.342,0.836-0.59,1.787-0.978,2.591
		c-0.658,1.361-2.215,2.277-3.267,3.348c-0.625,0.637-1.239,1.207-1.968,1.713c-0.595,0.413-1.191,1.292-1.825,1.515l-0.17-0.113
		c-0.689-0.076-1.568-0.386-2.275-0.721c-1.513-0.716-2.799-1.509-3.932-2.743c-1.239-1.35-2.435-2.328-3.184-4.004
		c-0.358-0.799-0.695-1.521-0.91-2.376c-0.211-0.842-0.17-1.794-0.334-2.661C123.191,103.031,123.056,100.627,123.538,99.036"/>
	<path fill="#FFFFFF" d="M102.303,154.289c0.188-0.009,0.478-0.215,0.652-0.29c0.455-0.195,0.814-0.341,1.299-0.39
		c0.451-0.046,0.962-0.104,1.394-0.035c0.477,0.076,0.958,0.216,1.437,0.318c0.982,0.211,2.038,0.176,3.055,0.226
		c0.98,0.048,1.975,0.009,2.943,0.057c0.264,0.013,0.532,0,0.797,0c0.307,0,0.365-0.007,0.568,0.19
		c0.354,0.346,0.586,0.463,1.039,0.637c0.408,0.156,0.807,0.301,1.21,0.482c0.203,0.092,0.905,0.547,1.11,0.474
		c0.161-0.058,0.213-0.413,0.113-0.54c-0.065-0.084-0.435-0.176-0.545-0.218c-0.41-0.157-0.811-0.342-1.212-0.537
		c-0.396-0.194-0.814-0.298-1.214-0.467c-0.465-0.197-0.756-0.507-1.274-0.558c-0.952-0.095-1.964-0.118-2.913-0.164
		c-1.045-0.052-2.123-0.04-3.168-0.064c-0.904-0.02-1.599-0.666-2.541-0.475c-0.453,0.094-0.938,0.176-1.422,0.249
		c-0.527,0.08-0.799,0.267-1.244,0.531c-0.088,0.053-0.162,0.104-0.254,0.147l-0.141,0.028
		C102.048,154.081,102.011,154.301,102.303,154.289"/>
	<path fill="#FFFFFF" d="M111.358,179.356c0.824-0.353,1.86-0.26,2.748-0.392c0.48-0.07,0.904-0.284,1.359-0.453
		c0.455-0.168,0.899-0.254,1.352-0.422c0.781-0.29,1.675-0.809,2.256-1.401c0.322-0.328,0.292-0.854-0.283-0.623
		c-0.348,0.142-0.639,0.482-0.989,0.65c-0.812,0.388-1.46,0.926-2.343,1.14c-0.914,0.221-1.824,0.267-2.744,0.453
		c-0.436,0.087-0.903,0.21-1.357,0.255c-0.489,0.049-0.986-0.09-1.471-0.114c-0.477-0.024-0.909,0.146-1.387,0.17
		c-0.463,0.024-0.932-0.063-1.386,0c-0.36,0.052-0.759,0.14-1.132,0.114l-0.311,0.056c-0.318,0.876,1.713,0.735,2.234,0.735
		c0.501,0,1.029-0.047,1.528,0c0.571,0.054,0.591,0.439,0.707,0.905c0.109,0.438,0.353,0.791,0.537,1.188
		c0.188,0.404,0.26,0.909,0.282,1.359c0.036,0.705-0.2,2.57,1.049,1.703c0.717-0.497,1.102-1.58,1.215-2.395
		c0.072-0.521-0.242-0.793-0.283-1.261c-0.021-0.234,0.135-0.488,0.114-0.706c-0.021-0.235-0.292-0.402-0.505-0.193
		c-0.174,0.171-0.189,0.942-0.146,1.182c0.073,0.409,0.322,0.721,0.311,1.161c-0.01,0.423-0.269,0.729-0.479,1.072
		c-0.176,0.287-0.349,0.677-0.675,0.818c-0.055-0.946,0.139-1.811-0.252-2.689C111.007,180.991,110.396,179.766,111.358,179.356"/>
	<path fill="#FFFFFF" d="M113.434,210.572c0.303-0.106,2.813,0.338,2.137-0.466c-1.043-0.245-2.415,0.069-3.123,0.949
		c-0.725,0.899-1.18,2.253,0.459,1.948c-0.188,0.439,0.195,1.163,0.574,0.613c0.109-0.158-0.021-0.604,0.053-0.795
		c0.096-0.25,0.234-0.319,0.412-0.493c0.139-0.135,0.757-0.574,0.725-0.806c-0.068-0.488-0.687,0.155-0.84,0.294
		c-0.39,0.357-1.684,1.636-1.585,0.451C112.292,211.725,112.855,210.775,113.434,210.572"/>
	<path fill="#FFFFFF" d="M133.192,213.591c-0.189-0.077-0.463-0.033-0.674-0.033c-0.833,0-1.839,0.038-2.44-0.616
		c-0.284-0.31-0.557-0.63-0.934-0.819c-0.388-0.197-0.741-0.385-1.005-0.744c-0.183-0.25-0.537-0.878-0.289-1.131
		c0.125-0.129,1.137-0.476,0.481-0.651c-0.403-0.107-0.914,0.101-1.302,0.143c-0.457,0.05-0.955,0.103-1.414,0.169
		c-0.221,0.033-0.406,0.121-0.623,0.164c-0.215,0.043-0.447,0.027-0.649,0.091c-0.396,0.124-0.838,0.601-1.104,0.905
		c-0.135,0.152-0.204,0.322-0.396,0.418c-0.189,0.095-0.418,0.103-0.615,0.154c-0.389,0.103-0.797,0.225-1.201,0.326
		c-0.453,0.115-0.88,0.191-1.322,0.34c-0.441,0.148-0.879,0.195-1.296,0.409c-0.722,0.372-1.265,1.033-1.987,1.388
		c-0.318,0.156-1.043,0.202-1.308-0.091c-0.421-0.464,0.456-0.721,0.291-1.191c-0.185-0.528-0.688,0.242-0.786,0.432
		c-0.198,0.385-0.375,0.834-0.064,1.21l0.029,0.084c0.285,0.127,0.419,0.273,0.763,0.256c0.065-0.005,0.127-0.01,0.188-0.016
		c-0.244,0.363-0.352,1.2-0.402,1.441c-0.125,0.596-0.321,1.17-0.645,1.689c-0.472,0.756-1.02,0.409-1.729,0.552
		c-0.688,0.137-1.159-0.03-1.516-0.681c-0.319-0.58-0.362-1.197-0.437-1.855c-0.072-0.639-0.293-1.25-0.392-1.899
		c-0.093-0.614-0.298-1.244-0.33-1.877c-0.033-0.673,0.104-1.286,0.042-1.951c-0.049-0.513,0.02-1.078-0.1-1.574
		c0.376-0.39,0.742-0.79,1.107-1.195c0.849-0.943,1.289-2.302,1.402-3.512c0.064-0.693,0.125-1.401,0.052-2.122
		c-0.021-0.212,0.022-0.851-0.245-0.84c-0.32,0.015-0.296,0.599-0.307,0.797c-0.037,0.698,0.111,1.33,0.042,2.038
		c-0.063,0.631-0.181,1.258-0.435,1.857c-0.502,1.185-1.393,2.023-2.334,2.884c-0.883,0.808-1.68,1.893-2.377,2.845
		c-0.691,0.946-2.531,0.916-3.48,0.318c-0.416-0.263-0.95-0.762-1.26-1.155c-0.473-0.6-0.123-1.251,0.041-1.869
		c0.347-1.31,0.964-2.459,1.569-3.695c0.423-0.86,0.565-1.694,0.34-2.586l-0.042-0.085c-0.114-0.403-0.514-0.195-0.594,0.085
		c-0.1,0.343,0.128,0.65,0.127,0.977c-0.001,0.519-0.313,1.247-0.539,1.709c-0.547,1.105-0.949,2.203-1.371,3.341
		c-0.181,0.488-0.504,1.135-0.432,1.694c-0.099,0.117-0.06,0.337-0.076,0.512c-0.059,0.562-0.104,1.108-0.213,1.655
		c-0.111,0.553-0.304,1.082-0.533,1.601c-0.018-0.015-0.035-0.028-0.053-0.042c-0.502-0.39-1.404-0.853-2.045-0.837l-0.425,0.043
		c-0.074,0.107-0.11,0.252-0.122,0.374c0.252,0.204,0.633,0.13,0.928,0.187c0.295,0.058,0.539,0.177,0.797,0.342
		c0.223,0.142,0.459,0.28,0.695,0.421c-0.244,0.508-0.512,1.011-0.758,1.521c-0.549,1.137-1.289,2.185-1.666,3.395
		c-0.215,0.685-0.097,1.249,0.157,1.909c0.228,0.586,0.382,1.191,0.647,1.738c0.5,1.028,1.478,1.784,2.514,2.238
		c1.141,0.501,2.811,0.371,3.938-0.105c0.535-0.227,1.007-0.446,1.452-0.85c0.223-0.2,0.938-1.435,0.336-1.444
		c-0.391,0.704-0.808,1.19-1.524,1.572c-1.093,0.584-2.405,0.815-3.618,0.404c-1.112-0.377-2.261-1.325-2.64-2.442
		c-0.179-0.524-0.563-1.031-0.669-1.578c-0.045-0.232-0.191-0.919,0.181-0.733c0.218,0.108,0.288,0.589,0.358,0.784
		c0.234,0.641,0.408,1.313,0.937,1.784c0.438,0.391,1.094,0.749,1.366,0.031c0.223-0.587,0.34-1.217,0.859-1.688
		c0.48-0.434,1.117-0.444,1.73-0.478c0.627-0.033,1.339,0.052,1.866,0.341c0.472,0.257,0.747,1.17,1.31,1.054
		c0.024-1.261-1.037-1.442-2.021-1.7c-0.494-0.13-1.001-0.221-1.527-0.108c-0.443,0.094-1.1,0.146-1.497,0.404
		c-0.187,0.121-0.337,0.278-0.464,0.453c0.052-0.443-0.461-1.209-0.56-1.489c-0.249-0.71-0.525-1.443-0.742-2.149l-0.142-0.085
		c-0.173,0.297,0.104,0.648,0.221,0.935c0.136,0.335,0.271,0.715,0.344,1.073c0.114,0.576,0.211,1.587,0.709,1.982v-0.001
		c-0.125,0.22-0.229,0.449-0.33,0.66c-0.381,0.8-0.863,0.499-1.08-0.214c-0.191-0.625-0.232-1.285-0.617-1.875
		c-0.414-0.636-0.704-0.826-0.34-1.561c0.258-0.516,0.566-0.969,0.871-1.465c0.34-0.553,0.348-1.197,0.699-1.727
		c0.063-0.095,0.138-0.18,0.221-0.262c0.125,0.085,0.248,0.17,0.364,0.261c0.19,0.148,0.416,0.539,0.603,0.627
		c0.436,0.2,0.199-0.333,0.031-0.534c-0.178-0.215-0.404-0.431-0.641-0.636c0.762-0.489,1.897-0.684,2.637-0.731
		c1.475-0.094,2.086,1.332,1.796,2.613c-0.263,0.011-0.521,0.03-0.735,0.019c-0.511-0.031-0.506-0.052-0.422-0.466
		c0.058-0.292,0.143-0.636,0.041-0.937c-0.563-1.693-1.936,0.917-2.249,1.147l0.169,0.255c0.521-0.029,0.536-0.501,0.818-0.882
		c0.182-0.245,0.651-0.793,0.881-0.394c0.326,0.565-0.276,0.811-0.586,0.99c-0.174,0.1-0.299,0.319-0.476,0.371
		c-0.228,0.066-0.485-0.092-0.716-0.079c-0.234,0.403,0.51,0.565,0.756,0.588c0.489,0.045,0.749-0.172,1.18-0.266
		c0.265-0.057,0.748,0.021,1.226,0.071c-0.159,0.518-0.343,1.006-0.324,1.593c0.009,0.262,0.37,1.682,0.842,1.221
		c-0.124-0.191-0.294-0.434-0.343-0.667c-0.128-0.614,0.167-1.298,0.317-1.858c0.022-0.082,0.038-0.166,0.051-0.253
		c0.339,0.005,0.624-0.045,0.749-0.225c-0.179-0.155-0.435-0.213-0.713-0.229c0.01-0.417-0.021-0.855,0.021-1.264
		c0.065-0.636,0.162-1.271,0.433-1.859c0.154-0.335,0.566-0.817,0.692-1.226c0.101-0.142,0.187-0.331,0.285-0.596
		c0.231-0.617,0.658-0.938,1.145-1.358c0.351-0.302,0.685-0.616,1.009-0.938c0.14,0.418-0.001,1.432,0.01,1.656
		c0.039,0.711,0.112,1.396,0.215,2.08c0.197,1.323,0.442,2.654,0.593,3.989c0.052,0.461,0.158,1.254,0.489,1.635
		c-0.152,0.263-0.434,0.548-0.568,0.749c-0.248,0.367-0.357,0.768-0.374,1.209c-0.019,0.489-0.032,0.958-0.057,1.441
		c-0.026,0.529-0.166,0.849-0.34,1.332c-0.312,0.867-0.448,1.814-0.537,2.715c-0.045,0.454-0.169,0.88-0.17,1.33
		c-0.001,0.488,0.284,0.696,0.587,1.053c0.291,0.343,0.504,0.635,0.906,0.821c0.357,0.165,0.777,0.309,1.172,0.426
		c0.865,0.256,1.806,0.342,2.684,0.586c0.832,0.23,1.707,0.506,2.602,0.395c0.801-0.099,1.737-0.365,2.469-0.754
		c0.392-0.209,0.854-0.41,0.897-0.886c0.041-0.44-0.011-0.948-0.163-1.337c-0.279-0.708-0.795-1.282-1.42-1.726
		c-0.379-0.268-0.771-0.311-1.19-0.443c-0.173-0.057-0.417-0.107-0.479-0.285c-0.064-0.182,0.057-0.462,0.057-0.65
		c0-0.239-0.088-0.342-0.164-0.543c-0.059-0.158-0.047-0.462-0.182-0.589c-0.018-0.017-0.033-0.026-0.049-0.037
		c0.07-0.052,0.14-0.103,0.203-0.154c0.32-0.259,0.74-0.363,1.123-0.459c0.205-0.05,0.479-0.04,0.32-0.29
		c-0.129-0.205-0.429-0.163-0.631-0.163c-0.494,0-0.873,0.146-1.273,0.447c-0.006,0.005-0.012,0.009-0.018,0.013
		c0.151-0.5,0.062-1.113,0.448-1.562c0.292-0.337,0.648-0.631,1.021-0.871c0.236-0.153,1.192-0.463,0.502-0.737
		c-0.787-0.311-1.861,0.972-2.215,1.516c-0.295,0.458-0.678,0.102-1.01-0.162c-0.336-0.269-0.813-0.473-1.246-0.32
		c-0.358,0.126-0.618,0.461-0.96,0.623c-0.416,0.197-0.885,0.15-1.274,0.402c-0.257,0.168-0.393,0.462-0.566,0.698
		c0.001-0.023,0.006-0.053,0.001-0.075l-0.028,0.254c0.059,0.154,0.374,0.24,0.516,0.177c0.18-0.079,0.225-0.302,0.305-0.459
		c0.223-0.432,0.648-0.434,1.075-0.511c0.394-0.069,0.661-0.407,1.046-0.503c0.549-0.135,0.937,0.103,1.281,0.497
		c0.262,0.299,0.391,0.849,0.226,1.229c-0.17,0.392-0.688,0.347-1.081,0.327c-0.373-0.019-1.109-0.204-1.443,0.015
		c-0.547,0.354,0.008,0.839,0.374,1.003c0.375,0.169,0.931,0.314,1.329,0.156c0.212-0.083,0.373-0.277,0.566-0.368
		c0.217-0.101,0.432-0.141,0.645-0.255c0.171-0.093,0.35-0.196,0.521-0.305c-0.037,0.247,0.014,0.633,0.038,0.729
		c0.088,0.326,0.098,1.041-0.185,1.217c-0.163,0.101-0.446,0.082-0.63,0.141c-0.182,0.06-0.373,0.2-0.564,0.222
		c-0.242,0.025-0.357-0.1-0.566-0.179c-0.22-0.083-0.472-0.093-0.707-0.105c-0.248-0.015-0.443,0.045-0.68-0.021
		c-0.191-0.054-0.377-0.167-0.564-0.234c-0.357-0.131-0.698-0.253-1.041-0.431c-0.152-0.079-0.387-0.148-0.508-0.283
		c-0.131-0.144-0.168-0.347-0.298-0.501c-0.11-0.131-0.351-0.241-0.425-0.39c-0.088-0.175-0.014-0.527,0.071-0.686
		c0.224-0.416,0.442-0.626,0.389-1.161c-0.062-0.615-0.381-1.24-0.035-1.837c0.141-0.244,0.302-0.49,0.452-0.716
		c0.112-0.167,0.277-0.26,0.428-0.373c0.44,0.148,0.977,0.188,1.362,0.168c0.612-0.031,1.435,0.056,1.869-0.425
		c0.057-0.062,0.106-0.125,0.151-0.188c0.246,0.271,0.222,0.946,0.249,1.221c0.024,0.248,0.163,1.202,0.587,1.154
		c0.358-0.039-0.123-0.89-0.167-1.098c-0.099-0.461-0.053-0.974-0.145-1.434c-0.04-0.197-0.058-0.445-0.147-0.636
		c0.079-0.247,0.146-0.5,0.244-0.757c0.261-0.687,0.354-1.29,0.326-2.047c0.135-0.028,0.268-0.068,0.405-0.127
		c0.733-0.313,1.31-0.855,2.032-1.187c0.715-0.329,1.422-0.595,2.154-0.851c0.773-0.271,1.574-0.545,2.371-0.771
		c0.811-0.23,1.299-1.117,2.087-1.335c0.614-0.17,1.942-0.632,2.319,0.155c0.174,0.363,0.34,0.678,0.621,0.989
		c0.275,0.304,0.61,0.411,0.918,0.637c0.659,0.481,1.02,1.307,1.891,1.478c0.443,0.087,0.888,0.085,1.358,0.085
		C132.246,213.812,133.294,213.951,133.192,213.591 M106.01,213.134c-0.073,0.191-0.255,0.732-0.502,0.714
		c-0.097-0.009-0.557-0.413-0.721-0.47c-0.637-0.218-1.093-0.344-1.824-0.193c-0.516,0.106-1.127,0.599-1.658,0.578
		c0.13-0.536,0.041-1.181,0.122-1.732c0.048-0.326,0.278-0.704,0.407-1.048c0.221,0.216,0.463,0.419,0.622,0.569
		c1.085,1.031,2.266,0.948,3.637,0.817c0.108-0.012,0.206-0.022,0.295-0.036C106.241,212.569,106.131,212.823,106.01,213.134
		 M114.1,223.885c-0.366,0.054-0.75-0.113-0.873-0.505c0.471-0.026,0.879,0.185,1.353,0.192c0.163,0.003,0.325-0.013,0.483-0.044
		C114.766,223.7,114.451,223.832,114.1,223.885 M114.448,227.054c0.242-0.327,0.439-0.738,0.791-0.985
		c0.297-0.209,0.852-0.32,1.209-0.374c0.074-0.011,0.24-0.028,0.255-0.028l0.255,0.028c0.232-0.021,0.367,0.1,0.566,0.169
		c0.199,0.068,0.376,0.058,0.573,0.163c0.343,0.184,0.569,0.508,0.756,0.827c0.366,0.632,1.083,1.731,0.112,2.144
		c-0.396,0.168-0.816,0.238-1.193,0.452c-0.383,0.219-0.696,0.551-1.127,0.629c-0.451,0.08-0.826,0.012-1.222-0.189
		c-0.392-0.201-0.802-0.24-1.075-0.602c-0.268-0.352-0.481-0.597-0.418-1.075C113.993,227.732,114.167,227.432,114.448,227.054
		 M110.903,224.981c0.324,0.168,0.68,0.277,1.012,0.438c0.343,0.166,0.647,0.452,0.997,0.558c0.4,0.121,0.687-0.113,1.099-0.079
		c0.093,0.195-0.051,0.472-0.079,0.647c-0.023,0.152,0.046,0.425-0.136,0.532c-0.198-0.326-0.443,0.011-0.623,0.153
		c-0.213,0.169-0.467,0.216-0.741,0.218c-0.526,0.006-1.108-0.241-1.557-0.516c-0.144-0.087-1.038-0.756-0.878-0.219
		c0.068,0.228,0.85,0.461,1.078,0.587c0.408,0.226,0.844,0.372,1.271,0.58c0.23,0.112,0.357,0.208,0.621,0.135
		c0.207-0.06,0.386-0.223,0.592-0.251c0.006,0.33-0.08,0.649-0.051,0.985c0.031,0.366,0.12,0.505,0.318,0.817
		c-0.889-0.385-1.979-0.364-2.917-0.711c-0.448-0.165-0.833-0.314-1.16-0.702c-0.32-0.38-0.284-0.76-0.261-1.243
		c0.023-0.479,0.141-0.899,0.227-1.358c0.078-0.42,0.055-0.878,0.311-1.244l0.113,0.028
		C110.424,224.454,110.608,224.825,110.903,224.981"/>
	<path fill="#FFFFFF" d="M147.274,224.321c-0.296-0.195-0.611-0.215-0.548-0.686c0.039-0.291,0.326-0.565,0.51-0.784
		c0.283-0.337,0.594-0.321,0.998-0.36c0.652-0.063,1.25-0.366,1.745-0.827c0.26-0.242,0.496-0.505,0.722-0.78
		c0.17-0.208,0.479-0.463,0.505-0.748c0.021-0.224-0.118-0.254-0.319-0.233l-0.17,0.085c-0.202,0.184-0.358,0.474-0.552,0.685
		c-0.199,0.215-0.377,0.446-0.588,0.658c-0.52,0.519-0.962,0.584-1.662,0.652c-0.606,0.059-1.371,0.512-1.611,1.104
		c-0.224,0.551-0.176,1.526,0.573,1.607C147.146,224.722,147.689,224.596,147.274,224.321"/>
	<path fill="#FFFFFF" d="M148.468,223.361c-0.457,0.031-0.851,0.444-0.997,0.871c-0.093,0.269-0.045,0.639,0.152,0.863
		c0.08,0.093,0.271,0.218,0.398,0.175c0.203-0.066,0.061-0.204-0.005-0.334c-0.152-0.303-0.031-0.628,0.211-0.859
		c0.268-0.256,0.501-0.25,0.324-0.673L148.468,223.361z"/>
	<path fill="#FFFFFF" d="M154.641,221.774c0.176-0.012,0.32,0.085,0.487,0.102c0.187,0.018,0.354-0.031,0.53-0.043
		c0.336-0.021,0.698,0.017,0.723,0.382c0.045,0.72,0.015,1.405-0.063,2.105c-0.043,0.389-0.186,0.634-0.429,0.946
		c-0.215,0.274-0.433,0.368-0.733,0.519c-0.37,0.186-0.754,0.327-0.911,0.758c-0.146,0.396-0.258,0.844-0.235,1.271
		c0.274,0.054,0.633-0.25,0.888-0.342c0.496-0.179,0.027-0.402,0.042-0.758c0.015-0.389,0.421-0.611,0.742-0.738
		c0.349-0.138,0.618-0.342,0.896-0.594c0.343-0.308,0.436-0.572,0.481-1.023c0.037-0.364,0.094-0.711,0.107-1.078
		c0.021-0.587-0.086-1.554-0.764-1.739c-0.599-0.164-1.296,0.181-1.867-0.153c-0.188-0.109-0.59-0.302-0.658-0.509
		c-0.081-0.244,0.165-0.65-0.251-0.704c-0.009-0.164,0.041-0.341-0.094-0.458c-0.097-0.086-0.411-0.116-0.525-0.048
		c-0.158,0.093-0.092,0.306-0.084,0.466c0.01,0.191-0.038,0.228-0.108,0.323c-0.111-0.146-0.359-0.29-0.46-0.392
		c-0.475-0.48-0.691-1.222-0.987-1.814c-0.348-0.697-0.386-1.376-0.565-2.107c-0.075-0.302-0.064-0.8-0.229-1.064
		c-0.136-0.22-0.245-0.205-0.451-0.207c-0.167-0.001-0.283-0.048-0.335-0.217c-0.102-0.333,0.205-0.739,0.351-1.014
		c0.168-0.316,0.281-0.645,0.281-0.997c0.001-0.662-0.165-1.363-0.381-1.975c-0.094-0.266-0.225-0.542-0.377-0.768
		c-0.223-0.326-0.486-0.112-0.728,0.09l0.064,0.169c0.002,0.016,0.007,0.03,0.015,0.043c0.328,0.744,0.673,1.42,0.744,2.228
		c0.034,0.393-0.033,0.761-0.17,1.126c-0.118,0.313-0.435,0.683-0.352,1.033c0.022,0.094,0.066,0.183,0.121,0.271
		c-0.265-0.176-0.532-0.334-0.789-0.536c-0.54-0.427-1.106-0.608-1.756-0.706c-0.338-0.05-0.669-0.137-0.996-0.255
		c-0.315-0.113-0.476-0.367-0.827-0.297c-0.627,0.126-1.203,0.62-1.804,0.863c-0.677,0.274-1.346,0.443-2.043,0.617
		c-0.329,0.082-0.685,0.057-1.009,0.137c-0.316,0.078-0.682,0.069-1.022,0.036c-0.397-0.038-1.331-0.425-1.788-0.199
		c0.03-0.127,0.067-0.252,0.111-0.371c0.128-0.342,0.102-0.623,0.367-0.909c0.208-0.225,0.389-0.416,0.54-0.684
		c0.336-0.588,0.25-1.325,0.387-1.975c0.02-0.093,0.146-0.388,0.061-0.487c-0.126-0.147-0.293,0.097-0.361,0.187
		c-0.19,0.251-0.303,0.604-0.314,0.917c-0.012,0.349,0.093,0.682,0,1.02c-0.086,0.318-0.244,0.633-0.503,0.853
		c-0.261,0.221-0.393,0.4-0.584,0.686c-0.203,0.306-0.205,0.544-0.206,0.922c0,0.369,0.036,0.729,0.068,1.1
		c0.028,0.331,0.135,0.658,0.122,1c-0.012,0.351-0.191,0.547-0.387,0.822c-0.084,0.119-0.123,0.301-0.223,0.394
		c-0.117,0.106-0.297,0.08-0.435,0.117c-0.136,0.035-0.354,0.217-0.482,0.217c-0.199,0.001-0.076-0.178-0.007-0.303
		c0.114-0.203,0.155-0.226-0.054-0.359c-0.163-0.105-0.27-0.096-0.448-0.079c-0.829,0.075-0.365-1.027-0.197-1.406
		c0.15-0.34-0.24-0.449-0.458-0.202c-0.21,0.239-0.244,0.621-0.258,0.929c-0.011,0.201-0.012,0.414,0.046,0.604
		c0.031,0.105,0.188,0.299,0.183,0.397c-0.02,0.346-0.644,0.161-0.788-0.021c-0.187-0.238-0.311-0.603-0.381-0.897
		c-0.095-0.398,0.029-0.644,0.347-0.885c0.088-0.067,0.288-0.193,0.254-0.324c-0.037-0.148-0.281-0.154-0.383-0.127
		c-0.294,0.082-0.64,0.379-0.79,0.637c-0.201,0.344-0.184,0.657-0.08,1.018c0.044,0.15,0.052,0.364-0.19,0.299
		c-0.133-0.037-0.203-0.257-0.235-0.383c-0.042-0.172-0.023-0.345-0.041-0.531c-0.024-0.249-0.125-0.221-0.239-0.398
		c-0.226-0.35,0.081-0.576,0.34-0.709c0.578-0.298,1.021-0.734,1.32-1.311c0.655-1.256,0.745-2.663,0.144-3.962
		c-0.052-0.113-0.11-0.322-0.206-0.366l-0.148-0.149c-0.393-0.251-0.493,0.303-0.382,0.552c0.127,0.287,0.287,0.572,0.387,0.87
		c0.106,0.319,0.079,0.687,0.079,1.039c0,0.343,0.049,0.724,0.001,1.063c-0.091,0.642-0.582,1.196-1.044,1.653
		c-0.453,0.445-1.127,0.764-1.1,1.486c0.012,0.318,0.166,0.612,0.259,0.906c0.084,0.267,0.167,0.62,0.462,0.749
		c0.347,0.149,0.689-0.089,1.02-0.044c0.311,0.043,0.359,0.443,0.641,0.569c0.159,0.072,0.333,0.006,0.488-0.032
		c0.198-0.049,0.261-0.017,0.445,0.032c0.327,0.087,0.656-0.085,0.992-0.102c0.328-0.017,0.549-0.204,0.849-0.275
		c0.352-0.083,0.503-0.229,0.706-0.53c0.161-0.242,0.588-0.444,0.567-0.765c-0.009-0.145-0.089-0.289-0.106-0.445
		c-0.021-0.185-0.044-0.316-0.106-0.488c-0.133-0.363-0.161-0.757-0.115-1.142c0.162,0.069,0.406,0.113,0.539,0.146
		c1.396,0.344,2.979,0.386,4.345-0.104c0.056,0.271,0.23,0.574,0.34,0.782c0.767,1.449,2.301,2.147,3.799,2.657
		c0.355,0.122,0.724,0.28,1.087,0.335c0.37,0.055,0.771,0.017,1.15,0.021c0.475,0.006,0.951,0.061,1.419,0.132
		c0.25,0.039,0.601,0.167,0.878,0.131c0.271,0.502,0.725,0.866,1.152,1.265c0.156,0.147,0.521,0.563,0.77,0.485
		c0.095,0.16,0.548,0.112,0.482,0.406c-0.072,0.318-0.501,0.48-0.69,0.705c-0.069,0.083-0.14,0.203-0.129,0.31
		c0.244,0.028,0.561-0.369,0.76-0.489c0.117-0.07,0.364-0.229,0.426-0.018c0.039,0.132-0.178,0.346-0.25,0.447
		c-0.38,0.535-0.9,0.976-1.315,1.489c-0.38,0.472-0.807,1.073-1.322,1.391c-0.271,0.168-1.124,0.505-1.229-0.058l-0.063-0.064
		c0.047-0.263,0.43-0.607,0.207-0.886c-0.265-0.33-0.554,0.272-0.658,0.461c-0.149,0.271-0.294,0.594-0.139,0.886
		c0.153,0.286,0.475,0.487,0.78,0.536c0.735,0.119,1.386-0.467,1.883-0.939c0.521-0.492,1.031-1.053,1.497-1.581
		c0.302-0.342,0.648-0.609,0.944-0.96C154.102,222.162,154.329,221.795,154.641,221.774 M150.292,218.608
		c-0.327-0.033-0.665-0.031-0.996-0.067c-1.415-0.159-2.779-0.545-4.097-1.138c-0.623-0.279-1.22-0.526-1.527-1.174
		c-0.156-0.324-0.252-0.655-0.345-0.99c-0.067-0.247-0.188-0.492-0.278-0.744c0.35-0.197,0.698-0.399,1.069-0.528
		c0.671-0.234,1.368-0.255,2.078-0.154c0.724,0.104,1.41,0.327,2.059,0.684c0.312,0.172,0.63,0.311,0.866,0.591
		c0.142,0.17,0.287,0.582,0.488,0.654c0.039-0.13,0.069-0.326,0.054-0.48c0.024,0.028,0.049,0.058,0.072,0.085
		c0.249,0.3,0.317,0.597,0.387,0.97c0.146,0.762,0.316,1.494,0.515,2.251c0.004,0.015,0.01,0.028,0.016,0.043
		C150.532,218.603,150.399,218.618,150.292,218.608"/>
	<path fill="#FFFFFF" d="M156.635,226.761c0.284-0.325-0.108-0.36-0.233-0.45l-0.191-0.044c-0.135,0.218-0.412,0.368-0.536,0.611
		c-0.146,0.287-0.104,0.687,0.092,0.96c0.188,0.264,0.536,0.283,0.78,0.058c0.103-0.094,0.201-0.252,0.148-0.397
		c-0.086-0.234-0.223-0.057-0.395-0.067C156.129,227.113,156.466,226.958,156.635,226.761"/>
	<path fill="#FFFFFF" d="M154.858,228.575c-0.269-0.117-0.465-0.32-0.747-0.399h-0.148c-0.186,0.4,0.971,1.244,1.3,0.939
		C155.58,228.821,155.055,228.659,154.858,228.575"/>
	<path fill="#FFFFFF" d="M157.294,226.373l-0.085,0.021c-0.491,0.185-0.063,0.903,0.208,0.738c0.032-0.021,0.321-0.416,0.323-0.44
		C157.75,226.524,157.394,226.416,157.294,226.373"/>
	<path fill="#FFFFFF" d="M167.138,204.922c-0.041-0.759-0.166-1.471-0.313-2.207c-0.114-0.563-0.398-1.366-0.918-1.681
		c-0.31-0.188-0.607-0.217-0.955-0.144c-0.409,0.085-0.525,0.234-0.486,0.635c0.063,0.66,0.506,1.246,0.613,1.91
		c0.212,1.305-0.861,2.594-1.85,3.349c-0.52,0.397-1.098,0.791-1.71,1.007c-0.32,0.112-0.659,0.137-1.001,0.187
		c-0.21,0.031-0.611,0.024-0.854-0.091c-0.252-0.541-0.603-1.007-0.972-1.502c-0.428-0.571-0.684-1.246-1.148-1.799
		c-0.446-0.527-1.243-0.902-1.864-1.175c-0.688-0.306-1.373-0.503-2.082-0.724c-0.699-0.217-1.471-0.528-2.112-0.88
		c-0.345-0.189-0.676-0.39-0.981-0.636c-0.283-0.229-0.511-0.52-0.823-0.711c-1.221-0.744-2.707-1.295-4.063-1.5
		c-0.458-0.07-0.904-0.164-1.359-0.23c-0.214-0.031-0.427-0.075-0.636-0.127c-0.17-0.043-0.454-0.16-0.61-0.089l-0.106,0.071
		c-0.128-0.046-0.344-0.049-0.464-0.118c0.048-0.183,0.072-0.38,0.129-0.568c0.098-0.328,0.199-0.662,0.288-0.981
		c0.076-0.275,0.058-0.679,0.287-0.881c0.22-0.194,0.581-0.229,0.838-0.371c0.237-0.132,0.46-0.336,0.657-0.531
		c0.477-0.47,0.968-0.914,1.295-1.502c0.336-0.603,0.45-1.234,0.679-1.876c0.218-0.616,0.415-1.33,0.238-1.985
		c-0.068-0.254-0.198-0.521-0.408-0.716c-0.298-0.274-0.54-0.065-0.822,0.144c-0.287,0.213-0.596,0.404-0.77,0.722
		c-0.157,0.286-0.207,0.609-0.382,0.887c-0.34,0.54-1.001,0.821-1.607,0.854c-0.348,0.018-0.672-0.074-0.977-0.213
		c-0.254-0.116-0.471-0.309-0.742-0.381c-0.305-0.081-0.662-0.059-0.934,0.079c-0.257,0.129-0.453,0.381-0.708,0.507
		c-0.097-0.057-0.254-0.1-0.331-0.157c-0.125-0.094-0.233-0.212-0.356-0.308c-0.229-0.18-0.484-0.345-0.747-0.462
		c-0.284-0.126-0.637-0.084-0.896-0.227c-0.127-0.069-0.221-0.196-0.351-0.267c-0.169-0.091-0.229-0.083-0.218-0.313
		c0.015-0.32,0.148-0.604,0.148-0.954c0-0.344,0.007-0.706-0.042-1.04c-0.094-0.646-0.466-1.167-0.982-1.586
		c-0.514-0.419-0.886-0.736-1.077-1.384c-0.086-0.295-0.073-0.673-0.227-0.956c-0.132-0.244-0.362-0.48-0.542-0.694
		c-0.284-0.336-0.442-0.395-0.845-0.218c-0.336,0.148-0.607,0.313-0.891,0.553c-0.533,0.451-0.92,1.106-0.847,1.823
		c0.07,0.714,0.078,1.377,0.424,2.017c0.143,0.265,0.294,0.514,0.471,0.762c0.164,0.229,0.492,0.476,0.459,0.781
		c-0.074,0.652-1.03,0.723-1.338,1.21c-0.094,0.148-0.114,0.327-0.164,0.493c-0.052,0.173-0.137,0.263-0.25,0.409
		c-0.21,0.268-0.387,0.55-0.596,0.822c-0.401,0.521-0.707,1.029-0.854,1.654c-0.075,0.323-0.242,0.595-0.375,0.896
		c-0.063,0.14-0.127,0.301-0.171,0.445c-0.035,0.118-0.035,0.292-0.052,0.408c-0.147,0.183-0.213,0.528-0.293,0.746
		c-0.147,0.399-0.248,0.815-0.289,1.238c-0.048,0.479-0.057,0.978-0.057,1.472c0,0.429,0.076,0.97-0.057,1.357
		c-0.127,0.371-0.479,0.586-0.729,0.884c-0.284,0.341-0.543,0.699-0.836,1.035c-0.273,0.313-0.571,0.62-0.776,0.974
		c-0.242,0.417-0.374,0.889-0.638,1.289c-0.454,0.688-1.473,0.795-2.142,1.229c-0.72,0.469-1.338,1.071-2.009,1.605
		c-0.676,0.537-1.375,1.051-2.045,1.605c-0.648,0.535-1.234,1.246-2.143,1.195c-0.095-0.005-0.184-0.014-0.273-0.021
		c0.66-1.084,0.352-2.744,0.078-3.874c-0.158-0.657,0.034-1.325,0.226-1.961c0.22-0.731,0.356-1.266,0.2-2.028
		c-0.104-0.514-0.179-1.177-0.071-1.739c0.141-0.113,0.265-0.257,0.368-0.444c0.299-0.534,0.492-1.154,0.732-1.729
		c0.473-1.129,0.999-2.452,1.239-3.642c0.274-1.358,0.147-2.835,0.202-4.253c0.05-1.273,0.498-2.497,0.688-3.768
		c0.104-0.688,0.167-1.325,0.201-2.049c0.015-0.317,0.116-0.631,0.087-0.974c-0.029-0.346-0.155-0.634-0.211-0.977
		c-0.113-0.696,0.156-1.262,0.295-1.91c0.145-0.673,0.074-1.277,0.001-1.951c-0.07-0.644-0.04-1.34-0.255-1.954
		c-0.074-0.214-0.166-0.662-0.308-0.836c-0.019-0.023-0.036-0.042-0.056-0.058c0.395-0.819,0.329-1.642,0.252-2.555
		c-0.077-0.916,0.017-2.009-0.285-2.856c-0.313-0.878-0.305-1.848-0.643-2.718c-0.172-0.438-0.357-0.86-0.49-1.299
		c-0.107-0.359-0.121-0.859-0.304-1.196c0.128-0.12,0.052-0.302,0.022-0.476c-0.071-0.447-0.176-0.918-0.198-1.386
		c-0.021-0.462-0.046-0.927-0.134-1.364c-0.05-0.238-0.063-0.449-0.064-0.701c0-0.333-0.006-0.359,0.313-0.396
		c0.109-0.012,0.22-0.022,0.333-0.034c0.03,0.071,0.061,0.143,0.086,0.217c0.829,2.449,2.758,4.469,5.243,5.103
		c2.379,0.606,4.46-1.829,6.044-3.309c1.843-1.718,3.223-3.712,4.352-5.917c0.563-1.098,1.281-1.986,2.059-2.962
		c0.761-0.956,1.234-2.048,1.507-3.192c0.299-1.251,0.252-2.646-0.457-3.768c-0.331-0.523-0.832-0.696-1.355-0.986
		c-0.548-0.305-1.19-0.668-1.769-0.255c0.485,0.391,1.134,0.443,1.679,0.69c0.623,0.28,0.862,0.682,1.053,1.313
		c0.194,0.646,0.45,1.397,0.393,2.082c-0.05,0.59-0.384,1.198-0.595,1.782c-0.229,0.639-0.352,1.383-0.764,1.911
		c-0.404,0.516-0.907,0.881-1.263,1.439c-0.751,1.182-1.703,2.222-2.471,3.396c-0.72,1.099-1.351,2.169-2.217,3.182
		c-0.461,0.538-1.019,0.936-1.518,1.443c-0.488,0.498-0.894,0.985-1.453,1.391c-0.977,0.707-1.943,1.512-3.206,1.148
		c-1.181-0.341-2.148-1.095-2.777-2.145c-0.571-0.953-1.522-1.534-1.752-2.663c0.483-0.076,0.96-0.193,1.364-0.425
		c0.373-0.212,2.632-1.639,3.113-2.547c0.2,0.672,0.396,1.057,0.445,1.133c0.111,0.168,0.154,0.218,0.287,0.201
		c0.161,0.719-1.224,1.78-1.277,2.373c0.491,0.001,0.932-0.941,1.191-1.299c0.192-0.267,0.385-0.537,0.457-0.857
		c0.021-0.097,0.037-0.216,0.033-0.328c0.101-0.041,0.182-0.099,0.164-0.182v-0.057c-0.001-0.005-0.002-0.01-0.003-0.016
		c0.649,0.281,1.554-0.714,1.959-1.084c0.952-0.872,2.106-1.309,3.106-2.121c0.33-0.269,2.687-2.889,1.911-3.004l0.043,0.043
		c-0.501,0.157-0.689,0.78-1.028,1.188c-0.902,1.08-2.129,1.799-3.299,2.492c-0.586,0.349-1.037,0.867-1.475,1.381
		c-0.414,0.484-0.76,0.729-1.25,0.951c-0.025-0.128-0.055-0.287-0.078-0.402c-0.194-0.916-0.719-1.828-1.012-2.716
		c-0.298-0.903-0.332-1.839-0.521-2.761c-0.185-0.895-0.974-1.589-1.317-2.439c-0.354-0.875-0.609-1.792-0.827-2.716
		c-0.202-0.859-0.564-1.894-1.187-2.559c-0.683-0.732-1.876-0.858-2.802-0.948c-0.931-0.091-1.738-0.478-2.031-1.443
		c-0.115-0.382-0.115-0.988-0.027-1.38c0.098-0.443,0.408-0.786,0.648-1.166c0.505-0.794,0.939-1.637,1.461-2.403
		c0.444-0.656,0.959-1.467,1.182-2.23c0.336,0.08,0.733-0.103,1.035-0.385c0.512-0.479,0.487-1.064,0.697-1.677
		c0.143-0.415,0.412-0.788,0.5-1.242c0.089-0.453,0.014-0.975,0.084-1.441c0.083-0.55,0.205-0.798-0.294-1.114
		c-0.292-0.185-0.364-0.264-0.683-0.149c-0.216,0.08-0.379,0.331-0.592,0.244l-0.127-0.17c-0.008,0.461-0.188,0.87-0.164,1.352
		c0.492,0.029,0.932-0.7,1.43-0.665c0.195,0.497-0.205,1.467-0.289,1.988c-0.09,0.556-0.287,1.237-0.586,1.749
		c-0.124,0.213-0.292,0.543-0.552,0.32c-0.242-0.208-0.01-0.739,0.036-0.965c0.082-0.418,0.551-1.564-0.131-1.69
		c-0.508-0.093-0.365,0.42-0.382,0.754c-0.016,0.338-0.1,0.654-0.201,0.977c-0.181,0.576-0.55,1.012-0.293,1.624l-0.128-0.111
		c0.099,0.304-0.238,0.885-0.367,1.186c-0.188,0.438-0.449,0.827-0.674,1.245c-0.246,0.461-0.496,0.935-0.797,1.36
		c-0.283,0.401-0.654,0.729-0.935,1.132c-0.211,0.303-0.353,0.616-0.447,0.942c-0.759,0.386-1.472,0.633-2.325,0.854
		c-0.877,0.227-2.238,0.03-2.361-0.001c-1.201-0.308-2.305-0.87-2.929-2.074c-0.648-1.25-1.037-2.32-1.188-3.697
		c-0.147-1.337-0.672-2.542-0.806-3.904c-0.067-0.682-0.093-1.334-0.128-2.037c-0.027-0.553-0.158-1.073-0.225-1.599
		c0.475,0.176,1.964-1.98,2.465-2.289c0.411,0.612,0.772,0.322,0.995-0.185c0.257-0.583,0.55-0.823,1.052-1.179
		c0.458-0.325,0.885-0.668,1.397-0.902c0.267-0.122,0.47-0.116,0.468-0.464c0-0.354-0.221-0.297-0.553-0.172
		c-0.613,0.232-1.197,0.82-1.694,1.241c-0.354,0.3-0.55,0.315-0.937,0.488c-0.286,0.128-0.578,0.472-0.805,0.68
		c-0.456,0.418-0.923,0.845-1.305,1.326c-0.191,0.24-0.754,1.333-1.102,1.287c-0.004-0.047-0.01-0.095-0.012-0.143
		c-0.084-1.308,0.192-2.782,0.508-3.989c0.159-0.606,0.447-1.145,0.734-1.695c0.212-0.41,0.504-1.169,0.963-1.364
		c0.346,0.293,0.45,1.325,1.051,0.928c0.323-0.215,0.222-0.517,0.306-0.839c0.08-0.309,0.286-0.664,0.512-0.891h-0.042
		c-0.025-0.027-0.056-0.018-0.051-0.078c-0.455-0.05-0.393,0.883-0.801,1.045c-0.533,0.21-0.402-0.763-0.514-1.089
		c-0.721,0.06-1.273,1.052-1.638,1.607c-0.313,0.478-0.605,1.014-0.87,1.515c-0.339,0.643-0.355,1.292-0.498,1.964
		c-0.141,0.671-0.361,1.261-0.435,1.942c-0.071,0.667,0.282,1.365,0.173,2.041c-1.113,0.056-1.459,0.443-1.573,1.576
		c-0.139,1.373-0.005,2.604,0.974,3.618c0.405,0.419,0.924,0.766,1.296,1.208c0.405,0.483,0.474,1.229,0.616,1.804
		c0.189,0.76,0.404,1.482,0.758,2.149c-0.105,0.527-0.424,1.078-0.595,1.559c-0.226,0.634-0.413,1.232-1.108,1.443
		c-0.707,0.215-1.438,0.155-2.186,0.118c-0.736-0.037-1.467-0.044-2.186,0.063c-0.336,0.051-0.707,0.122-1.018,0.254
		c-0.369,0.157-0.568,0.448-0.791,0.765c-0.385,0.546-0.754,1.123-1.184,1.639c-0.457,0.551-0.913,1.045-1.272,1.676
		c-0.106,0.188-0.104,0.221,0.063,0.355c0.165,0.133,0.225,0.203,0.361,0.068c0.096-0.093,0.133-0.269,0.207-0.382
		c0.082-0.125,0.205-0.229,0.297-0.344c0.113-0.14,0.239-0.271,0.369-0.399c0.103,0.064,0.202,0.133,0.3,0.213
		c0.643,0.521,1.321,1.144,2.122,1.385c0.396,0.12,1.086,0.009,1.295,0.392c0.184,0.337,0.143,0.907,0.238,1.296
		c0.025,0.004,0.053,0.003,0.08,0.004l-0.057,0.113c0.002,0.016,0.006,0.028,0.009,0.043c-0.075,0.024-0.151,0.051-0.229,0.076
		c-1.604,0.535-3.505-0.517-4.64-1.71c-0.072-0.078-0.186-0.24-0.293-0.305c0.035-0.079,0.048-0.146,0.025-0.191
		c-0.041-0.079-0.205-0.133-0.277-0.177h-0.084c-0.391,0.662-0.896,1.301-1.352,1.93c-0.566,0.783-1.037,1.644-1.421,2.539
		c-0.364,0.847-0.787,1.768-0.884,2.683c-0.036,0.346,0.065,0.641,0.244,0.896c-0.236,1.165-0.805,2.346-1.161,3.439
		c-0.394,1.213-0.803,2.383-1.062,3.606c-0.13,0.613-0.148,1.319-0.092,1.952c0.06,0.675,0.332,1.087,0.54,1.707
		c0.197,0.592,0.192,1.192,0.307,1.815c0.099,0.535,0.653,1.087,1.128,1.396c-0.529-0.507-0.625-1.056-0.737-1.745
		c-0.101-0.61-0.329-1.212-0.562-1.77c-0.57-1.378-0.253-2.637,0.042-4.034c0.237-1.121,0.451-2.284,0.851-3.35
		c0.34-0.908,0.808-1.89,0.881-2.85c0.309,0.348,0.756,0.615,1.162,0.832c0.811,0.435,1.735,0.503,2.598,0.793
		c0.434,0.146,0.897,0.332,1.356,0.373c0.127,0.012,0.249,0.01,0.369,0.001c-0.153,0.335-0.219,0.734-0.348,1.097
		c-0.146,0.404-0.3,0.809-0.418,1.222c-0.229,0.812-0.483,1.712-0.856,2.488c-0.262,0.545-0.764,1.971-1.605,1.813
		c-0.341-0.063-0.574-0.729-0.982-0.561c-0.482,0.197,0.293,0.729,0.509,0.807c0.321,0.117,0.884-0.155,1.21-0.217
		c0.284-0.055,0.315-0.06,0.426,0.223c0.084,0.215,0.131,0.457,0.176,0.674c0.177,0.868,0.441,1.709,0.666,2.581
		c0.459,1.79,1.07,3.663,1.668,5.383c0.269,0.772,0.574,1.715,1.188,2.292c0.627,0.589,1.47,0.933,2.215,1.371
		c0.31,0.183,0.718,0.375,0.952,0.664c0.313,0.383,0.306,0.825,0.722,1.146c0.681,0.525,1.427,0.938,1.909,1.685
		c0.158,0.245,0.125,0.362,0.207,0.615c0.01,0.032,0.026,0.063,0.045,0.093c-0.093,0-0.188,0.005-0.259,0.008
		c-0.368,0.014-0.487-0.005-0.774-0.286c-0.378-0.371-0.914-0.952-1.465-0.998c-0.244-0.02-0.38,0.026-0.561,0.222l0.084,0.128
		c0.538,0,1.01,0.78,1.443,1.061c0.424,0.272,1.24,0.654,1.699,0.213c0.075-0.072,0.116-0.13,0.137-0.174
		c0.041-0.004,0.083-0.018,0.123-0.046c0.262-0.187,0.221-0.932,0.057-1.151c-0.475-0.641-1.403-1.021-2.008-1.522
		c-0.381-0.313-0.515-0.597-0.671-1.025c-0.153-0.421-0.493-0.729-0.849-0.995c-0.186-0.14-0.392-0.267-0.604-0.389
		c0.052-0.011,0.104-0.022,0.158-0.036c0.546-0.142,1.098-0.319,1.66-0.247c0.574,0.073,1.148,0.168,1.726,0.196
		c0.497,0.022,0.96-0.055,1.443-0.084c1.025-0.063,2.007-0.398,3.026-0.398c0.991,0.002,1.902-0.282,2.887-0.282
		c0.99,0,1.983,0.04,2.97,0c0.997-0.038,1.937-0.157,2.856-0.48c0.183-0.064,0.499-0.253,0.68-0.137
		c0.182,0.118,0.141,0.413,0.115,0.589c-0.035,0.231-0.08,0.486-0.163,0.707c-0.011,0.029-0.026,0.058-0.042,0.089
		c-0.004,0-0.006-0.001-0.008-0.003l-0.004,0.024c-0.086,0.154-0.213,0.324-0.176,0.479c0.1,0.075,0.184,0.093,0.254,0.076
		c0.094,0.173,0.186,0.325,0.222,0.565c0.051,0.332,0.054,0.697,0.087,1.018c0.066,0.663,0.092,1.404,0.083,2.08
		c-0.009,0.708-0.415,1.284-0.425,1.993c-0.008,0.724,0.143,1.306,0.213,1.995c0.131,1.291-0.17,2.753-0.477,3.989
		c-0.153,0.621-0.288,1.269-0.417,1.909c-0.132,0.662,0.015,1.38,0.046,2.034c0.034,0.708,0.043,1.461-0.002,2.167
		c-0.037,0.609-0.327,1.236-0.51,1.781c-0.191,0.574-0.438,1.137-0.68,1.698c-0.257,0.604-0.325,1.259-0.688,1.827
		c-0.743,1.162-2.081,0.968-3.256,0.722c-0.837-0.176-0.647-0.774-0.512-1.444c0.14-0.695,0.202-1.362,0.13-2.08
		c-0.132-1.321-0.174-2.638-0.422-3.949c-0.088-0.464-0.189-0.952-0.276-1.45c0.358-0.15,0.705,0.268,1.081,0.266
		c0.566-0.002,0.678-0.398,0.541-0.887c-0.311,0.271-0.484,0.419-0.924,0.293c-0.33-0.097-0.496-0.274-0.768-0.1
		c-0.102-0.673-0.166-1.357-0.123-2.023c0.035-0.575,0.387-1.16,0.795-1.58c0.28-0.289,1.398-0.852,0.689-1.05
		c-0.586-0.166-1.072,0.513-1.39,0.901c-0.196,0.24-0.343,0.495-0.531,0.742c-0.295,0.388-0.246,0.279-0.614,0.041
		c-0.499-0.324-1.546-1.223-2.01-0.582c0.299,0.414,1.041,0.663,1.48,0.944c0.582,0.374,0.805,0.735,1.026,1.392
		c0.419,1.243,0.292,2.768,0.556,4.026c0.246,1.178,0.417,2.31,0.295,3.525c-0.061,0.598-0.117,1.173-0.203,1.75
		c-0.041,0.271-0.05,0.552-0.128,0.806c-0.072,0.238-0.237,0.455-0.256,0.704c0.003,0.002,0.004,0.003,0.007,0.005
		c-0.428,0.167-0.975,0.194-1.372,0.268c-0.659,0.121-1.356,0.349-1.993,0.542c-0.318,0.095-0.611,0.158-0.936,0.245
		c-0.278,0.075-0.634,0.271-0.9,0.297c-0.633,0.062-1.167-0.553-1.857-0.457c-0.338,0.047-0.566,0.148-0.881-0.053
		c-0.234-0.149-0.376-0.427-0.603-0.594c-0.5-0.367-1.158-0.191-1.562-0.724c-0.371-0.487-0.376-1.266-0.436-1.854
		c-0.036-0.363,0.02-0.739,0-1.104c-0.021-0.394-0.131-0.547-0.285-0.901c-0.257-0.581-0.267-1.224-0.138-1.855
		c0.062-0.3,0.183-0.711,0.126-1.019c-0.049-0.259-0.283-0.498-0.434-0.72c-0.178-0.261-0.354-0.513-0.424-0.809
		c-0.086-0.356,0.074-0.647,0.051-0.976c-0.025-0.361-0.267-0.463-0.467-0.721c-0.242-0.31-0.212-0.545-0.212-0.935
		c0.001-0.366-0.089-0.711-0.085-1.062c0.005-0.421,0.205-0.535,0.393-0.881c0.341-0.627-0.49-0.591-0.764-1.08
		c-0.283-0.509-0.387-1.253-0.563-1.813c-0.217-0.689-0.373-1.306-0.381-2.038c-0.009-0.681-0.19-1.414-0.087-2.081
		c0.049-0.31,0.288-0.519,0.383-0.804c0.016-0.045,0.025-0.087,0.032-0.126c0.646,0.831,1.438,1.479,2.557,1.654
		c0.688,0.108,1.449,0.222,1.913-0.384c-0.301-0.357-1.272-0.341-1.71-0.458c-0.588-0.156-1.086-0.331-1.593-0.74
		c-0.396-0.32-0.906-0.632-1.252-0.999c-0.448-0.475-0.48-1.192-0.722-1.783c-0.49-1.204-0.508-1.389-1.432-2.259
		c-0.464-0.436-1.822-1.225-2.293-1.657c-0.553-0.507-0.844-1.181-1.23-1.813c-0.157-0.26-0.613-0.674-0.594-0.9l-0.211-0.298
		c0.287,1.18,0.976,2.279,1.643,3.322c0.653,1.021,1.841,1.635,2.568,2.575c0.653,0.846,1.177,1.955,1.807,2.952
		c-0.225,0.521-0.326,1.196-0.459,1.719c-0.163,0.642,0.019,1.336,0.125,1.993c0.104,0.637,0.279,1.227,0.34,1.868
		c0.053,0.559,0.1,1.528,0.393,1.991c0.303,0.478,1.143,0.671,0.851,1.285c-0.057,0.119-0.208,0.151-0.268,0.286
		c-0.066,0.147-0.031,0.388-0.04,0.553c-0.02,0.357,0.01,0.717,0.043,1.062c0.034,0.34,0.012,0.765,0.169,1.06
		c0.124,0.233,0.414,0.317,0.542,0.52c0.211,0.331-0.048,0.556-0.115,0.884s0.039,0.623,0.156,0.942
		c0.222,0.597,0.621,0.929,0.647,1.603c0.029,0.731,0.004,1.384,0.245,2.046c0.236,0.649,0.479,1.155,0.477,1.857
		c-0.002,0.649-0.172,1.438,0.052,2.028c0.139,0.364,0.603,1.146,1.052,1.229c0.366,0.068,0.475-0.287,0.849-0.245
		c0.317,0.035,0.464,0.302,0.71,0.478c0.518,0.367,1.221,0.08,1.838,0.245c0.658,0.178,1.049,0.356,1.748,0.136
		c0.41-0.13,0.799-0.355,1.221-0.476c0.459-0.131,0.921-0.184,1.391-0.307c0.406-0.106,1.719-0.224,2.176-0.628
		c0.229,0.047,0.398-0.104,0.678-0.087c0.314,0.021,0.547,0.231,0.839,0.309c0.596,0.158,1.362,0.087,1.962-0.008
		c0.232-0.035,0.449-0.08,0.647-0.149c0.403,1.141-0.088,2.448-0.349,3.5c-0.338,1.367,0.377,2.541,0.507,3.862
		c0.036,0.357,0.05,0.712-0.003,1.058c-0.045,0.299-0.159,0.603-0.121,0.912c-0.038-0.003-0.075-0.008-0.113-0.01l-0.173,0.035
		c-0.414,0.571,0.351,0.575,0.7,0.444c0.34-0.126,0.671-0.314,0.99-0.509c0.716-0.437,1.415-0.924,2.074-1.458
		c0.684-0.555,1.471-0.983,2.12-1.59c0.312-0.291,0.636-0.546,0.968-0.814c0.322-0.261,0.621-0.556,1.014-0.714
		c0.371-0.148,0.762-0.139,1.102-0.402c0.318-0.249,0.477-0.626,0.688-0.955c0.443-0.687,0.879-1.372,1.399-2.017
		c0.3-0.37,0.624-0.715,0.948-1.06c0.143-0.152,0.422-0.328,0.496-0.523c0.065-0.173,0.017-0.516,0.008-0.702
		c-0.047-0.948-0.018-1.915,0.169-2.827c0.106-0.519,0.285-1.07,0.334-1.58c-0.01-0.005-0.019-0.008-0.028-0.011
		c0.077-0.16,0.142-0.335,0.177-0.391c0.172-0.274,0.392-0.522,0.53-0.811c0.146-0.305,0.122-0.63,0.244-0.925
		c0.229-0.557,0.475-1.087,0.881-1.555c0.202-0.233,0.359-0.502,0.583-0.715c0.205-0.194,0.412-0.377,0.605-0.583
		c0.097-0.105,0.176-0.24,0.297-0.319c0.134-0.087,0.31-0.099,0.445-0.189c0.305-0.207,0.252-0.556,0.2-0.87
		c-0.108-0.662-0.741-1.042-1.038-1.613c-0.152-0.292-0.091-0.706-0.091-1.034c0-0.349-0.082-0.661-0.063-1.019
		c0.032-0.618,0.323-1.17,0.886-1.49c0.237-0.136,0.552-0.391,0.807-0.181c0.214,0.177,0.164,0.659,0.219,0.906
		c0.133,0.599,0.507,1.209,0.948,1.66c0.424,0.436,1.025,0.848,1.305,1.396c0.305,0.597,0.027,1.382-0.18,1.948
		c-0.119,0.325-0.222,0.579,0.111,0.768c0.157,0.09,0.159,0.175,0.281,0.293c0.091,0.088,0.251,0.186,0.36,0.274
		c0.264,0.217,0.582,0.138,0.863,0.303c0.265,0.155,0.517,0.286,0.785,0.404c0.286,0.128,0.481,0.371,0.728,0.567
		c0.12,0.097,0.256,0.188,0.394,0.065c0.017-0.016,0.031-0.04,0.045-0.065c0.041,0.018,0.096,0.022,0.173,0.006
		c0.147-0.03,0.28-0.146,0.406-0.229c0.355-0.233,0.64-0.283,1.035-0.157c0.625,0.199,1.207,0.432,1.909,0.317
		c0.558-0.09,1.275-0.394,1.725-0.754c0.204-0.164,0.4-0.348,0.584-0.539c0.118-0.126,0.238-0.277,0.391-0.373
		c0.206-0.13,0.221-0.045,0.251,0.164c0.047,0.317,0.073,0.686,0.001,0.997c-0.075,0.333-0.223,0.642-0.276,0.977
		c-0.09,0.567-0.426,1.236-0.843,1.659c-0.205,0.207-0.447,0.368-0.638,0.595c-0.22,0.265-0.422,0.537-0.753,0.648
		c-0.161,0.055-0.344,0.021-0.499,0.073c-0.171,0.059-0.198,0.169-0.386,0.164c-0.156-0.004-0.401-0.097-0.319,0.149
		c0.05,0.149,0.218,0.207,0.232,0.404c0.026,0.337-0.134,0.646-0.237,0.954c-0.104,0.311-0.17,0.61-0.287,0.913
		c-0.215,0.555-0.634,1.037-0.891,1.575c-0.271,0.563-0.424,1.188-0.808,1.692c-0.39,0.513-0.963,0.756-1.447,1.145
		c-0.21,0.17-0.538,0.565-0.718,0.192c-0.121-0.253-0.14-0.55-0.451-0.671c-0.021,0.418,0.015,0.859,0.044,1.265
		c0.015,0.209,0.061,0.466-0.027,0.651c-0.075,0.159-0.242,0.283-0.371,0.395c-0.081,0.07-0.234,0.161-0.286,0.265
		c-0.033,0.062-0.027,0.138-0.043,0.204c-0.032-0.094-0.104-0.187-0.185-0.221c-0.184-0.081-0.278,0.078-0.425,0.144
		c-0.158,0.069-0.321,0.086-0.419-0.063c-0.124-0.188-0.044-0.326,0.122-0.376c0.176-0.052,0.338,0.006,0.505-0.09
		c0.122-0.071,0.201-0.189,0.263-0.309c0.115-0.218,0.273-0.636,0.229-0.896c-0.058-0.34-0.522-0.32-0.781-0.408
		c-0.297-0.101-0.571-0.276-0.874-0.355c-0.361-0.097-0.642-0.026-0.976,0.147c-0.32,0.166-0.537,0.321-0.25,0.632
		c0.209,0.226,0.525,0.379,0.689,0.643c0.089,0.141,0.134,0.686,0.259,0.847c-0.048,0.029-0.097,0.06-0.143,0.091
		c-0.253,0.174-0.592,0.304-0.917,0.229c-0.294-0.067-0.411-0.388-0.514-0.632c-0.109-0.257-0.291-0.48-0.42-0.727
		c-0.148-0.281-0.179-0.576-0.212-0.891c-0.03-0.287-0.203-0.554-0.216-0.824c-0.021-0.005-0.042,0.002-0.062-0.003l-0.021-0.107
		c-0.25-0.084-0.396-0.396-0.678-0.467c-0.316-0.079-0.71,0.053-0.866,0.344c-0.131,0.245,0.215,0.596,0.293,0.846
		c0.102,0.323,0.065,0.644,0.084,0.997c0.061,1.183,0.419,2.487,1.321,3.326c0.47,0.437,1.115,0.631,1.713,0.685
		c0.677,0.06,1.12-0.471,1.641-0.845c0.347-0.249,1.086-0.716,1.063-1.244c0.109-0.034,0.225-0.185,0.288-0.262
		c0.203-0.241,0.377-0.504,0.531-0.769c0.152-0.263,0.221-0.555,0.338-0.809c0.115-0.247,0.48-0.393,0.697-0.534
		c0.251-0.164,0.479-0.337,0.73-0.477c0.532-0.296,0.826-0.949,1.169-1.423c0.38-0.525,0.668-1.118,1.166-1.549
		c0.219-0.188,0.521-0.308,0.711-0.519c0.012-0.014,0.019-0.024,0.029-0.037c0.133,0.116,0.463,0.079,0.635,0.104
		c0.305,0.045,0.605,0.183,0.892,0.275c0.617,0.203,1.225,0.435,1.865,0.533c0.682,0.104,1.251,0.223,1.884,0.491
		c0.56,0.238,1.117,0.579,1.603,0.944c0.544,0.41,1.103,0.715,1.653,1.104c0.578,0.407,1.225,0.597,1.864,0.831
		c1.259,0.464,2.539,0.963,3.623,1.789c0.256,0.194,0.414,0.457,0.604,0.71c0.214,0.286,0.467,0.539,0.69,0.816
		c0.431,0.535,0.601,1.184,0.789,1.82c0.216,0.727,0.388,1.422,0.462,2.185c0.072,0.736,0.003,1.474-0.122,2.186
		c-0.046,0.26-0.188,0.517-0.297,0.764c-0.131,0.299-0.212,0.592-0.276,0.914c-0.107,0.524-0.299,1.044-0.229,1.566
		c0.066,0.008,0.145,0.004,0.225-0.014c-0.321,0.269-0.575,0.754-0.738,1.035c-0.154,0.267-0.305,0.529-0.482,0.785
		c-0.164,0.235-0.391,0.479-0.431,0.762c-0.047,0.34,0.104,0.655,0.172,0.977c0.063,0.303,0.184,0.6,0.465,0.78
		c0.29,0.187,0.703,0.235,1.041,0.218c0.33-0.017,0.629-0.135,0.833,0.213c0.087,0.146,0.077,0.321,0.1,0.487
		c0.023,0.165,0.077,0.326,0.106,0.487c0.069,0.381,0.13,0.762,0.169,1.146c0.072,0.709-0.11,1.41-0.082,2.078
		c0.026,0.681-0.275,1.283-0.793,1.714c-0.227,0.19-0.51,0.389-0.71,0.605c-0.248,0.269-0.078,0.607,0.287,0.499
		c0.174-0.052,0.755-0.604,0.551-0.042c-0.099,0.271-0.422,0.547-0.632,0.741c-0.119,0.112-0.221,0.222-0.365,0.297
		c-0.138,0.072-0.343,0.111-0.399,0.281c-0.148,0.456,0.611,0.192,0.787,0.112c0.73-0.335,0.865-1.035,1.151-1.682
		c0.305-0.688,0.593-1.345,0.78-2.059c0.092-0.353,0.041-0.777,0.041-1.15c0-0.365-0.008-0.729-0.042-1.077
		c-0.071-0.734-0.032-1.509-0.171-2.229c-0.06-0.308-0.141-0.637-0.468-0.779c-0.284-0.125-0.708-0.063-1.017-0.112
		c-0.702-0.113-1.26-0.508-1.145-1.271c0.079-0.532,0.517-1.044,0.832-1.482c0.26-0.359,0.696-0.897,0.716-1.342l0.021-0.17
		c-0.063-0.016-0.126-0.017-0.187-0.01c0.096-0.078,0.167-0.176,0.187-0.287c0.062-0.341,0.034-0.705,0.084-1.04
		c0.105-0.717,0.436-1.352,0.568-2.059c0.05-0.267,0.095-0.542,0.124-0.82c0.085-0.009,0.168-0.024,0.241-0.027
		c0.177-0.008,0.361,0.017,0.53-0.025c0.36-0.091,0.722-0.28,1.062-0.426c0.333-0.143,0.676-0.296,1.019-0.398
		c0.409-0.122,0.791-0.214,1.146-0.445c0.568-0.369,1.116-0.781,1.635-1.23C166.939,207.93,167.221,206.44,167.138,204.922
		 M104.594,134.435c-0.714-0.275-0.849-1.635-1.011-2.242c-0.156-0.588-0.615-2.021,0.078-2.433l0.142-0.028
		c0.4,0.274,0.575,0.485,0.743,0.962c0.147,0.416,0.178,0.871,0.246,1.302c0.07,0.438,0.086,0.885,0.086,1.357
		C104.878,133.66,105.038,134.607,104.594,134.435 M98.458,170.265c-0.083-0.359-0.191-0.719-0.312-1.076
		c0.003,0.002,0.005,0.004,0.005,0.005c0.191-0.049,0.393-0.186,0.582-0.257c0.24-0.091,0.488-0.126,0.741-0.164
		c0.457-0.068,0.921-0.104,1.386-0.169c0.555-0.079,1.036-0.321,1.586-0.453c0.475-0.112,0.946-0.087,1.441-0.112
		c1.094-0.056,2.131,0.085,3.226,0.085c1.071,0,2.107,0.064,3.14,0.169c0.98,0.1,1.963,0.105,2.943,0.058
		c0.512-0.025,1.037-0.017,1.529,0.142c0.516,0.165,0.953,0.504,1.434,0.744c0.5,0.248,1.017,0.312,1.557,0.415
		c0.404,0.077,0.869,0.188,1.308,0.205c-0.1,0.039-0.228,0.044-0.34,0.049c-0.997,0.05-1.874-0.264-2.856-0.311
		c-0.469-0.022-0.872-0.225-1.33-0.254c-0.471-0.03-0.906,0.066-1.356-0.059c-0.457-0.126-0.896-0.18-1.382-0.275
		c-0.502-0.099-0.938-0.251-1.477-0.205c-0.529,0.046-0.976,0.198-1.528,0.198c-0.541,0-1.104-0.029-1.634,0.027
		c-1.146,0.123-2.284,0.295-3.424,0.398c-1.07,0.098-2.177,0.146-3.231,0.31c-0.456,0.069-0.914,0.188-1.354,0.317
		C98.958,170.098,98.645,170.164,98.458,170.265 M118.966,169.03c0.001,0.003,0.002,0.005,0.004,0.007
		c-0.083-0.022-0.178-0.041-0.287-0.059c-0.601-0.094-1.219-0.128-1.809-0.26c-1.217-0.273-2.226-1.121-3.538-1.048
		c-0.627,0.035-1.249,0.143-1.874,0.204c-0.539,0.055-1.025-0.032-1.549-0.126c-1.319-0.233-2.675-0.417-4.017-0.218
		c-1.18,0.174-2.411-0.003-3.621,0.054c-1.071,0.051-2.185,0.374-3.225,0.596c-0.213,0.044-0.402,0.111-0.618,0.108
		c-0.054-0.296,0.41-0.823,0.506-1.126c0.152-0.481,0.154-1.153,0.535-1.534c0.4-0.402,0.914-0.405,1.416-0.531
		c0.552-0.139,1.063-0.283,1.628-0.342c0.611-0.063,1.226-0.001,1.831-0.056c0.602-0.055,1.207-0.034,1.809-0.084
		c1.209-0.103,2.404-0.191,3.614-0.25c0.601-0.028,1.253-0.007,1.862,0.021c0.727,0.034,1.41,0.227,2.127,0.313
		c1.055,0.125,2.11,0.297,3.057,0.819c0.381,0.213,0.754,0.478,1.139,0.7c0.174,0.102,0.293,0.166,0.416,0.054
		c0.184,0.443,0.378,0.881,0.426,1.368C118.841,168.09,118.841,168.612,118.966,169.03 M122.64,151.762
		c0.124,0.23,0.23,0.467,0.3,0.712c-0.043,0.074-0.078,0.155-0.119,0.231c-0.42,0.762-1.076,1.381-1.783,1.872
		c-0.337,0.235-0.674,0.507-1.074,0.639c-0.245,0.081-1.024,0.399-1.248,0.284c0.088-0.366-0.064-0.561,0.334-0.703
		c0.295-0.105,0.569-0.219,0.852-0.361c0.671-0.337,1.545-0.819,2.057-1.398c0.275-0.311,0.377-0.695,0.566-1.047
		C122.568,151.907,122.609,151.832,122.64,151.762 M123.521,155.844l0.002,0.009c-0.38,0.434-0.705,0.872-1.142,1.265
		c-0.414,0.375-0.893,0.665-1.321,1.018c-0.696,0.573-1.645,1.118-2.574,0.94c-0.486-0.092-0.255-0.711,0.169-0.771
		c0.475-0.068,0.857-0.045,1.296-0.232c0.821-0.352,1.593-0.934,2.271-1.516c0.257-0.221,0.91-0.66,1.203-1.099
		C123.454,155.588,123.485,155.717,123.521,155.844 M123.295,154.854c-0.38,0.36-0.661,0.727-1.103,1.047
		c-0.4,0.291-0.794,0.592-1.219,0.842c-0.687,0.406-1.611,1.496-2.511,1.021c-0.103-0.308-0.077-1.321,0.17-1.545
		c0.107-0.098,0.573-0.156,0.729-0.205c0.256-0.08,0.469-0.169,0.707-0.29c0.688-0.349,1.421-0.751,1.946-1.357
		c0.149-0.172,0.772-0.859,1.027-1.386c0.104,0.611,0.167,1.238,0.267,1.854C123.303,154.841,123.302,154.85,123.295,154.854
		 M118.587,152.629c-0.003-0.006-0.005-0.013-0.009-0.018c-0.508-0.742-1.822-0.326-2.556-0.473
		c-0.232-0.045-0.449-0.154-0.678-0.199c-0.238-0.047-0.488-0.006-0.735-0.027c-0.456-0.039-0.841-0.236-1.272-0.374
		c-0.411-0.13-0.825-0.153-1.218-0.362c-0.452-0.24-0.866-0.111-1.356-0.163c-0.944-0.098-1.896-0.254-2.801-0.481
		c-0.529-0.131-0.864-0.309-1.415-0.23c-0.51,0.071-0.999,0.116-1.527,0.169c-0.497,0.05-0.993,0.031-1.501,0.056
		c-0.312,0.014-0.713,0.009-1.066,0.054c0.016-0.235,0.082-0.381,0.164-0.59c0.018-0.047,0.031-0.086,0.041-0.122
		c0.449-0.113,0.943-0.247,1.4-0.247c0.936,0,1.91,0.028,2.857,0.028c0.932,0,1.984-0.123,2.887,0.056
		c0.758,0.149,1.469,0.659,2.232,0.851c0.928,0.234,1.871,0.457,2.802,0.594c0.505,0.075,1.004-0.064,1.499-0.029
		c0.443,0.029,0.982,0.25,1.409,0.404c0.269,0.097,0.79,0.436,1.021,0.23C118.711,152.049,118.648,152.342,118.587,152.629
		 M101.914,153.299c0.226-0.647,0.381-1.316,0.469-2c0.837,0.008,1.688-0.07,2.489-0.236c0.861-0.18,1.669-0.585,2.553-0.366
		c0.429,0.106,0.824,0.369,1.271,0.481c0.475,0.118,0.955,0.154,1.443,0.197c0.537,0.047,1.09-0.02,1.613,0.141
		c0.456,0.141,0.916,0.291,1.358,0.475c0.485,0.2,0.845,0.432,1.386,0.404c0.523-0.025,0.945,0.014,1.45,0.148
		c0.485,0.127,0.903,0.047,1.407,0.076c0.268,0.016,0.565,0.105,0.766,0.305c0.133,0.133,0.17,0.336,0.322,0.449
		c-0.127,0.774-0.191,1.574-0.268,2.358c-0.039,0.399-0.092,0.792-0.15,1.183c-0.311-0.289-0.662-0.607-1.01-0.766
		c-0.23-0.105-0.437-0.08-0.68-0.105c-0.236-0.025-0.475-0.123-0.705-0.199c-0.949-0.309-1.939-0.596-2.881-0.882
		c-0.477-0.146-0.95-0.244-1.447-0.22c-0.489,0.024-0.952,0.054-1.445,0.027c-0.521-0.028-1.031,0.02-1.527-0.085
		c-0.478-0.103-0.946-0.151-1.444-0.056c-0.518,0.1-1.034,0.013-1.532-0.087c-0.473-0.094-0.943-0.065-1.437-0.084
		c-0.487-0.017-0.866-0.035-1.352,0.093c-0.542,0.143-0.74,0.217-1.088-0.101C101.625,154.072,101.778,153.692,101.914,153.299
		 M100.939,156.035c0.03-0.12,0.063-0.239,0.099-0.357c0.057-0.02,0.115-0.037,0.168-0.054c0.468-0.138,0.949-0.248,1.415-0.339
		c0.234-0.047,0.469-0.061,0.701-0.121c0.244-0.063,0.482-0.193,0.735-0.227c0.485-0.063,1.02,0.095,1.5,0.143
		c0.525,0.053,0.945-0.092,1.443-0.168c0.936-0.145,1.898,0.309,2.855,0.309c0.958,0,2.051-0.095,2.973,0.144
		c0.967,0.25,1.795,0.743,2.771,0.932c0.529,0.103,0.85,0.193,1.301,0.476c0.291,0.182,0.686,0.521,1.049,0.639
		c-0.057,0.362-0.115,0.726-0.17,1.094c-0.055,0.367-0.065,0.732-0.059,1.1c-0.408-0.037-0.824-0.359-1.146-0.592
		c-0.428-0.308-0.928-0.454-1.456-0.479c-0.66-0.032-1.302,0.056-1.959,0.056c-0.639,0-1.157-0.231-1.769-0.361
		c-0.52-0.11-1.031-0.061-1.564-0.063c-0.639-0.002-1.272-0.05-1.895-0.107c-0.471-0.043-0.937-0.023-1.414,0
		c-0.606,0.03-1.202-0.034-1.811-0.034c-0.825,0-1.674-0.046-2.49,0.028c-0.428,0.038-0.842,0.099-1.272,0.163
		c-0.355,0.054-0.806,0.214-1.155,0.172c-0.012-0.284,0.201-0.679,0.277-0.958c0.016-0.053,0.058-0.143,0.092-0.232
		c0.068,0.007,0.133,0.006,0.192-0.021C100.711,157.008,100.855,156.372,100.939,156.035 M99.65,159.133
		c0.11-0.416,0.952-0.363,1.351-0.402c0.51-0.049,1.031-0.017,1.535-0.092c0.51-0.076,1.061-0.209,1.578-0.136
		c0.586,0.083,1.178,0.085,1.783,0.085c0.521,0.002,1.022-0.115,1.533-0.141c0.602-0.029,1.197,0.1,1.775,0.199
		c1.185,0.203,2.404,0.193,3.6,0.311c0.945,0.094,1.852,0.262,2.823,0.311c0.515,0.025,0.782,0.181,1.188,0.475
		c0.217,0.157,0.633,0.566,0.931,0.598c0.005,0.115,0.011,0.232,0.016,0.35c-0.081-0.028-0.18-0.041-0.296-0.064
		c-0.558-0.109-1.068-0.342-1.621-0.502c-1.105-0.32-2.136-0.514-3.296-0.572c-0.708-0.035-1.393-0.113-2.106-0.113
		c-0.582,0-1.155,0.008-1.717-0.078c-1.059-0.163-2.121-0.225-3.176-0.121c-1.18,0.116-2.321,0.397-3.476,0.617
		c-0.67,0.127-1.36,0.166-2.036,0.232c-0.305,0.03-0.421,0.094-0.424-0.255C99.614,159.631,99.598,159.328,99.65,159.133
		 M99.729,163.257c0.006-0.485,0.006-0.965,0.028-1.442c0.025-0.564-0.046-0.884,0.538-1.098c0.475-0.175,1.023-0.191,1.527-0.254
		c1.019-0.131,2.021-0.234,3.025-0.373c0.501-0.07,1.002-0.221,1.502-0.229c0.54-0.007,1.08,0.174,1.611,0.256
		c0.471,0.072,0.987,0.026,1.471,0.027c0.592,0.002,1.122,0.026,1.713,0.092c1.19,0.13,2.605-0.15,3.746,0.225
		c0.271,0.089,0.41,0.299,0.65,0.419c0.271,0.137,0.558,0.097,0.851,0.141c0.44,0.066,0.928,0.487,1.379,0.596
		c-0.015,0.351-0.052,0.683-0.105,1.018c-0.04,0.253-0.056,0.405,0.021,0.651c0.049,0.154,0.274,0.551,0.121,0.652
		c-0.079,0.052-0.527-0.113-0.621-0.144c-0.223-0.07-0.426-0.151-0.631-0.247c-0.422-0.194-0.864-0.204-1.295-0.354
		c-0.452-0.158-0.802-0.232-1.288-0.283c-0.44-0.044-0.886-0.255-1.313-0.362c-0.441-0.11-0.96-0.117-1.416-0.025
		c-0.48,0.099-0.93,0.352-1.414,0.396c-0.486,0.042-0.777-0.237-1.217-0.255c-0.465-0.02-0.879,0.227-1.357,0.106
		c-0.408-0.103-0.795-0.364-1.217-0.362c-0.471,0.003-0.888,0.165-1.33,0.229c-0.92,0.134-1.835,0.345-2.744,0.479
		c-0.75,0.109-1.498,0.266-2.236,0.164C99.727,163.272,99.729,163.265,99.729,163.257 M118.316,165.281
		c-0.001,0.002-0.003,0.004-0.004,0.005c-0.011-0.007-0.021-0.012-0.031-0.019C118.293,165.274,118.303,165.28,118.316,165.281
		 M118.249,165.25c-0.267-0.14-0.646-0.187-0.896-0.289c-0.406-0.166-0.802-0.355-1.216-0.522c-0.549-0.221-1.125-0.455-1.705-0.529
		c-0.612-0.08-1.244-0.058-1.861-0.085c-1.111-0.051-2.217-0.323-3.365-0.222c-1.18,0.104-2.383,0.168-3.564,0.334
		c-0.736,0.105-1.488,0.127-2.234,0.195c-0.522,0.048-1.031,0.147-1.557,0.172c-0.42,0.02-0.802,0.095-1.21,0.176
		c-0.337,0.067-0.751,0.273-1.077,0.272c-0.025-0.308,0.044-0.619,0.102-0.933c0.143-0.028,0.285-0.068,0.432-0.082
		c0.232-0.024,0.475,0.012,0.707-0.006c0.499-0.039,1.016-0.17,1.5-0.275c0.882-0.189,1.812-0.485,2.715-0.538
		c0.24-0.015,0.477,0.004,0.709-0.031c0.221-0.032,0.438-0.111,0.679-0.085c0.463,0.052,0.729,0.397,1.244,0.37
		c0.931-0.048,1.802,0.138,2.716,0.001c0.898-0.136,1.885-0.158,2.802-0.057c0.937,0.104,1.759,0.543,2.66,0.733
		c0.86,0.182,1.747,0.247,2.24,1.099C118.133,165.059,118.175,165.19,118.249,165.25 M122.503,158.568
		c-0.445,0.382-0.98,1.029-1.555,1.21c-0.225,0.071-0.519,0.044-0.759,0.083c-0.267,0.045-0.532,0.14-0.799,0.198
		c-0.247,0.056-1.073,0.358-1.295,0.137c-0.094-0.093-0.05-0.534,0.057-0.61c0.121-0.087,0.548,0.001,0.701-0.006
		c0.411-0.02,0.84-0.173,1.218-0.34c0.801-0.353,1.551-0.902,2.17-1.534c0.317-0.323,0.609-0.683,0.976-0.949
		c0.147-0.107,0.343-0.227,0.465-0.362c0.093,0.302,0.185,0.606,0.271,0.911C123.481,157.743,122.992,158.147,122.503,158.568
		 M122.382,151.318c-0.074,0.323-0.165,0.64-0.367,0.926c-0.26,0.37-0.612,0.585-0.954,0.863c-0.339,0.275-0.671,0.521-1.046,0.735
		c-0.326,0.188-0.854,0.51-1.242,0.442c0.047-0.474,0.184-0.956,0.251-1.438c0.058-0.428,0.05-0.969,0.233-1.353
		c0.152-0.315,0.729-0.33,1.061-0.494c0.358-0.177,0.724-0.434,1.02-0.707c0.121-0.112,0.225-0.212,0.297-0.312
		c0.045,0.106,0.092,0.211,0.142,0.313C121.946,150.641,122.17,150.977,122.382,151.318 M121.334,149.178
		c0.032,0.098,0.065,0.194,0.101,0.29c-0.154,0.166-0.297,0.349-0.488,0.499c-0.3,0.234-0.852,0.785-1.25,0.778
		c-0.249-0.003-0.299-0.214-0.156-0.411c0.102-0.141,0.379-0.209,0.53-0.289C120.346,149.899,121.008,149.561,121.334,149.178
		 M106.005,143.023c0.457-0.449,0.605-1.229,0.784-1.798c0.063-0.197,0.118-0.403,0.201-0.595c0.03-0.069,0.099-0.164,0.157-0.257
		c0.096,0.109,0.195,0.216,0.305,0.321c0.439,0.422,0.826,0.804,1.389,1.03c0.191,0.078,1.325,0.401,1.624,0.497
		c0.604,0.193,1.253,0.131,1.866,0.042c0.64-0.093,1.219-0.279,1.868-0.337c0.325-0.029,0.492-0.014,0.618-0.155
		c-0.01,0.198-0.012,0.401-0.01,0.608c0.008,0.555,0.212,1.009,0.543,1.354c-0.866,1.214-2.551,1.786-4.014,1.674
		c-0.768-0.06-1.594-0.217-2.336-0.404c-0.358-0.09-0.713-0.22-1.056-0.323c-0.347-0.104-0.7-0.181-1.046-0.33
		c-0.334-0.145-0.649-0.339-0.885-0.625c-0.084-0.103-0.219-0.243-0.238-0.378C105.745,143.143,105.868,143.157,106.005,143.023
		 M100.997,147.495c-0.336-0.018-0.723-0.188-1.063-0.285c-0.315-0.089-0.675-0.161-0.969-0.327
		c-0.47-0.266-0.771-0.712-1.169-1.064c0.14-0.139,0.273-0.284,0.392-0.44c0.181,0.341,0.546,0.666,0.806,0.813
		c0.653,0.369,1.326,0.837,2.004,1.143C101.009,147.38,101.01,147.448,100.997,147.495 M101.363,146.957
		c-0.542-0.419-1.158-0.653-1.776-0.952c-0.288-0.139-0.59-0.237-0.813-0.459c-0.209-0.208-0.258-0.406-0.313-0.622
		c0.228-0.496,0.341-1.08,0.816-1.434c0.539-0.4,1.435-0.313,2.086-0.313c0.755,0,1.476-0.025,2.206,0.038
		c0.363,0.031,0.719,0.079,1.082,0.111c0.16,0.014,0.344-0.013,0.473,0.08c0.127,0.091,0.239,0.291,0.355,0.409
		c0.465,0.473,1.034,0.799,1.622,1.108c1.372,0.722,2.813,0.922,4.319,1.072c0.385,0.039,0.766-0.019,1.14-0.058
		c0.395-0.042,0.794-0.071,1.173-0.17c0.324-0.085,0.672-0.312,0.975-0.472c0.297-0.156,0.627-0.346,0.893-0.546
		c0.105-0.08,0.383-0.313,0.484-0.505c0.125,0.057,0.256,0.105,0.393,0.145c0.953,0.274,1.948,0.543,2.857,0.969
		c0.963,0.451,1.185,1.29,1.498,2.228c0.096,0.286,0.186,0.585,0.277,0.887c-0.203,0.281-0.32,0.609-0.615,0.845
		c-0.313,0.25-0.738,0.609-1.155,0.441c-0.048-0.257,0.097-0.496-0.054-0.732c-0.094-0.146-0.342-0.291-0.482-0.402
		c-0.41-0.322-0.891-0.584-1.337-0.87c-0.794-0.508-1.626-0.854-2.545-0.99c-0.46-0.069-0.864,0.043-1.303,0.143
		c-0.355,0.081-0.948,0.079-1.219,0.339c0.056,0.46,0.574,0.169,0.86,0.035c0.844-0.399,1.742-0.3,2.56,0
		c0.332,0.122,2.114,0.87,2.043,1.238l-0.226,0.029c-0.303,0.028-0.898-0.196-1.247-0.282c-0.411-0.102-0.822-0.279-1.243-0.341
		c-0.422-0.062-0.983-0.189-1.414-0.113c-0.188,0.033-0.166-0.033-0.227,0.141c-0.02,0.056-0.008,0.274,0.026,0.313
		c0.099,0.112,0.468,0.094,0.624,0.11c0.936,0.103,1.941,0.138,2.823,0.461c0.606,0.222,1.851,0.712,1.899,1.466
		c0.023,0.363-0.006,0.734-0.06,1.106c-0.142-0.188-0.599-0.219-0.821-0.28c-0.426-0.119-0.829-0.281-1.268-0.346
		c-0.462-0.068-0.934-0.033-1.414-0.058c-0.986-0.05-1.813-0.192-2.751-0.503c-0.849-0.281-1.738-0.581-2.625-0.828
		c-0.449-0.124-0.889-0.235-1.356-0.287c-0.493-0.055-1.011,0-1.5,0.006c-0.49,0.006-0.978-0.057-1.472-0.057
		c-0.479,0-0.891,0.1-1.329,0.142c-0.769,0.073-1.555-0.011-2.303,0.084c-0.067-0.229-0.158-0.429-0.158-0.706
		c0-0.422,0.026-0.589,0.453-0.737c0.852-0.295,1.934-0.113,2.828-0.253c0.478-0.075,0.945-0.211,1.442-0.114
		c0.151,0.029,0.469,0.226,0.603,0.092c0.181-0.181-0.139-0.438-0.27-0.545c-0.116-0.095-0.398-0.323-0.559-0.305
		c-0.205,0.023-0.193,0.214-0.426,0.276c-0.456,0.12-0.975,0.075-1.441,0.169c-0.445,0.091-0.922,0.184-1.357,0.256
		c-0.412,0.068-1.033,0.27-1.439,0.192c-0.002-0.04,0.004-0.098-0.004-0.137c-0.09-0.373,0.617-0.661,0.877-0.785
		c0.428-0.204,0.867-0.277,1.33-0.354c0.451-0.073,0.895-0.071,1.357-0.05c0.461,0.021,0.896,0.243,1.324,0.052
		c0.017-0.107-0.025-0.109-0.072-0.171c-0.215-0.285-0.898-0.249-1.224-0.249c-0.503,0-0.972,0.017-1.443,0.111
		c-0.464,0.093-0.913,0.219-1.356,0.376C102.065,146.535,101.643,146.618,101.363,146.957 M95.704,148.518
		c0.055-0.097,0.178-0.256,0.297-0.422c0.193,0.28,0.678,0.563,0.934,0.781c0.682,0.583,1.424,1.088,2.314,1.218
		c0.463,0.068,0.939,0.096,1.414,0.12c0.448,0.021,1.051-0.12,1.138,0.445c0.133,0.869-1.946,0.36-2.411,0.197
		c-0.871-0.308-1.674-0.539-2.491-0.947c-0.378-0.189-0.783-0.401-1.095-0.692c-0.111-0.103-0.207-0.331-0.352-0.348
		C95.544,148.762,95.631,148.649,95.704,148.518 M94.969,149.421c0.09-0.121,0.188-0.229,0.287-0.336
		c0.045,0.103,0.188,0.205,0.264,0.273c1.393,1.257,3.186,1.961,5,2.073c0.389,0.023,0.839-0.062,1.213,0.004
		c0.131,0.408-0.191,0.97-0.342,1.359c-0.146,0.376-0.244,0.979-0.73,0.957c-0.203-0.009-0.431-0.152-0.627-0.193
		c-0.217-0.045-0.426-0.029-0.645-0.007c-0.537,0.054-0.897-0.011-1.386-0.226c-0.752-0.329-1.479-0.662-2.208-1.055
		c-0.334-0.178-0.676-0.319-0.967-0.578c-0.242-0.217-0.386-0.502-0.564-0.747C94.451,150.423,94.619,149.893,94.969,149.421
		 M93.788,151.996c0.107-0.166,0.193-0.34,0.271-0.516c0.098,0.146,0.253,0.284,0.415,0.424c0.335,0.291,0.689,0.523,1.09,0.722
		c0.741,0.366,1.447,0.946,2.241,1.153c0.89,0.23,1.784,0.271,2.716,0.338c0.273,0.02,0.388,0.072,0.369,0.369
		c-0.021,0.324-0.172,0.327-0.453,0.281c-0.463-0.074-0.926-0.219-1.387-0.316c-0.855-0.182-1.661-0.463-2.49-0.842
		c-0.711-0.326-1.437-0.715-2.07-1.181c-0.086-0.063-0.463-0.354-0.707-0.422C93.784,152.004,93.786,152,93.788,151.996
		 M97.21,156.893c-0.839-0.127-1.797-0.272-2.595-0.631c-0.729-0.328-1.64-0.789-1.738-1.656c-0.055-0.472-0.022-0.986,0.147-1.422
		c0.13-0.334,0.353-0.611,0.564-0.9c0.083,0.307,0.758,0.629,1.014,0.768c0.781,0.424,1.598,0.807,2.418,1.174
		c0.807,0.361,1.729,0.654,2.566,0.828c0.229,0.049,0.479,0.025,0.708,0.086c0.298,0.076,0.251,0.165,0.077,0.416
		c-0.217,0.314-0.347,0.742-0.607,1.004C99.153,157.168,97.981,157.009,97.21,156.893 M96.759,164.924
		c-0.119-0.401-0.344-0.829-0.256-1.245c0.098-0.459,0.311-0.893,0.531-1.322c0.443-0.863,0.764-1.729,1.104-2.608
		c0.167-0.429,0.231-0.852,0.402-1.273c0.144-0.354,0.256-0.709,0.315-1.074c0.084-0.021,0.166-0.043,0.251-0.064
		c0.095-0.023,0.19-0.059,0.284-0.093c-0.103,0.332-0.129,0.713-0.193,1.034c-0.092,0.457-0.086,0.904-0.062,1.387
		c0.05,1.007,0.017,2.057-0.029,3.055c-0.047,1.003-0.276,1.944-0.425,2.921c-0.078,0.51-0.227,0.952-0.424,1.437
		c-0.131,0.315-0.374,0.653-0.514,0.984c-0.045-0.122-0.088-0.243-0.131-0.363C97.289,166.779,97.036,165.854,96.759,164.924
		 M99.304,172.932c-0.248-0.715-0.512-1.378-0.702-2.075c0.441-0.108,0.863-0.345,1.331-0.414c1.02-0.15,2.032-0.381,3.07-0.48
		c1.013-0.099,2.06-0.144,3.068-0.229c1.055-0.089,2.112-0.129,3.169-0.227c0.473-0.043,1.021-0.174,1.493-0.034
		c0.481,0.143,0.972,0.105,1.464,0.205c0.445,0.091,0.9,0.286,1.337,0.312c0.534,0.032,1.063-0.021,1.584,0.057
		c0.467,0.071,0.92,0.156,1.359,0.31c0.425,0.15,0.904,0.115,1.384,0.115c0.334,0,1.161-0.114,1.41,0.148
		c0.217,0.227,0.202,0.952,0.232,1.266c0.018,0.176,0.091,0.562-0.027,0.709c-0.135,0.168-0.432,0.139-0.624,0.166
		c-0.497,0.072-1.021,0.123-1.528,0.201c-2.209,0.337-4.542,0.703-6.789,0.395c-2.218-0.304-4.473,0.166-6.676,0.396
		c-0.502,0.052-0.979,0.114-1.5,0.114c-0.543,0-1.086-0.015-1.612,0.063c-0.252,0.036-0.784,0.06-0.936,0.292
		C99.602,173.835,99.465,173.394,99.304,172.932 M119.54,173.845c-0.43,0.356-1.285,0.436-1.816,0.508
		c-0.504,0.068-1.033,0.014-1.529,0.108c-0.558,0.106-1.139,0.223-1.731,0.162c-0.244-0.024-0.472-0.144-0.701-0.165
		c-0.216-0.02-0.546,0.043-0.759,0.084c-1.317,0.26-2.701,0.243-4.022,0.457c-1.038,0.167-2.001,0.375-3.084,0.309
		c-0.479-0.028-0.894-0.174-1.358-0.226c-0.506-0.057-0.954,0.032-1.441,0.086c-0.473,0.053-0.937,0.112-1.388,0.254
		c-0.101,0.032-0.246,0.054-0.396,0.084c-0.321-0.175-0.634-0.356-0.905-0.566c-0.11-0.085-0.207-0.18-0.294-0.28
		c0.305,0.017,0.737-0.134,0.968-0.178c0.951-0.183,1.967,0.016,2.92-0.135c0.498-0.08,0.974-0.264,1.494-0.313
		c0.516-0.049,1.005-0.149,1.512-0.227c1.078-0.165,2.169-0.029,3.246,0.029c1.105,0.061,2.222,0.057,3.339,0.057
		c1.082,0,2.176-0.082,3.247-0.196c0.544-0.059,1.084-0.148,1.625-0.222c0.252-0.034,0.51-0.102,0.758-0.126
		c0.244-0.024,0.274,0.074,0.504,0.181C119.709,173.639,119.634,173.768,119.54,173.845 M136.113,202.976
		c0.313,0.156,0.517,0.276,0.233,0.583c-0.083,0.091-0.177,0.241-0.291,0.282c-0.165,0.062-0.3-0.038-0.431,0.1
		c-0.07,0.073-0.1,0.184-0.152,0.277c0.009-0.469-0.29-1.323-0.284-1.436C135.468,202.652,135.862,202.85,136.113,202.976
		 M136.199,206.126c-0.412,0.334-1.055,0.78-1.571,0.827c-0.623,0.06-1.173-0.226-1.65-0.604c-0.43-0.342-0.824-0.866-0.953-1.386
		c-0.064-0.255-0.261-1.824,0.364-1.617c0.19,0.063,0.368,0.629,0.478,0.797c0.162,0.249,0.287,0.541,0.499,0.752
		c0.405,0.402,1.236,0.684,1.72,0.224c0.177-0.168,0.262-0.421,0.481-0.538c0.264,0.174,0.312,0.508,0.657,0.598
		c0.169,0.043,0.5,0.042,0.687-0.088c-0.063,0.136-0.111,0.305-0.134,0.362C136.673,205.716,136.421,205.946,136.199,206.126
		 M166.519,204.604c-0.25,1.334,0.054,3.099-1.158,4.049c-0.122-0.251,0.288-0.712-0.005-0.954
		c-0.252,0.344-0.362,0.788-0.609,1.152c-0.464,0.687-1.349,0.991-2.063,1.35c-0.628,0.313-1.446,0.713-2.145,0.509
		c-0.101-0.029-0.246-0.087-0.396-0.126c-0.011-0.128-0.025-0.254-0.051-0.378c-0.106-0.536-0.09-1.148-0.214-1.701
		c0.172,0.043,0.355,0.046,0.532,0.046c0.534,0,1.017-0.114,1.506-0.323c0.326-0.138,0.638-0.314,0.955-0.466
		c0.372-0.177,0.766-0.354,1.098-0.585c0.591-0.409,1.132-0.903,1.401-1.596c0.265-0.684,0.148-1.504,0.111-2.228
		c-0.018-0.351-0.057-0.719-0.175-1.04c-0.086-0.234-0.518-0.561-0.398-0.827c0.145-0.321,0.611-0.097,0.807,0.063
		c0.263,0.215,0.386,0.521,0.504,0.829c0.144,0.376,0.306,0.759,0.387,1.146C166.688,203.901,166.589,204.229,166.519,204.604"/>
	<path fill="#FFFFFF" d="M132.189,197.22c0.281-0.002,0.437-0.033,0.673-0.159c0.002,0.033,0.009,0.072,0.025,0.116
		c0.087,0.256,0.406,0.54,0.662,0.615c0.19,0.056,0.297-0.027,0.468-0.069c0.193-0.047,0.284-0.016,0.472,0.044
		c0.264,0.085,0.709-0.027,0.716-0.377c0.008-0.319-0.32-0.673-0.571-0.833c-0.294-0.188-0.559-0.221-0.912-0.207
		c-0.37,0.015-0.567,0.131-0.893,0.271c-0.294,0.127-0.487,0.333-0.764,0.515l0.148,0.063
		C132.209,197.207,132.161,197.223,132.189,197.22 M133.465,197.047c0.119-0.046,0.261-0.066,0.362,0.038
		c-0.004-0.03,0.008-0.067,0.002-0.096c0.169,0.023,0.198-0.147,0.385-0.114c0.119,0.021,0.326,0.132,0.372,0.261
		c0.149,0.425-0.497,0.074-0.611-0.089c-0.114,0.136,0.142,0.418-0.228,0.38c-0.219-0.022-0.262-0.167-0.34-0.335
		c-0.04-0.088-0.07-0.148-0.115-0.183C133.374,196.911,133.44,196.948,133.465,197.047"/>
	<path fill="#FFFFFF" d="M140.25,199.347c0.125,0.084,0.358,0.048,0.427-0.091c0.064-0.134-0.067-0.311-0.149-0.424
		c-0.2-0.272-0.469-0.434-0.78-0.547c-0.357-0.131-0.672-0.074-1.04-0.133c-0.173-0.027-0.341-0.166-0.36-0.318l-0.148-0.042
		c-0.224,0.106-0.595,0.449-0.636,0.7c0.098,0.069,0.213,0.032,0.312,0.092c0.11,0.063,0.078,0.156,0.261,0.165
		c0.259,0.013,0.345-0.087,0.566,0.126c0.241,0.235,0.786,0.836,1.132,0.382c-0.103-0.096-0.238-0.195-0.21-0.356
		C139.914,198.749,140.082,199.236,140.25,199.347"/>
</g>
</svg>
